<?xml version="1.0" encoding="utf-8" standalone="no"?>
<!DOCTYPE svg PUBLIC "-//W3C//DTD SVG 1.1//EN"
  "http://www.w3.org/Graphics/SVG/1.1/DTD/svg11.dtd">
<svg height="449.28pt" version="1.1" viewBox="0 0 485.52 449.28" width="485.52pt" xmlns="http://www.w3.org/2000/svg" xmlns:xlink="http://www.w3.org/1999/xlink">
 <metadata>
  <rdf:RDF xmlns:cc="http://creativecommons.org/ns#" xmlns:dc="http://purl.org/dc/elements/1.1/" xmlns:rdf="http://www.w3.org/1999/02/22-rdf-syntax-ns#">
   <cc:Work>
    <dc:type rdf:resource="http://purl.org/dc/dcmitype/StillImage"/>
    <dc:date>2021-11-29T11:37:51.209434</dc:date>
    <dc:format>image/svg+xml</dc:format>
    <dc:creator>
     <cc:Agent>
      <dc:title>Matplotlib v3.4.3, https://matplotlib.org/</dc:title>
     </cc:Agent>
    </dc:creator>
   </cc:Work>
  </rdf:RDF>
 </metadata>
 <defs>
  <style type="text/css">*{stroke-linecap:butt;stroke-linejoin:round;}</style>
 </defs>
 <g id="figure_1">
  <g id="patch_1">
   <path d="M 0 449.28 
L 485.52 449.28 
L 485.52 0 
L 0 0 
z
" style="fill:none;"/>
  </g>
  <g id="axes_1">
   <g id="LineCollection_1">
    <path clip-path="url(#pb9b1cc7257)" d="M 304.250506 442.08 
L 305.25551 441.172186 
L 312.971219 433.204898 
L 314.870204 431.296462 
L 321.016774 424.329796 
L 324.484898 420.469706 
L 328.527953 415.454694 
L 334.099592 408.608867 
L 335.597489 406.579592 
L 342.166907 397.70449 
L 343.714286 395.60944 
L 348.29366 388.829388 
L 353.32898 381.28255 
L 354.146972 379.954286 
L 359.534352 371.079184 
L 362.943673 365.326632 
L 364.665145 362.204082 
L 369.426071 353.32898 
L 372.558367 347.279984 
L 373.930308 344.453878 
L 378.077929 335.578776 
L 382.025779 326.703673 
L 382.173061 326.356659 
L 385.592407 317.828571 
L 388.939803 308.953469 
L 391.787755 300.882618 
L 392.058052 300.078367 
L 394.842586 291.203265 
L 397.405225 282.328163 
L 399.742817 273.453061 
L 401.402449 266.474639 
L 401.835994 264.577959 
L 403.644752 255.702857 
L 405.225385 246.827755 
L 406.575207 237.952653 
L 407.691241 229.077551 
L 408.570191 220.202449 
L 409.208425 211.327347 
L 409.601972 202.452245 
L 409.746526 193.577143 
L 409.637472 184.702041 
L 409.269912 175.826939 
L 408.638719 166.951837 
L 407.738599 158.076735 
L 406.564165 149.201633 
L 405.110039 140.326531 
L 403.370957 131.451429 
L 401.402449 122.837162 
L 401.339378 122.576327 
L 398.919206 113.701224 
L 396.189083 104.826122 
L 393.146094 95.95102 
L 391.787755 92.319278 
L 389.686856 87.075918 
L 385.829118 78.200816 
L 382.173061 70.427864 
L 381.611516 69.325714 
L 376.828856 60.450612 
L 372.558367 53.016736 
L 371.651019 51.57551 
L 365.819074 42.700408 
L 362.943673 38.509049 
L 359.378391 33.825306 
L 353.32898 26.152025 
L 352.263305 24.950204 
L 344.211244 16.075102 
L 343.714286 15.535635 
L 334.949221 7.2 
" style="fill:none;stroke:#bbbbbb;stroke-width:1.5;"/>
    <path clip-path="url(#pb9b1cc7257)" d="M 180.238165 7.2 
L 170.896271 16.075102 
L 170.649796 16.319028 
L 162.726449 24.950204 
L 161.035102 26.886702 
L 155.429627 33.825306 
L 151.420408 39.088023 
L 148.834314 42.700408 
L 142.848978 51.57551 
L 141.805714 53.206742 
L 137.379235 60.450612 
L 132.373727 69.325714 
L 132.19102 69.666978 
L 127.759508 78.200816 
L 123.540466 87.075918 
L 122.576327 89.242288 
L 119.639472 95.95102 
L 116.072364 104.826122 
L 112.961633 113.331898 
L 112.826978 113.701224 
L 109.816141 122.576327 
L 107.101622 131.451429 
L 104.665091 140.326531 
L 103.346939 145.665435 
L 102.462444 149.201633 
L 100.475304 158.076735 
L 98.734785 166.951837 
L 97.229204 175.826939 
L 95.948523 184.702041 
L 94.884197 193.577143 
L 94.029059 202.452245 
L 93.732245 206.484906 
L 93.363413 211.327347 
L 92.89298 220.202449 
L 92.625421 229.077551 
L 92.557926 237.952653 
L 92.688885 246.827755 
L 93.017868 255.702857 
L 93.545599 264.577959 
L 93.732245 266.872028 
L 94.254687 273.453061 
L 95.153549 282.328163 
L 96.25268 291.203265 
L 97.556952 300.078367 
L 99.072272 308.953469 
L 100.805591 317.828571 
L 102.764904 326.703673 
L 103.346939 329.105522 
L 104.918559 335.578776 
L 107.295682 344.453878 
L 109.921323 353.32898 
L 112.806905 362.204082 
L 112.961633 362.654227 
L 115.922776 371.079184 
L 119.317851 379.954286 
L 122.576327 387.827604 
L 123.007742 388.829388 
L 127.004755 397.70449 
L 131.330177 406.579592 
L 132.19102 408.280843 
L 136.055372 415.454694 
L 141.170011 424.329796 
L 141.805714 425.403228 
L 146.843054 433.204898 
L 151.420408 439.908299 
L 153.077004 442.08 
" style="fill:none;stroke:#bbbbbb;stroke-width:1.5;"/>
   </g>
   <g id="LineCollection_2">
    <path clip-path="url(#pb9b1cc7257)" d="M 248.660272 442.08 
L 257.182041 439.912337 
L 266.796735 436.252083 
L 272.786824 433.204898 
L 276.411429 431.437912 
L 286.026122 425.524035 
L 287.628551 424.329796 
L 295.640816 418.529776 
L 299.244211 415.454694 
L 305.25551 410.426803 
L 309.233062 406.579592 
L 314.870204 401.188944 
L 318.072345 397.70449 
L 324.484898 390.746802 
L 326.059573 388.829388 
L 333.311745 379.954286 
L 334.099592 378.980835 
L 339.857717 371.079184 
L 343.714286 365.686646 
L 345.982434 362.204082 
L 351.619036 353.32898 
L 353.32898 350.555101 
L 356.786288 344.453878 
L 361.622366 335.578776 
L 362.943673 333.049854 
L 366.019717 326.703673 
L 370.104059 317.828571 
L 372.558367 312.179932 
L 373.870724 308.953469 
L 377.257733 300.078367 
L 380.400582 291.203265 
L 382.173061 285.772244 
L 383.234885 282.328163 
L 385.731093 273.453061 
L 387.975714 264.577959 
L 389.964445 255.702857 
L 391.692907 246.827755 
L 391.787755 246.251946 
L 393.092996 237.952653 
L 394.2304 229.077551 
L 395.105403 220.202449 
L 395.713638 211.327347 
L 396.050439 202.452245 
L 396.110846 193.577143 
L 395.889627 184.702041 
L 395.381319 175.826939 
L 394.580273 166.951837 
L 393.480727 158.076735 
L 392.076882 149.201633 
L 391.787755 147.68765 
L 390.289217 140.326531 
L 388.154833 131.451429 
L 385.683565 122.576327 
L 382.870857 113.701224 
L 382.173061 111.713589 
L 379.55979 104.826122 
L 375.836905 95.95102 
L 372.558367 88.814199 
L 371.684487 87.075918 
L 366.895136 78.200816 
L 362.943673 71.398014 
L 361.60865 69.325714 
L 355.563029 60.450612 
L 353.32898 57.33405 
L 348.683823 51.57551 
L 343.714286 45.676811 
L 340.845871 42.700408 
L 334.099592 35.921908 
L 331.666225 33.825306 
L 324.484898 27.769471 
L 320.493953 24.950204 
L 314.870204 21.021762 
L 306.164167 16.075102 
L 305.25551 15.559397 
L 295.640816 11.271601 
L 286.026122 8.125411 
L 281.696199 7.2 
" style="fill:none;stroke:#bbbbbb;stroke-width:1.5;"/>
    <path clip-path="url(#pb9b1cc7257)" d="M 242.457284 7.2 
L 237.952653 8.180863 
L 228.337959 11.310496 
L 218.723265 15.548139 
L 217.756743 16.075102 
L 209.108571 20.902832 
L 203.116936 24.950204 
L 199.493878 27.477615 
L 191.688089 33.825306 
L 189.879184 35.357435 
L 182.229446 42.700408 
L 180.26449 44.681886 
L 174.094774 51.57551 
L 170.649796 55.654676 
L 166.924729 60.450612 
L 161.035102 68.558742 
L 160.51428 69.325714 
L 154.807085 78.200816 
L 151.420408 83.89508 
L 149.622091 87.075918 
L 144.943571 95.95102 
L 141.805714 102.43379 
L 140.688299 104.826122 
L 136.842143 113.701224 
L 133.358471 122.576327 
L 132.19102 125.827144 
L 130.211239 131.451429 
L 127.386092 140.326531 
L 124.867981 149.201633 
L 122.64142 158.076735 
L 122.576327 158.369466 
L 120.674845 166.951837 
L 118.979212 175.826939 
L 117.544737 184.702041 
L 116.36265 193.577143 
L 115.425746 202.452245 
L 114.728279 211.327347 
L 114.265892 220.202449 
L 114.035555 229.077551 
L 114.035526 237.952653 
L 114.265325 246.827755 
L 114.725719 255.702857 
L 115.418717 264.577959 
L 116.347583 273.453061 
L 117.516846 282.328163 
L 118.93233 291.203265 
L 120.601184 300.078367 
L 122.531929 308.953469 
L 122.576327 309.136428 
L 124.728122 317.828571 
L 127.207575 326.703673 
L 129.983485 335.578776 
L 132.19102 341.978709 
L 133.079013 344.453878 
L 136.528376 353.32898 
L 140.330466 362.204082 
L 141.805714 365.414699 
L 144.572675 371.079184 
L 149.264758 379.954286 
L 151.420408 383.771691 
L 154.525353 388.829388 
L 160.385307 397.70449 
L 161.035102 398.644125 
L 167.167754 406.579592 
L 170.649796 410.821433 
L 175.027211 415.454694 
L 180.26449 420.73162 
L 184.538184 424.329796 
L 189.879184 428.656803 
L 196.984911 433.204898 
L 199.493878 434.766688 
L 209.108571 439.233214 
L 218.63334 442.08 
" style="fill:none;stroke:#bbbbbb;stroke-width:1.5;"/>
   </g>
   <g id="LineCollection_3">
    <path clip-path="url(#pb9b1cc7257)" d="M 228.337959 407.704218 
L 237.952653 408.951574 
L 247.567347 408.798897 
L 257.182041 407.310442 
L 266.796735 404.545513 
L 276.411429 400.528219 
L 286.026122 395.267072 
L 295.640816 388.760866 
L 305.25551 380.966034 
L 315.534848 371.079184 
L 324.484898 361.142001 
L 334.099592 348.739247 
L 337.026619 344.453878 
L 343.714286 334.267882 
L 348.063081 326.703673 
L 353.32898 317.034404 
L 357.166673 308.953469 
L 361.1142 300.078367 
L 362.943673 295.656778 
L 364.650527 291.203265 
L 367.78148 282.328163 
L 370.628574 273.453061 
L 373.144562 264.577959 
L 375.25592 255.702857 
L 377.078124 246.827755 
L 378.60539 237.952653 
L 379.831806 229.077551 
L 380.751304 220.202449 
L 381.35764 211.327347 
L 381.644397 202.452245 
L 381.604996 193.577143 
L 381.232726 184.702041 
L 380.52079 175.826939 
L 379.462368 166.951837 
L 378.050693 158.076735 
L 376.27915 149.201633 
L 374.141393 140.326531 
L 371.562108 131.451429 
L 368.458731 122.576327 
L 364.945245 113.701224 
L 362.943673 109.13998 
L 360.847807 104.826122 
L 356.12232 95.95102 
L 353.32898 91.120687 
L 350.698157 87.075918 
L 343.714286 77.151717 
L 337.075274 69.325714 
L 334.099592 65.998727 
L 324.484898 56.946217 
L 314.870204 49.638421 
L 305.25551 43.855226 
L 295.640816 39.445465 
L 286.026122 36.301935 
L 276.411429 34.359427 
L 266.796735 33.581438 
L 257.182041 33.946086 
L 247.567347 35.451442 
L 237.952653 38.110553 
L 228.337959 41.95534 
L 226.893556 42.700408 
L 218.723265 47.058304 
L 209.108571 53.49256 
L 199.493878 61.3933 
L 189.879184 70.965678 
L 183.69617 78.200816 
L 180.26449 82.501941 
L 176.933804 87.075918 
L 170.649796 96.424606 
L 165.722977 104.826122 
L 160.990516 113.701224 
L 156.839304 122.576327 
L 153.097559 131.451429 
L 149.776963 140.326531 
L 146.852069 149.201633 
L 144.271015 158.076735 
L 141.805714 167.919672 
L 140.103229 175.826939 
L 138.493726 184.702041 
L 137.178612 193.577143 
L 136.150533 202.452245 
L 135.403846 211.327347 
L 134.934538 220.202449 
L 134.740174 229.077551 
L 134.819858 237.952653 
L 135.174218 246.827755 
L 135.805404 255.702857 
L 136.717109 264.577959 
L 137.914593 273.453061 
L 139.40474 282.328163 
L 141.805714 293.811179 
L 143.327887 300.078367 
L 145.803537 308.953469 
L 148.626729 317.828571 
L 151.828336 326.703673 
L 155.526788 335.578776 
L 161.035102 347.192104 
L 164.406532 353.32898 
L 170.649796 363.58474 
L 176.061547 371.079184 
L 180.26449 376.455656 
L 183.418163 379.954286 
L 189.879184 386.653291 
L 192.396726 388.829388 
L 199.493878 394.626842 
L 204.278609 397.70449 
L 209.108571 400.672032 
L 218.723265 404.98051 
L 228.337959 407.704218 
L 228.337959 407.704218 
" style="fill:none;stroke:#bbbbbb;stroke-width:1.5;"/>
   </g>
   <g id="LineCollection_4">
    <path clip-path="url(#pb9b1cc7257)" d="M 228.337959 373.094278 
L 237.952653 375.528938 
L 247.567347 376.377943 
L 257.182041 375.724874 
L 266.796735 373.630326 
L 273.777598 371.079184 
L 276.411429 370.120297 
L 286.026122 365.17434 
L 290.505483 362.204082 
L 295.640816 358.769937 
L 302.256066 353.32898 
L 305.25551 350.818787 
L 311.639078 344.453878 
L 314.870204 341.146217 
L 319.548175 335.578776 
L 324.484898 329.491172 
L 326.467995 326.703673 
L 332.504057 317.828571 
L 334.099592 315.356535 
L 337.78036 308.953469 
L 342.573247 300.078367 
L 343.714286 297.80915 
L 346.713964 291.203265 
L 350.421879 282.328163 
L 353.32898 274.675806 
L 353.753906 273.453061 
L 356.513673 264.577959 
L 358.93854 255.702857 
L 361.019118 246.827755 
L 362.746081 237.952653 
L 362.943673 236.662141 
L 364.019367 229.077551 
L 364.932639 220.202449 
L 365.493476 211.327347 
L 365.694119 202.452245 
L 365.526728 193.577143 
L 364.983419 184.702041 
L 364.056318 175.826939 
L 362.943673 168.326048 
L 362.719455 166.951837 
L 360.849489 158.076735 
L 358.53629 149.201633 
L 355.772551 140.326531 
L 353.32898 133.569747 
L 352.469843 131.451429 
L 348.398326 122.576327 
L 343.811387 113.701224 
L 343.714286 113.529622 
L 338.080324 104.826122 
L 334.099592 99.202931 
L 331.406912 95.95102 
L 324.484898 88.183064 
L 323.298264 87.075918 
L 314.870204 79.663855 
L 312.793968 78.200816 
L 305.25551 73.128297 
L 297.821801 69.325714 
L 295.640816 68.24747 
L 286.026122 64.912718 
L 276.411429 62.958115 
L 266.796735 62.341824 
L 257.182041 63.040903 
L 247.567347 65.050958 
L 237.952653 68.386483 
L 235.995138 69.325714 
L 228.337959 73.16886 
L 220.552529 78.200816 
L 218.723265 79.448791 
L 209.520494 87.075918 
L 209.108571 87.439647 
L 200.851021 95.95102 
L 199.493878 97.455907 
L 193.628523 104.826122 
L 189.879184 109.94645 
L 187.395505 113.701224 
L 182.013794 122.576327 
L 180.26449 125.740383 
L 177.350645 131.451429 
L 173.26814 140.326531 
L 170.649796 146.701298 
L 169.684608 149.201633 
L 166.634651 158.076735 
L 163.981496 166.951837 
L 161.710376 175.826939 
L 161.035102 178.965577 
L 159.852412 184.702041 
L 158.367259 193.577143 
L 157.223794 202.452245 
L 156.416465 211.327347 
L 155.941733 220.202449 
L 155.798024 229.077551 
L 155.985708 237.952653 
L 156.507096 246.827755 
L 157.366471 255.702857 
L 158.570141 264.577959 
L 160.126511 273.453061 
L 161.035102 277.689161 
L 162.090692 282.328163 
L 164.490528 291.203265 
L 167.304238 300.078367 
L 170.552342 308.953469 
L 170.649796 309.192758 
L 174.490583 317.828571 
L 178.963641 326.703673 
L 180.26449 329.049414 
L 184.331514 335.578776 
L 189.879184 343.591075 
L 190.571276 344.453878 
L 198.32478 353.32898 
L 199.493878 354.564747 
L 208.296184 362.204082 
L 209.108571 362.860601 
L 218.723265 368.928535 
L 223.554016 371.079184 
L 228.337959 373.094278 
" style="fill:none;stroke:#bbbbbb;stroke-width:1.5;"/>
   </g>
   <g id="LineCollection_5">
    <path clip-path="url(#pb9b1cc7257)" d="M 228.337959 336.24179 
L 237.952653 340.291566 
L 247.567347 342.380242 
L 257.182041 342.626549 
L 266.796735 341.121633 
L 276.411429 337.932334 
L 281.056533 335.578776 
L 286.026122 332.99855 
L 295.038175 326.703673 
L 295.640816 326.267959 
L 304.873368 317.828571 
L 305.25551 317.463201 
L 312.59508 308.953469 
L 314.870204 306.163903 
L 319.089729 300.078367 
L 324.484898 291.753071 
L 324.795055 291.203265 
L 329.399774 282.328163 
L 333.592814 273.453061 
L 334.099592 272.251584 
L 336.965834 264.577959 
L 339.867925 255.702857 
L 342.342561 246.827755 
L 343.714286 240.824095 
L 344.304838 237.952653 
L 345.710555 229.077551 
L 346.690327 220.202449 
L 347.232416 211.327347 
L 347.32524 202.452245 
L 346.95741 193.577143 
L 346.117804 184.702041 
L 344.795653 175.826939 
L 343.714286 170.514863 
L 342.889413 166.951837 
L 340.282284 158.076735 
L 337.09815 149.201633 
L 334.099592 142.122102 
L 333.212117 140.326531 
L 328.191263 131.451429 
L 324.484898 125.658749 
L 322.112465 122.576327 
L 314.870204 114.089046 
L 314.455963 113.701224 
L 305.25551 105.783559 
L 303.77974 104.826122 
L 295.640816 99.892346 
L 286.152651 95.95102 
L 286.026122 95.901189 
L 276.411429 93.76585 
L 266.796735 93.24248 
L 257.182041 94.299133 
L 251.109942 95.95102 
L 247.567347 96.970926 
L 237.952653 101.369667 
L 232.443103 104.826122 
L 228.337959 107.588419 
L 221.148773 113.701224 
L 218.723265 115.937405 
L 212.71349 122.576327 
L 209.108571 126.944891 
L 205.887568 131.451429 
L 200.167013 140.326531 
L 199.493878 141.489395 
L 195.50935 149.201633 
L 191.473732 158.076735 
L 189.879184 162.098292 
L 188.11997 166.951837 
L 185.367841 175.826939 
L 183.080638 184.702041 
L 181.24724 193.577143 
L 180.26449 199.860948 
L 179.885359 202.452245 
L 178.999688 211.327347 
L 178.525839 220.202449 
L 178.463771 229.077551 
L 178.816085 237.952653 
L 179.588065 246.827755 
L 180.26449 251.856112 
L 180.826196 255.702857 
L 182.587453 264.577959 
L 184.839972 273.453061 
L 187.604728 282.328163 
L 189.879184 288.481532 
L 191.010764 291.203265 
L 195.281668 300.078367 
L 199.493878 307.654129 
L 200.337883 308.953469 
L 206.825703 317.828571 
L 209.108571 320.619934 
L 215.246317 326.703673 
L 218.723265 329.820475 
L 227.265972 335.578776 
L 228.337959 336.24179 
" style="fill:none;stroke:#bbbbbb;stroke-width:1.5;"/>
   </g>
   <g id="LineCollection_6">
    <path clip-path="url(#pb9b1cc7257)" d="M 247.567347 302.098615 
L 257.182041 303.747512 
L 266.796735 302.993752 
L 276.035918 300.078367 
L 276.411429 299.952818 
L 286.026122 294.300182 
L 289.739405 291.203265 
L 295.640816 285.903378 
L 298.700355 282.328163 
L 305.25551 273.948841 
L 305.569908 273.453061 
L 310.579586 264.577959 
L 314.870204 255.919366 
L 314.960236 255.702857 
L 318.060859 246.827755 
L 320.570244 237.952653 
L 322.459827 229.077551 
L 323.701774 220.202449 
L 324.269146 211.327347 
L 324.136097 202.452245 
L 323.278106 193.577143 
L 321.672251 184.702041 
L 319.297508 175.826939 
L 316.135084 166.951837 
L 314.870204 164.094835 
L 311.544705 158.076735 
L 305.649387 149.201633 
L 305.25551 148.689215 
L 296.72002 140.326531 
L 295.640816 139.39285 
L 286.026122 133.712201 
L 279.035107 131.451429 
L 276.411429 130.679583 
L 266.796735 130.080755 
L 258.414477 131.451429 
L 257.182041 131.67172 
L 247.567347 135.706304 
L 240.541612 140.326531 
L 237.952653 142.219999 
L 230.879266 149.201633 
L 228.337959 152.038376 
L 223.997809 158.076735 
L 218.723265 166.53962 
L 218.506456 166.951837 
L 214.523253 175.826939 
L 211.239996 184.702041 
L 209.108571 191.983768 
L 208.699526 193.577143 
L 207.017343 202.452245 
L 205.930658 211.327347 
L 205.440423 220.202449 
L 205.552344 229.077551 
L 206.277053 237.952653 
L 207.630369 246.827755 
L 209.108571 253.402518 
L 209.714641 255.702857 
L 212.818285 264.577959 
L 216.765543 273.453061 
L 218.723265 277.091323 
L 222.247276 282.328163 
L 228.337959 289.92433 
L 229.737786 291.203265 
L 237.952653 297.684908 
L 242.87019 300.078367 
L 247.567347 302.098615 
" style="fill:none;stroke:#bbbbbb;stroke-width:1.5;"/>
   </g>
   <g id="line2d_1">
    <path clip-path="url(#pb9b1cc7257)" d="M 362.504208 147.259627 
L 362.853924 148.174325 
L 363.45732 149.54021 
L 363.872268 151.0487 
L 364.129572 152.572592 
L 365.22402 155.721305 
L 365.579172 157.847324 
L 366.235116 159.711148 
L 366.494232 161.164734 
L 366.613824 162.437302 
L 366.988908 163.508918 
L 367.304196 164.56006 
L 367.583244 166.321867 
L 367.66116 167.609837 
L 368.001816 168.708996 
L 368.289924 169.782244 
L 368.52186 171.436781 
L 368.58528 173.050186 
L 368.951304 174.280715 
L 369.16512 175.381505 
L 369.293772 177.067571 
L 369.317328 178.404646 
L 369.6453 179.664892 
L 369.830124 180.780721 
L 369.913476 182.490524 
L 369.915288 184.009886 
L 370.413588 187.409742 
L 370.444392 190.185001 
L 370.663644 191.487648 
L 370.692636 193.380644 
L 370.567608 195.051127 
L 370.808604 196.497284 
L 370.866588 197.80881 
L 370.808604 199.119067 
L 370.649148 200.638973 
L 370.826724 201.964088 
L 370.875648 203.122138 
L 370.721628 205.046482 
L 370.56942 206.256535 
L 370.683576 207.449556 
L 370.730688 208.612135 
L 370.554924 210.537929 
L 370.3248 211.891855 
L 370.399092 213.097741 
L 370.420836 214.264669 
L 370.154472 216.34249 
L 369.90804 217.71671 
L 369.976896 219.052517 
L 369.931596 220.066331 
L 369.628992 221.991218 
L 369.33726 223.352755 
L 369.362628 224.696534 
L 369.295584 225.707268 
L 368.940432 227.624545 
L 368.607024 228.970861 
L 368.588904 230.167687 
L 368.525484 231.178964 
L 368.043492 233.379457 
L 367.722768 234.559794 
L 367.664784 235.599701 
L 367.604988 236.620038 
L 367.146552 238.652377 
L 366.6555 240.287345 
L 366.572148 241.739663 
L 366.349272 242.879266 
L 365.8854 244.455561 
L 365.463204 245.781655 
L 364.89786 249.07154 
L 364.3905 250.36076 
L 364.096956 251.388037 
L 363.687444 253.748983 
L 363.074988 255.425735 
L 362.699904 256.396514 
L 362.520516 257.55382 
L 362.330256 258.513003 
L 361.56378 260.573622 
L 361.094472 261.672252 
L 360.89334 262.810614 
L 360.6759 263.750824 
L 359.775336 265.911399 
L 359.313276 267.022952 
L 358.470696 269.963592 
L 357.934344 271.004242 
L 357.506712 271.934668 
L 357.243972 273.158837 
L 356.935932 274.045829 
L 356.057112 275.849802 
L 355.535256 276.903679 
L 354.618384 279.600859 
L 354.072972 280.58405 
L 353.516688 281.595146 
L 353.22858 282.645019 
L 352.913292 283.494485 
L 351.898572 285.321887 
L 351.33504 286.322292 
L 350.17536 289.117664 
L 348.839916 291.633445 
L 348.511944 292.443953 
L 347.256228 294.39149 
L 346.75974 295.224648 
L 345.83562 297.272027 
L 344.898816 298.591888 
L 344.384208 299.395872 
L 343.349556 301.490906 
L 342.561336 302.538061 
L 341.936196 303.426304 
L 340.939596 305.340682 
L 339.961116 306.559433 
L 339.424764 307.311413 
L 338.395548 309.151318 
L 337.395324 310.318608 
L 336.851724 311.048119 
L 335.952972 312.612781 
L 334.001448 315.11769 
L 333.615492 315.770191 
L 331.33962 318.524794 
L 330.93192 319.13435 
L 328.688664 321.6726 
L 328.357068 322.187027 
L 326.941896 323.530625 
L 326.342124 324.119162 
L 324.959568 325.852159 
L 324.153228 326.508103 
L 323.567952 327.092654 
L 322.665576 328.257046 
L 320.645196 330.112352 
L 320.179512 330.71756 
L 317.910888 332.658937 
L 317.439768 333.22555 
L 315.165708 335.054764 
L 314.763444 335.526065 
L 312.474888 337.214849 
L 312.003768 337.727826 
L 309.782256 339.23233 
L 309.316572 339.732442 
L 307.093248 341.109562 
L 306.555084 341.630874 
L 304.483968 342.768991 
L 303.713868 343.411708 
L 301.890996 344.300675 
L 300.954192 345.005543 
L 299.138568 345.844861 
L 298.37028 346.394078 
L 296.656128 347.053103 
L 295.37142 347.794392 
L 294.418308 348.087392 
L 293.83122 348.386191 
L 293.229636 348.787912 
L 291.56622 349.246891 
L 291.06792 349.576313 
L 290.674716 349.793934 
L 288.940632 350.202721 
L 288.41334 350.557692 
L 288.070872 350.683807 
L 286.536108 350.962674 
L 286.005192 351.229944 
L 285.555816 351.438143 
L 284.044608 351.643261 
L 283.504632 351.880633 
L 283.062504 352.071618 
L 281.674512 352.194109 
L 281.10192 352.373135 
L 280.590936 352.586588 
L 279.414948 352.646566 
L 278.820612 352.725569 
L 278.005212 352.972363 
L 276.588228 353.003711 
L 276.039192 353.228036 
L 275.727528 353.269531 
L 274.962864 353.26482 
L 273.82674 353.335488 
L 273.399108 353.45508 
L 272.64894 353.409236 
L 271.391412 353.475737 
L 271.03626 353.52303 
L 270.360384 353.451637 
L 268.999572 353.501286 
L 268.764012 353.502373 
L 268.10082 353.395103 
L 265.368324 353.126927 
L 264.808416 353.086882 
L 264.188712 353.120766 
L 263.598 352.988852 
L 262.287924 352.88122 
L 262.065048 352.836826 
L 261.425412 352.650371 
L 260.088156 352.496532 
L 259.796424 352.373135 
L 258.798012 352.039002 
L 258.256224 351.967972 
L 257.794164 351.94804 
L 257.239692 351.727338 
L 254.971068 351.06922 
L 254.1756 350.792346 
L 253.655556 350.71588 
L 253.180812 350.480682 
L 251.37606 349.81296 
L 249.995316 349.318828 
L 249.743448 349.241999 
L 249.245148 348.928342 
L 247.569048 348.168208 
L 246.371316 347.556658 
L 245.923752 347.437428 
L 245.501556 347.120509 
L 243.816396 346.201282 
L 242.5788 345.518882 
L 242.276196 345.401102 
L 241.886616 345.051386 
L 240.261252 344.018365 
L 239.06352 343.25352 
L 238.766352 343.113815 
L 238.396704 342.73565 
L 236.890932 341.650444 
L 235.90158 340.841748 
L 235.325364 340.47808 
L 234.91404 340.103358 
L 233.64564 339.063451 
L 232.78494 338.239535 
L 231.989472 337.593738 
L 230.893212 336.664907 
L 230.659464 336.512699 
L 230.358672 336.077456 
L 228.990612 334.765387 
L 228.175212 333.872434 
L 227.535576 333.284077 
L 226.93218 332.575223 
L 226.602396 332.255042 
L 226.178388 331.899528 
L 225.89934 331.489472 
L 224.717916 330.194074 
L 224.40444 329.802682 
L 223.387908 328.660759 
L 223.107048 328.239288 
L 222.70116 327.67938 
L 222.30252 327.340717 
L 222.095952 327.141397 
L 221.84046 326.648533 
L 220.72608 325.262716 
L 220.439784 324.838345 
L 220.106376 324.320657 
L 219.722232 323.957894 
L 219.5211 323.747521 
L 219.283728 323.240161 
L 218.191092 321.715726 
L 217.58226 320.742682 
L 216.627336 319.39709 
L 216.136284 318.690954 
L 215.900724 318.415892 
L 215.728584 317.956188 
L 214.632324 316.189126 
L 213.751692 314.938483 
L 213.652032 314.714882 
L 213.470832 314.237783 
L 212.510472 312.582883 
L 211.977744 311.544788 
L 211.459512 310.656908 
L 210.874236 309.531294 
L 210.510024 308.961058 
L 210.308892 308.469462 
L 210.047964 307.90738 
L 209.796096 307.51037 
L 209.542416 307.141628 
L 209.40108 306.649852 
L 208.542192 304.912144 
L 208.110936 303.920255 
L 207.795648 303.50277 
L 207.676056 303.287323 
L 207.536532 302.723248 
L 206.768244 301.122708 
L 206.581608 300.616616 
L 206.35692 300.029347 
L 206.12136 299.626721 
L 205.918416 299.298386 
L 205.780704 298.719452 
L 205.449108 297.875242 
L 204.81672 296.445936 
L 203.468592 292.890611 
L 203.028276 291.677296 
L 202.75104 291.11775 
L 202.635072 290.59227 
L 202.029864 289.071821 
L 201.924768 288.544348 
L 201.707328 287.85923 
L 201.506196 287.433773 
L 201.334056 287.080976 
L 201.272448 286.570174 
L 200.66724 284.776112 
L 200.509596 284.254256 
L 200.37732 283.718992 
L 200.188872 283.286286 
L 200.02398 282.926785 
L 199.975056 282.413264 
L 199.387968 280.410461 
L 198.969396 279.095674 
L 198.819 278.730483 
L 198.748332 278.12272 
L 198.57438 277.421712 
L 198.351504 276.922814 
L 198.253656 276.617764 
L 198.217416 276.094476 
L 197.728176 274.251871 
L 197.592276 273.724199 
L 197.49624 273.172209 
L 197.280612 272.677062 
L 197.195448 272.429181 
L 197.168268 271.83325 
L 196.724328 270.15137 
L 196.68084 269.689727 
L 196.494204 268.789815 
L 196.102812 267.159595 
L 195.890808 266.309404 
L 195.805644 265.995874 
L 195.800208 265.47043 
L 195.417876 263.591422 
L 195.287412 262.982065 
L 194.870652 260.415117 
L 194.709384 259.883831 
L 194.62422 259.565472 
L 194.64234 259.044082 
L 194.317992 257.051697 
L 194.11686 255.755954 
L 193.979148 255.132264 
L 193.951968 254.576233 
L 193.87224 253.945929 
L 193.765332 253.480607 
L 193.652988 253.085012 
L 193.689228 252.563319 
L 193.317768 249.809061 
L 193.236228 249.165819 
L 193.134756 248.696819 
L 193.158312 248.153418 
L 192.89376 246.562573 
L 192.940872 246.036477 
L 192.73974 244.112622 
L 192.663636 243.489113 
L 192.562164 241.794385 
L 192.406332 240.404762 
L 192.333852 240.004129 
L 192.391836 239.470858 
L 192.243252 237.629684 
L 192.219696 237.066696 
L 192.210636 236.416007 
L 192.058428 235.847039 
L 192.091044 235.56781 
L 192.13272 235.012794 
L 192.10554 234.280746 
L 191.993196 233.745662 
L 191.9787 233.414791 
L 192.045744 232.873184 
L 191.91528 231.188749 
L 191.96964 230.636089 
L 191.846424 229.029208 
L 191.927964 228.491225 
L 191.82468 226.798636 
L 191.89716 226.248512 
L 191.801124 224.633477 
L 191.895348 224.099118 
L 191.85186 222.324264 
L 191.909844 221.851332 
L 191.844612 220.228142 
L 191.953332 219.698132 
L 191.940648 217.916936 
L 192.013128 217.445816 
L 191.976888 215.814473 
L 192.094668 215.192594 
L 192.138156 214.35545 
L 192.237816 212.293757 
L 192.201576 211.733849 
L 192.19614 211.393555 
L 192.33204 210.87478 
L 192.442572 208.911659 
L 192.469752 208.346496 
L 192.533172 206.902876 
L 192.656388 206.356739 
L 192.705312 204.720503 
L 192.852084 204.194479 
L 192.96624 202.401686 
L 193.073148 201.837792 
L 193.143816 201.191089 
L 193.136568 200.628826 
L 193.149252 200.286901 
L 193.312332 199.770844 
L 193.489908 197.891981 
L 193.584132 197.41162 
L 193.662048 196.764011 
L 193.689228 196.280207 
L 193.716408 195.787886 
L 193.87224 195.247004 
L 194.037132 193.536295 
L 194.18028 193.084564 
L 194.419464 191.205882 
L 194.526372 190.726064 
L 194.665896 189.885296 
L 194.930448 188.068948 
L 195.039168 187.337081 
L 195.066348 186.913616 
L 195.265668 186.403538 
L 195.52116 184.599874 
L 195.689676 184.047757 
L 195.831012 183.305924 
L 195.849132 182.752721 
L 195.887184 182.47621 
L 196.11912 181.889846 
L 196.428972 180.10104 
L 196.582992 179.636081 
L 196.876536 177.924828 
L 197.075856 177.385033 
L 197.35128 175.743724 
L 197.575968 175.23582 
L 197.980044 173.365111 
L 198.135876 172.89236 
L 198.344256 172.056304 
L 198.867924 170.004576 
L 198.956712 169.43742 
L 199.011072 169.086073 
L 199.286496 168.512213 
L 199.67064 166.797698 
L 199.909824 166.28001 
L 200.362824 164.504431 
L 200.562144 164.052881 
L 201.035076 162.28147 
L 201.241644 161.831912 
L 201.687396 160.127726 
L 201.948324 159.617105 
L 202.414008 157.91455 
L 202.683996 157.409545 
L 203.271084 155.575076 
L 203.474028 155.112473 
L 203.952396 153.506497 
L 204.240504 153.018526 
L 204.869268 151.18913 
L 205.093956 150.738848 
L 205.60494 149.126168 
L 205.91298 148.664108 
L 206.789988 146.502574 
L 207.284664 145.047175 
L 207.378888 144.777731 
L 207.741288 144.255875 
L 208.524072 142.384079 
L 208.777752 141.837942 
L 209.107536 141.124558 
L 209.540604 140.172352 
L 209.759856 139.711741 
L 210.047964 139.094755 
L 210.211044 138.554598 
L 210.354192 138.237136 
L 210.69666 137.790115 
L 212.008548 135.036056 
L 212.3184 134.350577 
L 212.483292 133.95701 
L 212.838444 133.524848 
L 214.32972 130.663338 
L 214.570716 130.135321 
L 214.739232 129.7365 
L 215.157804 129.239106 
L 216.061992 127.528759 
L 216.36822 127.127039 
L 217.303212 125.440067 
L 217.614876 125.037803 
L 218.510004 123.428203 
L 218.894148 122.972304 
L 219.753036 121.429386 
L 220.1553 121.021686 
L 221.22438 119.308984 
L 221.555976 118.918498 
L 222.409428 117.446972 
L 222.88236 117.02079 
L 224.081904 115.290149 
L 224.455176 114.807251 
L 224.913612 114.176312 
L 225.598548 113.290788 
L 225.957324 112.804628 
L 226.794468 111.575368 
L 227.292768 111.161869 
L 228.584724 109.519654 
L 228.985176 109.0585 
L 229.41462 108.532114 
L 229.72266 107.999386 
L 229.914732 107.803146 
L 230.432964 107.403238 
L 231.704988 105.877171 
L 232.08732 105.541951 
L 233.241564 104.140732 
L 233.712684 103.802431 
L 235.12242 102.288868 
L 235.508376 101.949842 
L 236.588328 100.692133 
L 237.131928 100.373765 
L 238.849704 98.761628 
L 239.819124 97.802899 
L 240.2685 97.338665 
L 240.763176 97.063603 
L 242.46102 95.606936 
L 242.906772 95.210471 
L 243.963168 94.221662 
L 244.533948 93.965083 
L 245.688192 92.892379 
L 245.961804 92.713172 
L 246.470976 92.500081 
L 247.617972 91.517977 
L 247.929636 91.277344 
L 248.525784 91.035623 
L 250.248996 89.826475 
L 250.694748 89.574245 
L 252.041064 88.568585 
L 252.559296 88.416558 
L 253.664616 87.662404 
L 254.181036 87.304352 
L 254.713764 87.153232 
L 255.897 86.375521 
L 256.292016 86.114231 
L 256.900848 85.966553 
L 258.209112 85.121436 
L 258.500844 84.986986 
L 259.118736 84.852535 
L 260.446932 84.053624 
L 260.742288 83.933126 
L 261.365616 83.820239 
L 262.71918 83.066084 
L 263.01816 82.955552 
L 263.6433 82.867308 
L 264.96606 82.205203 
L 265.324836 82.0568 
L 265.948164 81.998816 
L 267.232872 81.429667 
L 267.66594 81.239951 
L 268.278396 81.214945 
L 269.429016 80.772274 
L 270.24804 80.534539 
L 270.83694 80.46369 
L 272.636256 79.897621 
L 273.221532 79.871891 
L 275.220168 79.379208 
L 275.829 79.321224 
L 277.508724 78.89178 
L 278.153796 78.947952 
L 279.594336 78.600048 
L 279.992976 78.534816 
L 280.70328 78.634476 
L 282.861372 78.389856 
L 283.377792 78.415224 
L 285.36012 78.244896 
L 285.856608 78.33006 
L 287.423988 78.150672 
L 287.77008 78.145236 
L 288.455016 78.346368 
L 289.886496 78.264828 
L 290.462712 78.26664 
L 291.066108 78.476832 
L 291.841644 78.444216 
L 293.175276 78.509448 
L 293.796792 78.743196 
L 295.070628 78.78306 
L 295.967568 78.920772 
L 296.534724 79.138212 
L 298.783416 79.47162 
L 299.388624 79.680362 
L 301.327464 79.963216 
L 301.916364 80.289376 
L 302.63754 80.390666 
L 303.920436 80.623146 
L 304.4586 80.985908 
L 305.098236 81.184141 
L 306.15282 81.405024 
L 306.902988 81.66722 
L 307.513632 82.047559 
L 308.992224 82.430978 
L 309.606492 82.653311 
L 310.358472 83.163208 
L 312.480324 83.940012 
L 313.081908 84.383227 
L 315.352344 85.396135 
L 315.90138 85.798218 
L 318.088464 86.867117 
L 318.594012 87.307976 
L 319.405788 87.645008 
L 320.654256 88.307113 
L 321.697968 89.203872 
L 323.093208 89.922149 
L 323.522652 90.261174 
L 324.122424 90.905884 
L 325.093656 91.418317 
L 326.262396 92.25981 
L 326.844048 92.939672 
L 327.648576 93.408074 
L 328.759332 94.177268 
L 329.076432 94.575908 
L 329.625468 95.215001 
L 331.752756 96.897262 
L 332.267364 97.569151 
L 333.138936 98.174359 
L 334.246068 99.14686 
L 335.266224 100.425588 
L 336.3498 101.31981 
L 336.984 102.022866 
L 337.50042 102.84787 
L 338.274144 103.490767 
L 339.038808 104.24166 
L 339.528048 104.829835 
L 340.080708 105.782404 
L 340.754772 106.390873 
L 341.434272 107.097191 
L 342.1029 107.981084 
L 342.505164 108.768217 
L 343.07232 109.367627 
L 343.773564 110.096232 
L 344.605272 111.312809 
L 345.034716 112.144517 
L 345.6816 112.829272 
L 346.328484 113.616404 
L 346.95906 114.600683 
L 347.397564 115.567928 
L 348.029952 116.296352 
L 348.66234 117.121537 
L 349.311036 118.262735 
L 349.678872 119.149165 
L 350.291328 119.924701 
L 350.907408 120.78667 
L 351.508992 121.866984 
L 351.945684 123.01851 
L 352.619748 123.90494 
L 353.317368 125.031098 
L 353.68158 125.847948 
L 354.038544 126.911592 
L 354.61476 127.754716 
L 355.183728 128.694781 
L 355.725516 129.871856 
L 356.098788 131.093869 
L 356.794596 132.166754 
L 357.419736 133.391666 
L 357.689724 134.162491 
L 358.044876 135.427086 
L 359.5434 138.60316 
L 359.811576 139.756679 
L 360.315312 140.701637 
L 360.762876 141.626482 
L 361.272048 143.187157 
L 361.514856 144.372386 
L 361.996848 145.343075 
L 362.413608 146.298361 
L 362.873856 147.908142 
L 363.08586 149.121095 
L 363.542484 150.119144 
L 363.932064 151.102879 
L 364.332516 152.624959 
L 364.522776 153.9961 
L 364.950408 155.021873 
L 365.310996 156.032425 
L 365.666148 157.594369 
L 365.818356 158.989247 
L 366.215184 160.043106 
L 366.548592 161.078483 
L 366.860256 162.815466 
L 367.007028 164.260355 
L 367.902156 167.865691 
L 368.000004 169.467318 
L 368.429448 170.811278 
L 368.695812 172.194016 
L 368.788224 173.290276 
L 368.835336 174.765425 
L 369.52752 178.518802 
L 369.547452 180.31993 
L 370.109172 183.684451 
L 370.201584 186.445033 
L 370.453452 187.879594 
L 370.471572 189.913201 
L 370.402716 191.105316 
L 370.602036 192.281666 
L 370.75062 193.42522 
L 370.736124 195.324558 
L 370.609284 196.846094 
L 370.837596 198.302036 
L 370.88652 199.61483 
L 370.817664 200.927987 
L 370.640088 202.444631 
L 370.801356 203.777538 
L 370.848468 204.787366 
L 370.674516 206.86283 
L 370.507812 208.069079 
L 370.585728 209.111704 
L 370.654584 210.285155 
L 370.48788 212.210767 
L 370.205208 213.890672 
L 370.299432 215.220137 
L 370.259568 216.385796 
L 370.004076 218.162825 
L 369.739524 219.531972 
L 369.540204 223.37015 
L 369.096264 225.702376 
L 369.0564 227.519812 
L 368.636016 229.584223 
L 368.317104 230.954458 
L 368.021748 234.168946 
L 367.737264 235.176055 
L 367.378488 236.530525 
L 366.885624 240.154344 
L 366.226056 242.75547 
L 366.097404 244.069859 
L 365.542932 246.073967 
L 365.048256 247.536541 
L 364.365132 251.091522 
L 363.589596 253.461581 
L 363.335916 255.047317 
L 362.580312 257.138401 
L 362.196168 258.103418 
L 362.009532 259.256069 
L 361.766724 260.345005 
L 360.953136 262.398902 
L 360.501948 263.520156 
L 359.659368 266.639859 
L 358.595724 269.314769 
L 358.294932 270.520257 
L 357.236724 272.762099 
L 356.83446 273.709703 
L 356.066172 276.164619 
L 355.48452 277.298713 
L 354.937296 278.316169 
L 354.652812 279.390305 
L 354.362892 280.261333 
L 353.3826 282.123344 
L 352.824504 283.129367 
L 352.463916 284.420236 
L 352.085208 285.250675 
L 350.352936 288.685865 
L 350.024964 289.505795 
L 348.691332 291.63725 
L 348.309 292.364768 
L 347.408436 294.443132 
L 346.571292 295.676923 
L 346.049436 296.481814 
L 344.69406 299.201626 
L 343.3713 301.302277 
L 342.969036 302.175661 
L 341.635404 303.960119 
L 341.111736 304.735474 
L 340.104264 306.617236 
L 339.111288 307.820404 
L 338.57856 308.57184 
L 337.692492 310.176004 
L 336.525564 311.529205 
L 335.991024 312.258898 
L 335.159316 313.69527 
L 333.131688 316.265411 
L 332.733048 316.897074 
L 330.5061 319.515776 
L 330.111084 320.129682 
L 327.846084 322.615565 
L 327.45288 323.209538 
L 325.109964 325.662986 
L 324.765684 326.135012 
L 323.216424 327.457954 
L 322.645644 328.048847 
L 321.902724 329.034756 
L 319.85154 330.810878 
L 319.251768 331.579891 
L 317.182464 333.217033 
L 316.504776 334.034608 
L 314.362992 335.670119 
L 313.828452 336.283843 
L 311.675796 337.785991 
L 311.066964 338.432694 
L 308.990412 339.761252 
L 308.301852 340.427706 
L 306.38838 341.515993 
L 305.451576 342.310918 
L 303.623268 343.295921 
L 302.856792 343.927946 
L 301.035732 344.785566 
L 300.011952 345.509098 
L 298.205388 346.354758 
L 297.598368 346.796342 
L 295.90596 347.397745 
L 295.367796 347.82574 
L 295.019892 348.019624 
L 293.256816 348.569566 
L 292.73496 348.969293 
L 292.383432 349.129655 
L 290.72364 349.565803 
L 290.228964 349.888339 
L 289.902804 350.081861 
L 288.00564 350.525076 
L 286.996356 350.970828 
L 285.245964 351.414224 
L 284.796588 351.651778 
L 283.115052 351.867768 
L 282.571452 352.160768 
L 282.245292 352.249919 
L 280.955148 352.348129 
L 280.36806 352.491096 
L 279.782784 352.726112 
L 278.856852 352.783009 
L 278.010648 352.850597 
L 277.276788 353.078909 
L 275.984832 353.07148 
L 275.43036 353.211366 
L 274.999104 353.344729 
L 274.2435 353.321898 
L 272.9751 353.422826 
L 272.616324 353.484978 
L 271.936824 353.433155 
L 270.563328 353.518862 
L 270.324144 353.533177 
L 269.58666 353.442034 
L 268.347252 353.439134 
L 268.05552 353.480992 
L 267.336156 353.353246 
L 265.997088 353.332045 
L 265.766964 353.312294 
L 265.114644 353.169509 
L 262.42926 352.746044 
L 261.874788 352.692047 
L 261.334812 352.700744 
L 260.758596 352.526974 
L 258.230856 351.925027 
L 257.69994 351.793114 
L 257.0295 351.716104 
L 256.462344 351.516965 
L 255.378768 351.242809 
L 255.106968 351.216354 
L 254.525316 350.932957 
L 252.419772 350.211962 
L 251.256468 349.861703 
L 251.05896 349.778532 
L 250.616832 349.506551 
L 248.781276 348.721411 
L 247.431336 348.17618 
L 247.192152 348.07036 
L 246.695664 347.735502 
L 246.126696 347.374552 
L 245.63202 347.235209 
L 245.329416 347.130656 
L 244.851048 346.774055 
L 244.296576 346.399333 
L 243.805524 346.232992 
L 243.499296 346.123909 
L 243.037236 345.747919 
L 242.419344 345.308147 
L 241.9446 345.162824 
L 241.705416 345.052655 
L 241.25604 344.65927 
L 239.764764 343.703621 
L 238.833396 342.983532 
L 237.983568 342.445549 
L 236.887308 341.650625 
L 236.528532 341.476492 
L 236.102712 341.0369 
L 234.754584 339.991376 
L 233.888448 339.1825 
L 232.719708 338.259286 
L 231.90612 337.615482 
L 231.692304 337.450952 
L 231.360708 337.019334 
L 230.076 335.865452 
L 229.688232 335.452498 
L 228.120852 333.88693 
L 227.408736 333.21504 
L 227.189484 333.040001 
L 226.899564 332.579209 
L 225.551436 331.098986 
L 224.545776 330.067052 
L 224.351892 329.866283 
L 224.063784 329.383747 
L 222.94578 328.118971 
L 222.663108 327.696956 
L 221.624832 326.462984 
L 221.35122 326.031728 
L 220.96164 325.457143 
L 220.570248 325.11087 
L 220.37274 324.900134 
L 220.124496 324.39513 
L 219.075348 323.044103 
L 218.818044 322.59817 
L 218.448396 322.004921 
L 218.069688 321.642883 
L 217.886676 321.418558 
L 217.649304 320.897608 
L 216.656328 319.492583 
L 216.406272 319.035959 
L 216.103668 318.503774 
L 215.746704 318.095168 
L 215.52564 317.81304 
L 215.34444 317.347537 
L 214.259052 315.570328 
L 212.162568 311.945603 
L 211.568232 310.827418 
L 211.193148 310.264067 
L 210.990204 309.774827 
L 210.722028 309.21818 
L 210.468348 308.821171 
L 210.205608 308.45714 
L 210.018972 307.893065 
L 209.719992 307.251254 
L 209.460876 306.863849 
L 209.238 306.553816 
L 209.076732 305.992096 
L 208.284888 304.49792 
L 208.116372 303.993822 
L 207.839136 303.338965 
L 207.532908 302.8943 
L 207.3807 302.625943 
L 207.270168 302.133985 
L 206.144916 299.603527 
L 205.87674 299.017345 
L 205.642992 298.623779 
L 205.534272 298.11805 
L 204.813096 296.481995 
L 204.686256 296.043128 
L 204.439824 295.371782 
L 204.216948 294.959009 
L 204.024876 294.620346 
L 203.905284 294.033802 
L 203.635296 293.26805 
L 203.314572 292.78334 
L 203.254776 292.529842 
L 203.14968 292.009798 
L 202.513668 290.417593 
L 202.383204 289.889939 
L 202.192944 289.29216 
L 201.948324 288.794404 
L 201.801552 288.505752 
L 201.716388 287.919932 
L 201.118428 286.304534 
L 201.004272 285.771444 
L 200.824884 285.169316 
L 200.645496 284.728094 
L 200.457048 284.303362 
L 200.384568 283.778606 
L 199.828284 282.059381 
L 199.690572 281.527196 
L 199.5438 280.903868 
L 199.300992 280.426588 
L 199.212204 280.184686 
L 199.156032 279.590712 
L 198.634176 278.013457 
L 198.578004 277.480964 
L 198.086952 275.820465 
L 197.99454 275.276702 
L 197.856828 274.65939 
L 197.69556 274.21275 
L 197.545164 273.839732 
L 197.52342 273.322859 
L 196.86204 270.566716 
L 196.72614 270.01768 
L 196.559436 269.567072 
L 196.539504 269.038385 
L 196.113684 267.345198 
L 196.057512 266.795926 
L 195.939732 266.174211 
L 195.767592 265.643857 
L 195.664308 265.329221 
L 195.649812 264.722672 
L 195.269292 263.100534 
L 195.242112 262.554429 
L 194.874276 261.001936 
L 194.8779 260.470626 
L 194.531808 258.753962 
L 194.493756 258.199545 
L 194.404968 257.571342 
L 194.25276 257.035914 
L 194.17122 256.715335 
L 194.178468 256.101448 
L 194.076996 255.381414 
L 193.921164 254.853596 
L 193.859556 254.53222 
L 193.8813 254.001032 
L 193.587756 252.26905 
L 193.589568 251.80217 
L 193.497156 251.080106 
L 193.361256 250.540039 
L 193.2924 250.215474 
L 193.317768 249.59876 
L 193.239852 248.874449 
L 193.134756 248.413132 
L 193.049592 248.01837 
L 193.085832 247.483757 
L 192.86658 245.655703 
L 192.844836 245.180379 
L 192.795912 244.544621 
L 192.672696 244.003793 
L 192.620148 243.676491 
L 192.674508 243.148293 
L 192.48606 241.311306 
L 192.478812 240.834388 
L 192.438948 240.198013 
L 192.33204 239.649883 
L 192.281304 239.319374 
L 192.35016 238.797156 
L 192.19614 236.951815 
L 192.185268 236.387015 
L 192.174396 235.741037 
L 192.052992 235.215194 
L 192.027624 234.948649 
L 192.103728 234.33565 
L 192.074736 233.50666 
L 191.947896 232.995676 
L 191.946084 232.727862 
L 192.022188 232.195859 
L 191.9334 230.344538 
L 191.929776 229.779194 
L 191.938836 229.223998 
L 191.853672 228.673874 
L 191.828304 228.340285 
L 191.917092 227.81245 
L 191.880852 225.863644 
L 191.853672 225.23198 
L 191.893536 222.679778 
L 191.850048 222.114978 
L 191.82468 221.708003 
L 191.922528 221.169839 
L 191.85186 219.535052 
L 191.96964 219.01682 
L 192.027624 216.195174 
L 192.04212 215.542854 
L 191.998632 215.119933 
L 192.127284 214.509108 
L 192.116412 212.879214 
L 192.243252 212.350654 
L 192.257748 210.635233 
L 192.37734 210.092902 
L 192.42264 208.388353 
L 192.534984 207.932273 
L 192.645516 206.058302 
L 192.716184 205.576492 
L 192.774168 204.930332 
L 192.759672 204.3668 
L 192.763296 204.023789 
L 192.92094 203.412058 
L 192.995232 201.776546 
L 193.14744 201.248892 
L 193.285152 199.45628 
L 193.397496 198.987335 
L 193.567824 197.201609 
L 193.674732 196.72614 
L 193.785264 195.886822 
L 194.165784 192.77 
L 194.296248 192.205925 
L 194.39772 191.558135 
L 194.410404 190.995509 
L 194.444832 190.653584 
L 194.631468 190.139701 
L 194.856156 188.337486 
L 195.00474 187.879775 
L 195.256608 186.085532 
L 195.40338 185.621117 
L 195.551964 184.782161 
L 195.553776 184.239467 
L 195.604512 183.967486 
L 195.81108 183.463568 
L 196.17348 181.499179 
L 196.284012 180.928218 
L 196.421724 180.367948 
L 196.45434 179.81112 
L 196.488768 179.531891 
L 196.733388 178.95495 
L 197.021496 177.230288 
L 197.2335 176.704446 
L 197.5053 175.046647 
L 197.739048 174.557045 
L 198.182988 172.597548 
L 198.324324 172.117912 
L 198.489216 171.472477 
L 198.55626 170.910214 
L 198.626928 170.570101 
L 198.869736 170.072707 
L 199.364412 168.123176 
L 199.522056 167.554752 
L 199.692384 167.000099 
L 199.766676 166.441097 
L 199.853652 166.105333 
L 200.10552 165.606308 
L 200.602008 163.747196 
L 200.788644 163.282781 
L 201.036888 162.452522 
L 201.995436 159.310877 
L 202.194756 158.851354 
L 202.63326 157.22762 
L 202.91412 156.74436 
L 203.64798 154.644614 
L 204.088296 153.243757 
L 204.189768 152.822286 
L 204.485124 152.358595 
L 206.016264 148.268549 
L 206.244576 147.815911 
L 206.788176 146.21972 
L 207.103464 145.755305 
L 207.862692 143.872093 
L 208.094628 143.417462 
L 208.400856 142.703716 
L 208.556688 142.03853 
L 208.741512 141.792823 
L 209.051364 141.284195 
L 209.359404 140.571535 
L 209.522484 140.027935 
L 209.578656 139.795818 
L 209.578656 139.795818 
" style="fill:none;stroke:#0000ff;stroke-linecap:square;stroke-width:1.5;"/>
   </g>
   <g id="line2d_2">
    <path clip-path="url(#pb9b1cc7257)" d="M 311.7066 83.975165 
L 311.702976 83.955595 
L 311.795388 84.037316 
L 312.021888 83.978064 
L 312.190404 83.931496 
L 312.382476 83.819152 
L 312.384288 83.787804 
L 312.453144 83.866082 
L 312.690516 83.837272 
L 312.935136 83.778563 
L 313.946232 83.634509 
L 314.199912 83.55007 
L 314.30682 83.550251 
L 314.540568 83.48973 
L 314.565936 83.437907 
L 314.631168 83.524702 
L 314.881224 83.528326 
L 315.151212 83.48828 
L 316.339884 83.473966 
L 316.948716 83.341146 
L 316.95234 83.33426 
L 317.035692 83.441531 
L 317.298432 83.45494 
L 317.555736 83.444611 
L 318.623004 83.44298 
L 318.653808 83.413988 
L 318.70998 83.508031 
L 318.970908 83.571451 
L 319.545312 83.52597 
L 319.708392 83.661508 
L 319.994688 83.61965 
L 320.145084 83.665675 
L 320.4042 83.646106 
L 320.442252 83.6211 
L 320.474868 83.69358 
L 320.663316 83.80085 
L 322.364784 84.064315 
L 322.627524 84.17376 
L 323.296152 84.231744 
L 323.482788 84.393193 
L 324.196716 84.471653 
L 324.310872 84.546307 
L 324.56274 84.686194 
L 325.311096 84.841844 
L 325.553904 84.997495 
L 326.352996 85.207506 
L 326.561376 85.346668 
L 327.413016 85.614481 
L 327.695688 85.75618 
L 328.13238 85.879577 
L 328.529208 86.097923 
L 328.837248 86.199032 
L 329.107236 86.279485 
L 329.398968 86.359576 
L 329.513124 86.44329 
L 329.730564 86.644784 
L 330.703608 87.086912 
L 331.017084 87.211034 
L 331.299756 87.310151 
L 331.595112 87.413797 
L 331.72014 87.509471 
L 331.932144 87.730172 
L 333.026592 88.323421 
L 333.408924 88.412572 
L 333.620928 88.575289 
L 335.215488 89.589647 
L 335.519904 89.780269 
L 335.916732 89.97361 
L 337.279356 90.857866 
L 337.502232 91.028194 
L 337.71786 91.292564 
L 338.739828 91.977682 
L 338.969952 92.192766 
L 339.877764 92.718971 
L 340.062588 93.035165 
L 340.473912 93.214734 
L 340.66236 93.388867 
L 341.004828 93.584563 
L 341.100864 93.712853 
L 341.271192 94.002954 
L 341.648088 94.187959 
L 341.845596 94.342704 
L 342.142764 94.562318 
L 342.32034 94.725217 
L 342.485232 95.023291 
L 342.865752 95.225873 
L 343.066884 95.386778 
L 343.403916 95.638646 
L 343.545252 95.79176 
L 343.704708 96.096901 
L 344.039928 96.303288 
L 344.293608 96.485213 
L 344.627016 96.754476 
L 344.777412 96.913388 
L 344.976732 97.276151 
L 345.39168 97.502832 
L 345.625428 97.763579 
L 348.646032 100.993831 
L 348.97944 101.258746 
L 349.280232 101.525653 
L 349.651692 101.861779 
L 349.754976 102.050952 
L 349.91262 102.405017 
L 350.296764 102.690226 
L 350.512392 102.908934 
L 350.838552 103.244879 
L 350.994384 103.458514 
L 351.179208 103.875817 
L 351.56154 104.15867 
L 351.768108 104.397673 
L 352.099704 104.739779 
L 352.24104 104.972802 
L 352.389624 105.344262 
L 352.773768 105.662449 
L 352.99302 105.899459 
L 353.353608 106.297012 
L 353.48226 106.549604 
L 353.692452 106.997893 
L 354.719856 108.188558 
L 354.888372 108.587198 
L 355.308756 108.941807 
L 355.540692 109.290617 
L 357.258468 111.933238 
L 357.570132 112.300711 
L 357.89448 112.660574 
L 358.23876 113.123178 
L 358.360164 113.363449 
L 358.55586 113.912304 
L 359.574204 115.367521 
L 359.749968 115.810918 
L 360.746568 117.253088 
L 360.880656 117.696304 
L 361.293792 118.146223 
L 361.489488 118.483074 
L 361.793904 118.932269 
L 361.911684 119.263502 
L 362.085636 119.792788 
L 363.060492 121.336068 
L 363.181896 121.796497 
L 363.542484 122.239894 
L 363.752676 122.576744 
L 364.131384 123.210944 
L 364.202052 123.611034 
L 364.388688 124.096469 
L 365.272944 125.496782 
L 365.58642 126.448082 
L 366.004992 127.107107 
L 367.193664 129.679603 
L 367.438284 130.239149 
L 367.545192 130.805942 
L 367.885848 131.301162 
L 368.083356 131.683313 
L 368.425824 132.393436 
L 368.481996 132.833752 
L 368.63964 133.359232 
L 369.467724 134.9913 
L 369.616308 135.800177 
L 370.438956 137.486062 
L 370.652772 138.468347 
L 371.098524 139.379239 
L 371.39388 140.472962 
L 371.55696 141.026347 
L 372.02808 142.03998 
L 372.292632 143.073726 
L 372.430344 143.636352 
L 373.144272 145.308466 
L 373.490364 146.699719 
L 373.693308 147.210341 
L 374.278584 149.433846 
L 374.4924 149.952622 
L 374.729772 150.724534 
L 374.77326 151.197284 
L 374.8548 151.863376 
L 375.532488 153.862374 
L 375.603156 154.76928 
L 376.237356 156.726602 
L 376.344264 157.818876 
L 376.695792 158.869655 
L 376.867932 160.209085 
L 377.000208 160.817917 
L 377.315496 161.797484 
L 378.01674 165.368212 
L 378.0711 165.87086 
L 378.0711 166.64241 
L 378.573024 169.061249 
L 378.57846 169.763761 
L 379.05864 172.047244 
L 379.036896 172.921352 
L 379.459092 175.306307 
L 379.422852 176.003564 
L 379.6566 176.747934 
L 379.72908 177.366913 
L 379.970076 179.89574 
L 380.05524 180.423395 
L 380.138592 181.22448 
L 380.122284 181.760651 
L 380.07336 182.473854 
L 380.37234 185.02823 
L 380.316168 185.748138 
L 380.568036 188.318822 
L 380.502804 189.044528 
L 380.760108 191.385451 
L 380.669508 192.57811 
L 380.823528 193.67292 
L 380.818092 196.201385 
L 380.890572 196.832686 
L 380.783664 199.356802 
L 380.890572 200.178725 
L 380.769168 202.807393 
L 380.836212 203.53328 
L 380.633268 205.967702 
L 380.722056 206.893091 
L 380.502804 209.432246 
L 380.568036 210.170636 
L 380.28174 212.693122 
L 380.334288 213.614705 
L 380.026248 216.052026 
L 380.058864 216.970348 
L 379.714584 219.404045 
L 379.745388 220.232854 
L 379.341312 222.64227 
L 379.343124 223.654091 
L 378.935424 226.074379 
L 378.946296 226.808964 
L 378.46974 229.386172 
L 378.462492 230.112602 
L 377.946072 232.579278 
L 377.904396 233.478392 
L 377.377104 235.747922 
L 377.317308 236.738543 
L 376.770084 239.095955 
L 376.708476 239.889248 
L 376.108704 242.214588 
L 376.056156 243.013988 
L 375.84234 243.958257 
L 375.619464 244.486166 
L 375.423768 245.090649 
L 375.06318 247.261715 
L 374.660916 248.458196 
L 374.563068 249.322901 
L 374.351064 250.170754 
L 374.119128 250.682354 
L 373.901688 251.269605 
L 373.512108 253.328852 
L 373.050048 254.748391 
L 372.963072 255.332508 
L 372.676776 256.304428 
L 372.359676 256.901464 
L 372.192972 257.504733 
L 372.044388 258.424976 
L 371.803392 259.238227 
L 371.540652 259.730342 
L 371.317776 260.305661 
L 370.951752 261.900939 
L 370.6872 262.530848 
L 370.395468 263.165059 
L 369.973272 264.900357 
L 369.750396 265.366693 
L 369.44598 265.980073 
L 368.867952 268.027633 
L 368.418576 268.945067 
L 368.199324 269.89142 
L 367.38936 271.758523 
L 367.18098 272.599436 
L 366.925488 273.283031 
L 366.604764 273.79445 
L 366.361956 274.333339 
L 366.095592 275.326877 
L 365.263884 277.134347 
L 365.100804 277.797321 
L 364.76196 278.583041 
L 364.414056 279.079003 
L 364.187556 279.609738 
L 363.966492 280.412092 
L 363.68382 281.05807 
L 363.417456 281.462689 
L 363.098544 282.030932 
L 362.690844 283.186082 
L 362.185296 284.068889 
L 361.9443 284.578423 
L 361.710552 285.347436 
L 361.39164 286.025305 
L 361.094472 286.411805 
L 360.82086 286.892891 
L 360.393228 287.995674 
L 359.931168 288.767586 
L 359.655744 289.239974 
L 359.29878 290.177684 
L 358.423584 291.771157 
L 358.280436 292.214554 
L 357.919848 292.839331 
L 357.66798 293.190497 
L 357.316452 293.679374 
L 356.602524 295.231715 
L 356.08248 295.936583 
L 355.785312 296.67298 
L 354.872064 298.051912 
L 354.562212 298.75986 
L 353.652588 300.108169 
L 353.424276 300.686197 
L 353.11986 301.14862 
L 352.833564 301.507214 
L 352.480224 301.953872 
L 352.054404 302.810405 
L 351.177396 304.170673 
L 351.032436 304.474546 
L 350.68272 304.950377 
L 350.40186 305.283785 
L 350.043084 305.704169 
L 349.610016 306.508516 
L 346.585788 310.614145 
L 346.337544 310.997202 
L 346.136412 311.423022 
L 345.792132 311.847755 
L 345.556572 312.088026 
L 345.19236 312.445352 
L 344.514672 313.519506 
L 343.893156 314.222743 
L 343.737324 314.511395 
L 343.412976 314.854769 
L 343.16292 315.125482 
L 342.796896 315.445843 
L 342.0576 316.509487 
L 341.570172 316.924798 
L 341.175156 317.502101 
L 340.296336 318.553604 
L 340.171308 318.71759 
L 339.848772 319.018926 
L 339.560664 319.281304 
L 339.247188 319.536252 
L 338.484336 320.50241 
L 338.078448 320.792149 
L 337.3917 321.677311 
L 336.85716 322.105124 
L 336.632472 322.4427 
L 336.335304 322.73117 
L 336.125112 322.889539 
L 335.771772 323.145575 
L 335.311524 323.692074 
L 334.822284 324.066796 
L 334.577664 324.34838 
L 334.39284 324.620905 
L 334.086612 324.877847 
L 333.898164 325.026431 
L 333.546636 325.24224 
L 332.821836 326.012702 
L 332.47212 326.194265 
L 331.673028 326.971975 
L 331.332372 327.19014 
L 330.969972 327.573016 
L 330.178128 328.260307 
L 330.058536 328.371745 
L 329.7813 328.541348 
L 329.50044 328.715844 
L 329.212332 328.89795 
L 328.860804 329.241143 
L 328.099764 329.828956 
L 327.974736 329.954346 
L 327.702936 330.106554 
L 327.48006 330.245534 
L 327.188328 330.38071 
L 326.559564 330.93645 
L 326.200788 331.057673 
L 325.515852 331.597468 
L 325.191504 331.728113 
L 324.754812 332.073661 
L 324.475764 332.213729 
L 324.203964 332.355246 
L 323.921292 332.581927 
L 323.214612 332.977124 
L 323.071464 333.106139 
L 322.821408 333.226637 
L 322.618464 333.300023 
L 322.344852 333.410917 
L 322.038624 333.625458 
L 321.36456 334.011776 
L 321.261276 334.06523 
L 321.014844 334.161629 
L 320.828208 334.222693 
L 320.561844 334.309126 
L 320.23206 334.506996 
L 318.98178 334.994243 
L 318.78246 335.146451 
L 318.653808 335.201717 
L 318.42912 335.296484 
L 318.285972 335.312792 
L 318.028668 335.372951 
L 317.72244 335.518636 
L 316.720404 335.861466 
L 316.475784 335.878861 
L 315.977484 336.089416 
L 315.709308 336.092315 
L 315.227316 336.272246 
L 315.000816 336.254851 
L 314.439096 336.396006 
L 314.20716 336.440038 
L 314.042268 336.486425 
L 313.505916 336.554375 
L 313.344648 336.581736 
L 312.804672 336.660014 
L 312.791988 336.725971 
L 312.7032 336.652585 
L 312.221208 336.651498 
L 311.945784 336.683208 
L 311.731968 336.659471 
L 311.51634 336.732676 
L 311.51634 336.777976 
L 311.445672 336.697704 
L 310.992672 336.65331 
L 310.642956 336.709844 
L 310.633896 336.687557 
L 310.427328 336.607829 
L 310.041372 336.6004 
L 309.847488 336.542959 
L 309.517704 336.566515 
L 309.512268 336.540966 
L 309.358248 336.444568 
L 308.892564 336.338747 
L 308.69868 336.377524 
L 308.695056 336.39202 
L 308.702304 336.407603 
L 308.56278 336.272609 
L 308.374332 336.18672 
L 307.4937 335.856936 
L 307.288944 335.825226 
L 307.269012 335.862734 
L 307.256328 335.755826 
L 307.23096 335.736076 
L 306.266976 335.162396 
L 306.109332 335.062736 
L 306.040476 335.106043 
L 306.02598 334.968512 
L 305.357352 334.384686 
L 305.071056 334.115242 
L 305.005824 334.145502 
L 305.02938 334.020112 
L 304.71228 333.763714 
L 304.70322 333.772049 
L 304.708656 333.784552 
L 304.619868 333.574722 
L 304.601748 333.575084 
L 304.581816 333.583601 
L 304.61262 333.493907 
L 304.599936 333.464371 
L 304.436856 333.378482 
L 304.425984 333.38573 
L 304.424172 333.398414 
L 304.429608 333.226637 
L 304.219416 332.912798 
L 304.088952 332.767838 
L 304.05996 332.77563 
L 304.103448 332.698258 
L 304.098012 332.667997 
L 303.931308 332.552754 
L 303.92406 332.564351 
L 303.956676 332.400727 
L 303.77004 332.021476 
L 303.626892 331.88014 
L 303.621456 331.885576 
L 303.666756 331.758554 
L 303.105036 330.090427 
L 303.068796 329.905422 
L 303.061548 329.767891 
L 302.952828 329.595026 
L 302.92746 329.594302 
L 303.001752 329.524721 
L 303.007188 329.493011 
L 302.903904 329.317972 
L 302.883972 329.315254 
L 302.960076 329.222479 
L 302.860416 329.037836 
L 302.831424 329.032763 
L 302.905716 328.967712 
L 302.862228 328.778177 
L 302.796996 328.745561 
L 302.874912 328.658404 
L 302.789748 328.462889 
L 302.757132 328.452923 
L 302.831424 328.39204 
L 302.796996 328.197431 
L 302.80968 328.075483 
L 302.757132 327.886129 
L 302.702772 327.854782 
L 302.787936 327.768168 
L 302.713644 327.561781 
L 302.68284 327.549097 
L 302.762568 327.474262 
L 302.726328 327.278384 
L 302.66472 327.238339 
L 302.749884 327.156256 
L 302.708208 326.958385 
L 302.653848 326.923776 
L 302.735388 326.854558 
L 302.711832 326.653244 
L 302.648412 326.603777 
L 302.733576 326.526042 
L 302.702772 326.322554 
L 302.6466 326.279248 
L 302.726328 326.216371 
L 302.715456 326.010709 
L 302.735388 325.877346 
L 302.715456 325.669147 
L 302.65566 325.617505 
L 302.735388 325.559884 
L 302.739012 325.350779 
L 302.75532 325.210892 
L 302.749884 324.998707 
L 302.684652 324.937824 
L 302.762568 324.885095 
L 302.780688 324.673816 
L 302.793372 324.525956 
L 302.798808 324.310872 
L 302.829612 324.164281 
L 302.824176 323.949197 
L 302.849544 323.8229 
L 302.867664 323.605823 
L 302.893032 323.45434 
L 302.903904 323.23545 
L 302.923836 323.101906 
L 302.952828 322.88356 
L 302.976384 322.726278 
L 302.99994 322.50467 
L 303.03618 322.33543 
L 303.043428 322.110198 
L 303.074232 321.979734 
L 303.115908 321.756677 
L 303.1449 321.579282 
L 303.166644 321.351514 
L 303.1902 321.21507 
L 303.24456 320.99165 
L 303.27174 320.804652 
L 303.306168 320.575615 
L 303.347844 320.405106 
L 303.384084 320.173532 
L 303.4167 320.012083 
L 303.462 319.782503 
L 303.500052 319.605289 
L 303.548976 319.372085 
L 303.576156 319.200851 
L 303.635952 318.972358 
L 303.664944 318.786628 
L 303.730176 318.553423 
L 303.775476 318.344862 
L 303.81534 318.105316 
L 303.849768 317.949484 
L 303.929496 317.717548 
L 303.96936 317.498296 
L 304.021908 317.258387 
L 304.047276 317.093314 
L 304.1415 316.864458 
L 304.203108 316.603349 
L 304.233912 316.355286 
L 304.288272 316.194199 
L 304.366188 315.951935 
L 304.425984 315.720724 
L 304.473096 315.471211 
L 304.518396 315.301789 
L 304.61262 315.06188 
L 304.665168 314.819072 
L 304.726776 314.569741 
L 304.763016 314.389991 
L 304.871736 314.154431 
L 304.946028 313.867591 
L 304.987704 313.609744 
L 305.018508 313.458804 
L 305.145348 313.229042 
L 305.23776 312.894004 
L 305.261316 312.632713 
L 305.29212 312.507504 
L 305.429832 312.285896 
L 305.580228 311.536091 
L 305.730624 311.324268 
L 305.9082 310.527713 
L 306.049536 310.296139 
L 306.194496 309.844589 
L 306.47898 308.918657 
L 306.53334 308.644139 
L 306.576828 308.468918 
L 306.725412 308.229372 
L 306.84138 307.847584 
L 306.86856 307.532839 
L 306.91386 307.41977 
L 307.075128 307.191458 
L 307.326996 306.304122 
L 307.453836 306.034859 
L 307.546248 305.722289 
L 307.625976 305.440885 
L 307.687584 305.218009 
L 307.830732 304.956356 
L 307.970256 304.550106 
L 307.999248 304.262179 
L 308.057232 304.109609 
L 308.2185 303.859372 
L 308.439564 302.978921 
L 308.615328 302.742998 
L 308.93424 301.745674 
L 309.044772 301.451948 
L 309.117252 301.186853 
L 309.236844 300.911066 
L 309.33288 300.580558 
L 309.46878 300.291362 
L 309.553944 299.976437 
L 309.664476 299.688872 
L 309.74058 299.391704 
L 309.898224 299.112113 
L 310.055868 298.658388 
L 310.077612 298.315195 
L 310.124724 298.201039 
L 310.316796 297.968378 
L 311.121324 295.598826 
L 311.2536 295.290061 
L 311.360508 294.949586 
L 311.463792 294.640459 
L 311.521776 294.355794 
L 311.7066 294.082726 
L 312.000144 293.02796 
L 312.181344 292.743839 
L 312.483948 291.677114 
L 312.663336 291.382846 
L 312.93876 290.332248 
L 313.134456 290.058455 
L 313.76322 288.160022 
L 313.864692 287.82897 
L 313.928112 287.518393 
L 314.121996 287.226661 
L 314.468088 286.042338 
L 314.63298 285.717265 
L 314.765256 285.26952 
L 314.855856 284.926871 
L 314.93196 284.611764 
L 315.12222 284.305536 
L 315.47556 283.086966 
L 315.636828 282.750659 
L 315.772728 282.287874 
L 315.857892 281.93544 
L 315.903192 281.643346 
L 316.10976 281.357956 
L 317.28756 277.645711 
L 317.3691 277.280557 
L 317.412588 276.974601 
L 317.62278 276.677632 
L 318.287784 274.438924 
L 318.371136 274.066431 
L 318.407376 273.747338 
L 318.621192 273.447325 
L 318.840444 272.269978 
L 318.90024 272.099741 
L 319.114056 271.799619 
L 319.347804 270.651065 
L 319.38948 270.429711 
L 319.603296 270.130351 
L 319.847916 269.020881 
L 319.873284 268.737448 
L 320.108844 268.372475 
L 320.565468 266.728538 
L 320.817336 265.722226 
L 320.891628 265.218 
L 321.078264 264.859224 
L 321.351876 263.462009 
L 321.543948 263.106042 
L 321.95346 261.4711 
L 322.02594 261.019525 
L 322.156404 260.633399 
L 322.203516 260.227631 
L 322.248816 259.887401 
L 322.449948 259.540628 
L 322.609404 258.222122 
L 322.683696 258.069407 
L 322.902948 257.657793 
L 323.455608 255.165206 
L 323.513592 254.68836 
L 323.52084 254.374195 
L 323.749152 253.978998 
L 324.484824 250.369077 
L 324.58086 249.946301 
L 324.67146 249.473297 
L 324.722196 248.985833 
L 324.747564 248.62124 
L 324.95232 248.18395 
L 325.27848 246.416036 
L 325.329216 245.884848 
L 325.553904 244.613277 
L 325.684368 244.190991 
L 325.800336 243.502757 
L 325.796712 243.073295 
L 325.809396 242.755651 
L 325.997844 242.394701 
L 326.155488 241.254409 
L 326.188104 240.69577 
L 326.342124 240.286076 
L 326.581308 238.537859 
L 326.651976 238.099898 
L 326.726268 237.60178 
L 326.758884 237.163457 
L 326.75526 236.719336 
L 326.9274 236.333198 
L 327.014376 235.036894 
L 327.014376 234.710915 
L 327.206448 234.263351 
L 327.382212 232.480886 
L 327.46194 232.036765 
L 327.545292 231.391512 
L 327.518112 230.95029 
L 327.505428 230.619781 
L 327.690252 230.170405 
L 327.692064 228.760126 
L 327.735552 228.53888 
L 327.898632 228.150025 
L 327.945744 226.828534 
L 327.916752 226.492951 
L 328.09614 226.044481 
L 328.117884 224.725708 
L 328.081644 224.438506 
L 328.273716 223.932414 
L 328.447668 221.14882 
L 328.445856 220.630406 
L 328.393308 220.232491 
L 328.554576 219.771337 
L 328.487532 218.346743 
L 328.516524 218.121692 
L 328.66692 217.646224 
L 328.777452 214.710965 
L 328.706784 214.268293 
L 328.672356 213.938509 
L 328.819128 213.468839 
L 328.858992 210.603886 
L 328.822752 210.151792 
L 328.7394 209.753876 
L 328.880736 209.291635 
L 328.795572 207.967244 
L 328.753896 207.641447 
L 328.878924 207.166703 
L 328.743024 205.800636 
L 328.717656 205.576129 
L 328.855368 205.122767 
L 328.750272 203.798557 
L 328.68504 203.471672 
L 328.810068 203.005264 
L 328.650612 201.638834 
L 328.610748 201.414509 
L 328.7394 200.893559 
L 328.589004 198.195491 
L 328.560012 197.685956 
L 328.453104 197.187475 
L 328.536456 196.767272 
L 328.306332 195.377106 
L 328.308144 195.157673 
L 328.402368 194.755046 
L 328.233852 193.4524 
L 328.145064 193.134575 
L 328.244724 192.675052 
L 328.054464 191.386901 
L 327.980172 191.076505 
L 328.067148 190.605929 
L 327.780852 187.91076 
L 327.722868 187.473343 
L 327.586968 186.992801 
L 327.648576 186.578759 
L 327.3804 185.271763 
L 327.340536 185.019714 
L 327.413016 184.622342 
L 327.182892 183.359741 
L 327.077796 183.058405 
L 327.152088 182.604318 
L 326.807808 181.238251 
L 326.811432 181.067198 
L 326.869416 180.602239 
L 326.575872 178.909469 
L 326.526948 178.484736 
L 326.45628 177.940592 
L 326.340312 177.519665 
L 326.208036 177.178103 
L 326.25696 176.719667 
L 325.874628 175.408322 
L 325.889124 175.23582 
L 325.918116 174.768505 
L 325.5684 173.254036 
L 325.55934 172.836913 
L 325.198752 171.401266 
L 325.202376 170.991572 
L 324.841788 169.447024 
L 324.78924 169.035881 
L 324.68958 168.523628 
L 324.569988 168.116291 
L 324.41778 167.748455 
L 324.441336 167.359237 
L 323.625936 163.877479 
L 323.491848 163.456914 
L 323.444736 163.054831 
L 323.292528 162.66815 
L 323.15844 162.368808 
L 323.160252 161.926136 
L 322.738056 160.532527 
L 322.700004 160.138417 
L 322.555044 159.536833 
L 322.38834 159.163561 
L 322.266936 158.87491 
L 322.248816 158.434775 
L 321.822996 157.080124 
L 321.765012 156.693443 
L 321.629112 156.171224 
L 321.478716 155.795597 
L 321.321072 155.515824 
L 321.33738 155.158679 
L 320.927868 154.060426 
L 320.837268 153.86926 
L 320.8572 153.52208 
L 320.489364 152.471664 
L 320.3589 152.204032 
L 320.353464 151.843081 
L 319.875096 150.315565 
L 319.510884 149.286349 
L 319.355052 149.028502 
L 319.358676 148.682228 
L 318.847692 147.581438 
L 318.856752 147.431948 
L 318.831384 147.075166 
L 318.360264 145.79843 
L 318.267852 145.444366 
L 318.142824 145.088308 
L 318.035916 144.733156 
L 317.838408 144.349918 
L 317.782236 143.995309 
L 317.615532 143.484688 
L 317.439768 143.151642 
L 317.309304 142.915176 
L 317.28756 142.573976 
L 316.58088 140.628613 
L 316.44498 140.287957 
L 316.278276 139.974481 
L 316.222104 139.632376 
L 316.040904 139.091312 
L 315.843396 138.79342 
L 315.749172 138.606602 
L 315.725616 138.277362 
L 315.241812 137.120762 
L 315.1494 136.789891 
L 315.017124 136.427854 
L 314.881224 136.099338 
L 314.718144 135.804163 
L 314.654724 135.473654 
L 314.489832 135.01848 
L 314.319504 134.710078 
L 314.192664 134.50351 
L 314.16186 134.182967 
L 313.69074 133.085257 
L 313.587456 132.769607 
L 313.467864 132.477331 
L 313.360956 132.157513 
L 313.177944 131.834796 
L 313.10184 131.516065 
L 312.955068 131.138807 
L 312.810108 130.830223 
L 312.665148 130.600462 
L 312.618036 130.286986 
L 312.402408 129.706783 
L 311.95122 128.673037 
L 311.831628 128.365722 
L 311.675796 128.058769 
L 311.581572 127.755803 
L 311.456544 127.447219 
L 311.331516 127.144978 
L 311.18112 126.889486 
L 311.112264 126.585432 
L 310.96368 126.191322 
L 310.796976 125.912999 
L 310.693692 125.736148 
L 310.650204 125.437711 
L 310.44726 124.900091 
L 310.016004 123.890807 
L 309.86742 123.610309 
L 309.756888 123.405916 
L 309.693468 123.112372 
L 309.548508 122.744717 
L 309.430728 122.506076 
L 309.300264 122.26961 
L 309.225972 121.980415 
L 309.099132 121.666758 
L 308.968668 121.387166 
L 308.845452 121.194551 
L 308.796528 120.908255 
L 308.65338 120.559082 
L 308.510232 120.288913 
L 308.410572 120.096841 
L 308.348964 119.813807 
L 308.220312 119.516639 
L 308.102532 119.24049 
L 307.986564 119.017252 
L 307.908648 118.73911 
L 307.798116 118.446472 
L 307.667652 118.17902 
L 307.564368 117.997096 
L 307.510008 117.720041 
L 307.383168 117.393518 
L 307.243644 117.13712 
L 307.153044 116.992342 
L 307.118616 116.720179 
L 306.971844 116.309399 
L 306.797892 116.09667 
L 306.765276 115.967837 
L 306.71454 115.697124 
L 306.59676 115.386547 
L 306.464484 115.134317 
L 306.390192 114.959459 
L 306.321336 114.693276 
L 306.221676 114.430355 
L 306.111144 114.172507 
L 306.01692 114.00689 
L 305.969808 113.742157 
L 305.861088 113.446439 
L 305.734248 113.199826 
L 305.669016 113.032034 
L 305.605596 112.772012 
L 305.513184 112.5225 
L 305.406276 112.270632 
L 305.324736 112.111538 
L 305.277624 111.852604 
L 305.181588 111.5712 
L 305.058372 111.331291 
L 305.004012 111.168755 
L 304.940592 110.915437 
L 304.862676 110.678065 
L 304.759392 110.433445 
L 304.690536 110.279606 
L 304.641612 110.026832 
L 304.560072 109.757932 
L 304.442292 109.526358 
L 304.389744 109.40441 
L 304.35894 109.153811 
L 304.271964 108.851932 
L 304.139688 108.637753 
L 304.072644 108.600788 
L 304.117944 108.508739 
L 304.067208 108.262126 
L 303.998352 108.046316 
L 303.915 107.806045 
L 303.85158 107.663441 
L 303.81534 107.418096 
L 303.746484 107.171483 
L 303.645012 106.943533 
L 303.612396 106.79658 
L 303.556224 106.557396 
L 303.505488 106.351553 
L 303.420324 106.119617 
L 303.378648 105.980274 
L 303.336972 105.741271 
L 303.282612 105.544488 
L 303.213756 105.310378 
L 303.173892 105.140956 
L 303.110472 104.910832 
L 303.076044 104.750651 
L 303.021684 104.515816 
L 302.974572 104.352917 
L 302.92746 104.121524 
L 302.883972 103.969316 
L 302.847732 103.73575 
L 302.806056 103.540235 
L 302.735388 103.320983 
L 302.71002 103.200666 
L 302.690088 102.969636 
L 302.644788 102.779738 
L 302.586804 102.558131 
L 302.568684 102.413714 
L 302.527008 102.186308 
L 302.499828 102.031745 
L 302.45634 101.808506 
L 302.434596 101.672244 
L 302.405604 101.445925 
L 302.387484 101.259652 
L 302.322252 101.049822 
L 302.264268 101.008327 
L 302.315004 100.943095 
L 302.304132 100.719132 
L 302.2842 100.538294 
L 302.22984 100.325928 
L 302.233464 100.196189 
L 302.200848 99.976393 
L 302.197224 99.829259 
L 302.15736 99.615262 
L 302.088504 99.569599 
L 302.155548 99.493858 
L 302.137428 99.274606 
L 302.13018 99.132545 
L 302.103 98.917823 
L 302.03052 98.86908 
L 302.095752 98.803486 
L 302.092128 98.586227 
L 302.097564 98.413543 
L 302.026896 98.196466 
L 301.992468 98.181245 
L 302.055888 98.125254 
L 302.068572 97.910894 
L 302.070384 97.743284 
L 302.032332 97.539072 
L 301.97616 97.505731 
L 302.055888 97.43162 
L 302.046828 97.219979 
L 301.974348 97.172686 
L 302.064948 97.085166 
L 302.03958 96.879685 
L 301.979784 96.842358 
L 302.0577 96.780025 
L 302.063136 96.569652 
L 302.079444 96.439369 
L 302.064948 96.233164 
L 302.00334 96.192756 
L 302.097564 96.110854 
L 302.081256 95.907185 
L 302.025084 95.872576 
L 302.11206 95.805713 
L 302.11206 95.600232 
L 302.046828 95.555657 
L 302.141052 95.485532 
L 302.141052 95.281864 
L 302.083068 95.241818 
L 302.16642 95.18474 
L 302.180916 94.980166 
L 302.11206 94.931423 
L 302.206284 94.872533 
L 302.22078 94.669589 
L 302.159172 94.62447 
L 302.240712 94.575727 
L 302.267892 94.373689 
L 302.199036 94.319692 
L 302.31138 94.243044 
L 302.287824 94.031946 
L 302.260644 94.019624 
L 302.360304 93.95258 
L 302.345808 93.737315 
L 302.307756 93.720826 
L 302.418288 93.657043 
L 302.41104 93.443408 
L 302.380236 93.427644 
L 302.479896 93.370928 
L 302.494392 93.174508 
L 302.440032 93.135368 
L 302.54694 93.083545 
L 302.556 92.868642 
L 302.525196 92.849254 
L 302.61942 92.802142 
L 302.633916 92.58597 
L 302.590428 92.564588 
L 302.697336 92.522912 
L 302.735388 92.329391 
L 302.688276 92.284272 
L 302.778876 92.246039 
L 302.822364 92.053967 
L 302.76438 92.005405 
L 302.89122 91.949414 
L 302.896656 91.745383 
L 302.874912 91.733243 
L 302.985444 91.678702 
L 303.007188 91.490435 
L 302.961888 91.459812 
L 303.085104 91.41723 
L 303.106848 91.211387 
L 303.083292 91.195441 
L 303.192012 91.15141 
L 303.213756 90.945023 
L 303.18114 90.92799 
L 303.300732 90.898092 
L 303.340596 90.692068 
L 303.31704 90.671592 
L 303.418512 90.637345 
L 303.458376 90.431864 
L 303.418512 90.413563 
L 303.536292 90.392544 
L 303.596088 90.187788 
L 303.57072 90.162058 
L 303.666756 90.137052 
L 303.72474 89.933746 
L 303.683064 89.909827 
L 303.822588 89.878842 
L 303.864264 89.681696 
L 303.846144 89.668106 
L 303.965736 89.629873 
L 304.000164 89.433271 
L 303.96936 89.420587 
L 304.103448 89.403736 
L 304.172304 89.225435 
L 304.145124 89.187564 
L 304.257468 89.160203 
L 304.311828 88.964507 
L 304.281024 88.946387 
L 304.407864 88.942582 
L 304.487592 88.747248 
L 304.46766 88.722786 
L 304.545576 88.719887 
L 304.574568 88.70521 
L 304.645236 88.511688 
L 304.614432 88.48777 
L 304.7304 88.495924 
L 304.833684 88.30512 
L 304.815564 88.273591 
L 304.9116 88.264712 
L 305.004012 88.075721 
L 304.971396 88.045279 
L 305.109108 88.048178 
L 305.196084 87.860274 
L 305.181588 87.840886 
L 305.30118 87.823672 
L 305.37366 87.637579 
L 305.34648 87.620728 
L 305.480568 87.633412 
L 305.587476 87.448769 
L 305.574792 87.423582 
L 305.65452 87.428293 
L 305.683512 87.416334 
L 305.777736 87.234047 
L 305.750556 87.210128 
L 305.87196 87.234953 
L 306.002424 87.057739 
L 305.98974 87.023855 
L 306.087588 87.024761 
L 306.203556 86.848816 
L 306.178188 86.817287 
L 306.319524 86.839756 
L 306.435492 86.662723 
L 306.428244 86.641342 
L 306.517032 86.648952 
L 306.649308 86.482429 
L 306.627564 86.442928 
L 306.719976 86.484604 
L 306.754404 86.477718 
L 306.89574 86.305759 
L 306.888492 86.276586 
L 306.997212 86.281478 
L 307.118616 86.112781 
L 307.096872 86.085782 
L 307.214652 86.129995 
L 307.377732 85.96909 
L 307.372296 85.930494 
L 307.468332 85.94191 
L 307.613292 85.783541 
L 307.59336 85.747301 
L 307.69302 85.798762 
L 307.870596 85.678807 
L 307.995624 85.613032 
L 308.1279 85.453032 
L 308.10978 85.428389 
L 308.232996 85.481843 
L 308.412384 85.33199 
L 308.412384 85.294663 
L 308.513856 85.311877 
L 308.669688 85.163112 
L 308.65338 85.128684 
L 308.756664 85.189567 
L 308.948736 85.081028 
L 309.086448 85.02395 
L 309.231408 84.874098 
L 309.216912 84.85018 
L 309.34194 84.914868 
L 309.537636 84.778243 
L 309.548508 84.740191 
L 309.64998 84.762841 
L 309.818496 84.626398 
L 309.807624 84.591788 
L 309.909096 84.662819 
L 310.131972 84.545401 
L 310.233444 84.520577 
L 310.423704 84.402072 
L 310.42008 84.355685 
L 310.503432 84.427078 
L 310.722684 84.360034 
L 310.90932 84.296432 
L 311.719284 83.963568 
L 311.713848 83.951065 
L 311.826192 84.038041 
L 312.067188 83.938744 
L 312.155976 83.921348 
L 312.155976 83.921348 
" style="fill:none;stroke:#ff0000;stroke-linecap:square;stroke-width:1.5;"/>
   </g>
   <g id="line2d_3">
    <path clip-path="url(#pb9b1cc7257)" d="M 364.874304 146.70135 
L 364.192992 144.113633 
L 363.114852 140.598715 
L 362.589372 138.070069 
L 361.759476 135.307313 
L 360.425844 131.434163 
L 359.844192 129.218812 
L 358.798668 126.313632 
L 357.63174 123.511918 
L 356.774664 120.690996 
L 355.725516 118.126654 
L 354.381012 115.226366 
L 353.59098 112.956293 
L 352.375128 110.270003 
L 350.930964 107.50181 
L 349.86732 104.898148 
L 348.767436 102.759082 
L 347.23992 100.12842 
L 346.304928 98.051324 
L 345.063708 95.804444 
L 343.249896 92.92427 
L 342.336648 91.138726 
L 340.887048 88.82009 
L 339.341412 86.653663 
L 338.06214 84.413306 
L 336.8028 82.582824 
L 335.088648 80.375446 
L 333.981516 78.60186 
L 332.419572 76.53618 
L 330.998964 74.948868 
L 329.277564 72.4773 
L 328.047216 71.024076 
L 326.496144 69.402336 
L 324.95232 67.380144 
L 323.562516 65.870748 
L 321.99876 64.366788 
L 320.536476 62.618208 
L 319.143048 61.201224 
L 317.42346 59.682768 
L 316.051776 58.186056 
L 314.489832 56.747328 
L 312.898896 55.47168 
L 311.510904 54.083688 
L 309.934464 52.750056 
L 308.330844 51.586752 
L 306.792456 50.191512 
L 305.177964 48.982908 
L 303.963924 48.225492 
L 301.628256 46.313832 
L 300.548304 45.64158 
L 299.350572 44.956644 
L 296.987724 43.20444 
L 295.898712 42.613728 
L 294.726348 41.992212 
L 293.166216 40.924944 
L 291.71118 40.075116 
L 290.103936 39.323136 
L 288.391596 38.281236 
L 287.202924 37.676028 
L 285.485148 36.936732 
L 284.0283 36.152136 
L 282.701916 35.543304 
L 281.24688 35.035944 
L 279.809964 34.329264 
L 278.213592 33.678756 
L 276.787548 33.23844 
L 275.218356 32.564376 
L 273.89922 32.102316 
L 272.478612 31.74354 
L 271.04532 31.203564 
L 269.456196 30.736068 
L 268.196856 30.471516 
L 266.37942 29.882616 
L 265.342956 29.639808 
L 263.953152 29.418744 
L 262.663008 29.069028 
L 260.96154 28.73562 
L 259.979436 28.641396 
L 257.801412 28.141284 
L 256.770384 28.057932 
L 255.81546 27.989076 
L 254.304252 27.722712 
L 252.89814 27.56688 
L 251.69316 27.53064 
L 249.928272 27.298704 
L 248.9208 27.262464 
L 247.73394 27.27696 
L 245.708124 27.10482 
L 244.854672 27.15918 
L 243.9378 27.206292 
L 241.805076 27.112068 
L 240.969744 27.21354 
L 240.185148 27.289644 
L 238.360464 27.280584 
L 237.389232 27.369372 
L 236.369076 27.517956 
L 234.41574 27.592248 
L 233.593092 27.73902 
L 232.71246 27.894852 
L 230.64678 28.061556 
L 229.746216 28.298928 
L 229.108392 28.40946 
L 227.200356 28.63596 
L 226.4067 28.84434 
L 225.551436 29.054532 
L 223.52562 29.384316 
L 216.464256 31.274232 
L 215.067204 31.765284 
L 212.967096 32.446596 
L 212.160756 32.774568 
L 210.495528 33.289176 
L 209.65476 33.676944 
L 208.962576 33.965052 
L 207.192252 34.581132 
L 206.307996 35.063124 
L 205.374816 35.414652 
L 197.951052 38.917248 
L 195.972348 40.055184 
L 194.66952 40.781796 
L 194.029884 41.162316 
L 192.380964 42.039324 
L 186.557196 45.78654 
L 185.861388 46.308396 
L 184.181664 47.39016 
L 182.18484 48.888684 
L 181.44192 49.405104 
L 180.675444 50.048364 
L 179.051892 51.217104 
L 177.395724 52.614156 
L 175.2177 54.397164 
L 174.299016 55.105656 
L 169.051464 59.936448 
L 163.840152 65.042664 
L 163.178772 65.660556 
L 162.67866 66.258516 
L 162.154992 66.80574 
L 160.835856 68.162928 
L 159.93348 69.199392 
L 152.76702 77.699484 
L 152.292276 78.29382 
L 151.09998 79.763533 
L 150.213912 80.971956 
L 148.032264 83.940556 
L 147.419808 84.753238 
L 146.916072 85.47695 
L 145.798068 87.008453 
L 145.100448 88.052527 
L 140.737152 94.7196 
L 140.313144 95.35525 
L 139.245876 97.082629 
L 138.856296 97.737486 
L 137.914056 99.219702 
L 136.584048 101.501916 
L 136.18722 102.295934 
L 135.351888 103.73575 
L 134.844528 104.614751 
L 134.478504 105.283198 
L 133.599684 106.805821 
L 132.42732 109.026971 
L 132.086664 109.72894 
L 131.727888 110.400286 
L 130.800144 112.197246 
L 130.466736 112.883269 
L 129.707508 114.312031 
L 127.636392 118.732043 
L 126.743076 120.611087 
L 126.041832 122.073371 
L 122.589972 130.202184 
L 122.260188 131.015228 
L 121.557132 132.77015 
L 121.241844 133.589174 
L 120.589524 135.223417 
L 120.203568 136.2809 
L 118.5927 140.763245 
L 118.313652 141.470831 
L 117.230076 144.73533 
L 114.791124 152.28376 
L 114.512076 153.118367 
L 114.031896 154.803527 
L 113.734728 155.75537 
L 113.278104 157.442161 
L 113.031672 158.277312 
L 112.859532 159.01697 
L 112.636656 159.737965 
L 112.165536 161.549422 
L 112.00608 162.164052 
L 111.819444 162.947017 
L 111.361008 164.707738 
L 110.944248 166.232536 
L 110.512992 168.245668 
L 107.767812 181.134242 
L 107.592048 181.876075 
L 107.28582 183.801506 
L 107.108244 184.555298 
L 106.41606 188.928379 
L 106.269288 189.667675 
L 106.031916 191.26151 
L 105.778236 193.273918 
L 105.477444 195.037356 
L 104.79432 200.661623 
L 104.701908 201.393671 
L 104.500776 203.101662 
L 104.402928 204.071988 
L 104.122068 207.20711 
L 103.995228 208.091185 
L 103.614708 212.958036 
L 103.576656 213.702587 
L 103.505988 214.434816 
L 103.40814 216.372025 
L 103.328412 217.110959 
L 102.871788 229.151155 
L 102.859104 229.766692 
L 102.868164 230.549838 
L 102.8283 232.31527 
L 102.84642 233.197714 
L 102.860916 238.288709 
L 103.165332 249.561143 
L 103.205196 250.394898 
L 103.337472 252.301231 
L 103.350156 253.028985 
L 103.886508 259.942707 
L 104.020596 261.399131 
L 104.080392 262.340767 
L 104.138376 263.053132 
L 104.319576 264.836629 
L 104.388432 265.546643 
L 104.551512 267.208917 
L 104.672916 268.262396 
L 106.238484 279.903826 
L 106.347204 280.601627 
L 106.590012 282.237682 
L 106.916172 283.889682 
L 107.755128 288.679523 
L 107.834856 289.282919 
L 107.994312 289.980358 
L 108.103032 290.679065 
L 108.749916 293.71797 
L 109.077888 295.393345 
L 109.253652 296.131916 
L 109.60518 297.795514 
L 109.773696 298.53644 
L 109.878792 299.129327 
L 110.056368 299.81988 
L 110.192268 300.505541 
L 110.90982 303.411445 
L 111.029412 303.994547 
L 111.212424 304.684375 
L 111.366444 305.361338 
L 111.87924 307.242919 
L 112.283316 308.933696 
L 112.493508 309.60468 
L 112.678332 310.3929 
L 113.993844 315.052096 
L 114.858168 317.883889 
L 115.037556 318.555235 
L 115.269492 319.217521 
L 115.483308 319.98744 
L 117.35148 325.72242 
L 117.646836 326.455918 
L 118.197684 328.199786 
L 118.80108 329.771153 
L 118.980468 330.318014 
L 119.221464 330.978851 
L 119.451588 331.61142 
L 120.083976 333.308358 
L 120.324972 333.935491 
L 120.915684 335.52389 
L 121.285332 336.449098 
L 123.5304 341.923693 
L 123.8022 342.564054 
L 124.099368 343.273271 
L 125.217372 345.806628 
L 125.525412 346.509322 
L 125.817144 347.135911 
L 126.087132 347.736952 
L 126.886224 349.43697 
L 127.152588 350.039822 
L 127.973424 351.716828 
L 128.288712 352.419522 
L 129.761868 355.346264 
L 130.10796 356.056206 
L 130.40694 356.632784 
L 131.20422 358.193098 
L 131.564808 358.852122 
L 132.383832 360.395402 
L 132.746232 361.048991 
L 133.585188 362.574695 
L 133.951212 363.222304 
L 135.342828 365.6377 
L 135.708852 366.280778 
L 136.116552 366.938534 
L 136.433652 367.49663 
L 137.877816 369.85513 
L 138.256524 370.482082 
L 138.6153 371.052137 
L 139.05924 371.757911 
L 145.540764 381.206404 
L 145.964772 381.785519 
L 148.555932 385.138625 
L 149.413008 386.174364 
L 150.0309 386.993569 
L 150.476652 387.545867 
L 153.85422 391.465404 
L 154.240176 391.921122 
L 154.658748 392.417248 
L 155.273016 393.065219 
L 162.314448 400.114624 
L 162.72396 400.529209 
L 163.182396 400.972424 
L 163.845588 401.541211 
L 169.634928 406.32924 
L 170.073432 406.692908 
L 170.553612 407.098072 
L 171.417936 407.697119 
L 172.08294 408.21517 
L 172.593924 408.577207 
L 173.302416 409.059199 
L 174.132312 409.679809 
L 174.730272 410.031337 
L 175.855524 410.7536 
L 176.49516 411.240847 
L 177.761748 411.946984 
L 179.524824 413.04868 
L 180.075672 413.380819 
L 180.593904 413.725099 
L 182.036256 414.436672 
L 182.867964 414.948562 
L 183.632628 415.324008 
L 184.524132 415.816328 
L 185.16558 416.09447 
L 186.383244 416.630822 
L 187.242132 417.096869 
L 188.285844 417.505656 
L 188.782332 417.744659 
L 189.427404 418.060309 
L 190.799088 418.525993 
L 192.732492 419.30316 
L 193.413804 419.557565 
L 193.986396 419.806171 
L 195.62988 420.26352 
L 196.4634 420.600371 
L 197.891256 420.927618 
L 200.178 421.548953 
L 200.716164 421.729066 
L 201.323184 421.911896 
L 203.0319 422.199642 
L 203.908908 422.454953 
L 205.552392 422.663695 
L 206.530872 422.907047 
L 208.112748 423.041497 
L 209.38296 423.262742 
L 210.955776 423.38614 
L 211.79292 423.531824 
L 213.599484 423.561904 
L 214.534476 423.699253 
L 216.457008 423.674429 
L 217.317708 423.764848 
L 219.363456 423.674248 
L 220.142616 423.72444 
L 222.324264 423.555199 
L 223.121544 423.559186 
L 225.2289 423.3017 
L 226.03524 423.293909 
L 228.392652 422.941112 
L 229.104768 422.888202 
L 231.500232 422.437739 
L 232.337376 422.322858 
L 234.435672 421.802633 
L 235.390596 421.686484 
L 237.978132 421.006984 
L 238.722864 420.842635 
L 241.11108 420.088843 
L 241.9899 419.892241 
L 244.533948 418.993489 
L 245.425452 418.744883 
L 248.009364 417.731431 
L 248.913552 417.435713 
L 251.53914 416.297777 
L 252.456012 415.958933 
L 254.991 414.721699 
L 255.92418 414.376332 
L 259.298124 412.687729 
L 260.633568 411.930313 
L 265.17444 409.317772 
L 266.038764 408.781601 
L 267.2673 408.177118 
L 276.896268 401.603363 
L 277.909176 400.8117 
L 279.188448 400.019312 
L 285.476088 394.823221 
L 286.173708 394.248817 
L 287.617872 393.198401 
L 291.162144 390.026676 
L 292.147872 389.145138 
L 295.143108 386.241952 
L 296.17776 385.343381 
L 298.2978 383.020034 
L 299.011728 382.306288 
L 300.486696 381.012338 
L 302.5107 378.68573 
L 303.327912 377.769764 
L 305.078304 376.095658 
L 308.827332 371.836008 
L 310.173648 370.224415 
L 311.391312 368.579844 
L 312.219396 367.55842 
L 313.8357 365.82651 
L 315.816216 363.070639 
L 316.637052 361.986882 
L 318.378384 359.976106 
L 320.315412 357.076362 
L 321.013032 356.101506 
L 322.739868 353.990707 
L 324.448584 351.318551 
L 325.33284 349.901748 
L 327.295236 347.29881 
L 328.835436 344.69406 
L 329.705196 343.214924 
L 331.513572 340.681205 
L 333.131688 337.746671 
L 333.979704 336.199948 
L 335.86962 333.326659 
L 337.411632 330.264379 
L 338.132808 328.86171 
L 340.086144 325.640699 
L 341.365416 322.903492 
L 342.25692 321.007777 
L 343.807992 318.336164 
L 345.080016 315.502559 
L 346.20708 312.832396 
L 347.69292 310.041734 
L 349.05192 306.612706 
L 349.729608 304.785485 
L 351.657576 300.699787 
L 352.54908 298.164618 
L 353.353608 295.805756 
L 354.88656 292.327079 
L 355.884972 289.202466 
L 356.613396 286.775292 
L 358.043064 283.19931 
L 358.887456 280.262783 
L 359.681112 277.262038 
L 360.831732 274.115156 
L 361.60908 271.117275 
L 362.522328 267.270779 
L 363.32142 264.843116 
L 364.078836 261.510984 
L 364.917792 257.328281 
L 365.62266 254.844935 
L 366.249612 251.460807 
L 366.798648 247.751426 
L 367.599552 244.417871 
L 368.045304 241.28014 
L 368.45844 237.544702 
L 369.085392 234.457778 
L 369.407928 231.58757 
L 369.822876 226.723619 
L 370.219704 224.148586 
L 370.435332 220.977404 
L 370.603848 216.672274 
L 370.919136 214.107931 
L 371.03148 210.938018 
L 371.051412 206.086207 
L 371.228988 203.797289 
L 371.210868 200.641328 
L 371.03148 195.825032 
L 371.11302 193.54916 
L 370.96806 190.419474 
L 370.591164 185.658988 
L 370.574856 183.40486 
L 370.341108 180.59626 
L 369.728652 175.357043 
L 369.594564 173.126833 
L 369.114384 169.814135 
L 368.50374 166.546012 
L 368.219256 163.314672 
L 367.672032 160.337918 
L 366.843948 156.636727 
L 366.54678 154.25286 
L 365.928888 151.343332 
L 364.751088 146.720376 
L 364.2999 144.37891 
L 363.513492 141.55672 
L 362.518704 138.556229 
L 361.79028 135.317822 
L 360.889716 132.586957 
L 359.858688 129.928028 
L 358.862088 126.324504 
L 357.93072 123.933751 
L 356.896068 121.6066 
L 355.779876 118.140244 
L 354.776028 115.839366 
L 353.652588 113.61115 
L 352.130508 109.622756 
L 351.224508 107.871096 
L 350.151804 105.958349 
L 348.501072 102.143364 
L 347.542524 100.473062 
L 346.41546 98.661062 
L 344.868012 95.425012 
L 343.775376 93.624246 
L 342.47436 91.728894 
L 340.713096 88.457328 
L 339.673008 86.947388 
L 338.348436 85.167461 
L 336.844476 82.606199 
L 335.54346 80.812319 
L 334.063056 78.980568 
L 332.722176 76.896768 
L 331.26714 75.035844 
L 329.743248 73.325316 
L 328.230228 71.207088 
L 326.86398 69.619776 
L 325.312908 68.027028 
L 323.881428 66.18966 
L 322.353912 64.55886 
L 320.9025 63.223416 
L 319.19016 61.230216 
L 317.910888 59.981748 
L 316.198548 58.494096 
L 314.817804 57.03 
L 313.241364 55.623888 
L 311.775456 54.495012 
L 310.128348 52.895016 
L 308.832768 51.818688 
L 307.086 50.575656 
L 305.534928 49.213032 
L 304.065396 48.131268 
L 302.595864 47.198088 
L 300.910704 45.844524 
L 299.587944 44.94396 
L 297.977076 44.01984 
L 296.407884 42.876468 
L 294.931104 41.977716 
L 293.470632 41.231172 
L 292.031904 40.274436 
L 290.428284 39.377496 
L 288.966 38.717928 
L 287.260908 37.70502 
L 285.92184 37.054512 
L 284.475864 36.478296 
L 282.899424 35.63934 
L 281.5821 35.045004 
L 279.877008 34.430736 
L 278.01246 33.5646 
L 276.94338 33.209448 
L 275.787324 32.886912 
L 274.230816 32.230968 
L 272.634444 31.700052 
L 271.364232 31.392012 
L 269.675448 30.779556 
L 268.503084 30.444336 
L 267.093348 30.177972 
L 265.670928 29.737656 
L 264.0963 29.371632 
L 262.856892 29.17956 
L 261.316692 28.782732 
L 260.021112 28.539924 
L 258.781704 28.422144 
L 256.72146 27.981828 
L 255.692244 27.912972 
L 254.742756 27.853176 
L 253.358388 27.626676 
L 251.82906 27.469032 
L 250.75092 27.465408 
L 248.870064 27.233472 
L 247.864404 27.21354 
L 246.802572 27.253404 
L 245.443572 27.155556 
L 243.943236 27.137436 
L 242.899524 27.209916 
L 241.55502 27.175488 
L 240.201456 27.202668 
L 239.0454 27.327696 
L 237.71358 27.353064 
L 236.49954 27.423732 
L 235.35798 27.601308 
L 233.671008 27.686472 
L 232.714272 27.82962 
L 231.828204 28.014444 
L 230.532624 28.139472 
L 228.986988 28.389528 
L 228.124476 28.567104 
L 225.937392 28.875144 
L 223.875336 29.373444 
L 218.278068 30.841164 
L 216.641832 31.261548 
L 215.404236 31.633008 
L 214.476492 31.977288 
L 212.651808 32.499144 
L 208.754196 34.041156 
L 208.0602 34.312956 
L 206.038008 35.083056 
L 204.814908 35.66652 
L 202.821708 36.541716 
L 202.055232 36.960288 
L 201.114804 37.386108 
L 198.291708 38.81034 
L 191.224908 42.789492 
L 190.505544 43.269672 
L 188.88924 44.206476 
L 183.032856 48.307032 
L 182.413152 48.732852 
L 180.767856 49.916088 
L 179.907156 50.620956 
L 178.386888 51.742584 
L 176.654616 53.20668 
L 175.681572 54.000336 
L 175.114416 54.498636 
L 173.653944 55.658316 
L 165.373104 63.486156 
L 162.872544 66.028392 
L 162.240156 66.682524 
L 161.658504 67.343904 
L 160.346616 68.69022 
L 158.866212 70.426116 
L 158.172216 71.161788 
L 157.534392 71.9337 
L 156.27324 73.348872 
L 155.336436 74.513988 
L 153.651276 76.585104 
L 152.516964 77.936856 
L 151.080048 79.848878 
L 150.516516 80.559364 
L 150.000096 81.274198 
L 148.836792 82.765474 
L 147.671676 84.456432 
L 146.825472 85.651084 
L 145.778136 87.088181 
L 145.25628 87.829832 
L 144.763416 88.560431 
L 143.61642 90.23345 
L 143.139864 90.978726 
L 142.072596 92.544294 
L 141.413028 93.611743 
L 138.863544 97.701971 
L 138.412356 98.458662 
L 137.41938 100.080946 
L 136.928328 100.961215 
L 135.96072 102.596545 
L 135.413496 103.583542 
L 133.01622 108.016237 
L 132.28236 109.388102 
L 131.706144 110.482007 
L 131.334684 111.14991 
L 130.430496 112.959011 
L 130.078968 113.634524 
L 129.225516 115.328563 
L 128.855868 116.134178 
L 128.064024 117.701558 
L 127.13628 119.768507 
L 126.753948 120.578652 
L 126.444096 121.272648 
L 126.128808 122.019736 
L 124.7535 125.04342 
L 124.45452 125.761516 
L 124.15554 126.458411 
L 123.447048 128.066198 
L 122.667888 130.057949 
L 122.285556 130.989136 
L 121.992012 131.687843 
L 121.29258 133.44349 
L 120.979104 134.264144 
L 120.299604 136.023778 
L 119.998812 136.849144 
L 119.368236 138.487916 
L 118.998588 139.551379 
L 117.938568 142.604962 
L 117.715692 143.20564 
L 117.472884 143.937506 
L 117.226452 144.651434 
L 116.624868 146.430818 
L 116.360316 147.26615 
L 115.805844 148.926124 
L 115.34016 150.55783 
L 114.754884 152.407519 
L 114.5157 153.284165 
L 113.359644 157.276907 
L 111.986148 162.243236 
L 111.785016 162.966224 
L 111.342888 164.653921 
L 111.110952 165.618086 
L 110.668824 167.548954 
L 110.46588 168.274841 
L 109.480152 172.640674 
L 109.320696 173.370728 
L 108.958296 174.932129 
L 108.501672 177.229382 
L 108.376644 177.974296 
L 108.20994 178.703263 
L 107.86566 180.64156 
L 107.695332 181.374695 
L 106.939728 185.642317 
L 106.794768 186.491058 
L 106.503036 188.320634 
L 106.381632 189.052501 
L 106.104396 190.756325 
L 105.903264 192.402164 
L 104.174616 206.712978 
L 104.01516 208.3108 
L 103.93362 209.168419 
L 103.855704 209.899742 
L 103.710744 211.610452 
L 103.65276 212.461367 
L 103.51686 214.168996 
L 103.473372 215.022085 
L 103.348344 216.597982 
L 103.246872 218.778361 
L 103.216068 219.522912 
L 103.152648 220.370203 
L 102.880848 228.38033 
L 102.86454 229.108392 
L 102.8736 229.957676 
L 102.86454 231.343856 
L 102.808368 233.475674 
L 102.79206 234.442558 
L 102.815616 236.131885 
L 102.81018 236.859947 
L 102.835548 237.596344 
L 102.8283 238.209887 
L 102.826488 239.775092 
L 102.906216 241.82229 
L 102.9189 242.671756 
L 102.924336 243.395197 
L 102.993192 245.203591 
L 103.0095 245.925238 
L 103.087416 247.731294 
L 103.114596 248.566373 
L 103.268616 251.433845 
L 103.303044 252.272601 
L 103.395456 253.08985 
L 104.517084 266.684325 
L 104.584128 267.518878 
L 104.814252 269.276246 
L 104.872236 269.9986 
L 105.064308 271.539471 
L 105.359664 273.783651 
L 105.571668 275.434383 
L 105.85434 277.092816 
L 106.09896 279.050555 
L 106.446864 281.167877 
L 106.620816 282.108848 
L 106.901676 284.059648 
L 107.284008 286.162655 
L 107.459772 287.002517 
L 108.827832 294.190177 
L 108.951048 294.888341 
L 109.125 295.57835 
L 109.230096 296.161633 
L 109.561692 297.76634 
L 109.77732 298.666723 
L 110.132472 300.267444 
L 110.369844 301.273104 
L 111.810384 307.119884 
L 112.047756 307.89089 
L 112.411968 309.258044 
L 112.629408 310.15426 
L 112.825104 310.929433 
L 114.04458 315.118777 
L 114.450468 316.46455 
L 114.72408 317.445023 
L 114.90528 318.108577 
L 115.505052 319.940328 
L 115.930872 321.273054 
L 116.18274 322.150787 
L 116.392932 322.798214 
L 116.920224 324.432276 
L 117.208332 325.281742 
L 118.64706 329.346239 
L 118.889868 330.099306 
L 120.071292 333.262333 
L 120.3141 333.920633 
L 120.55872 334.546316 
L 121.151244 336.131816 
L 121.488276 336.952471 
L 122.584536 339.632238 
L 122.827344 340.256834 
L 123.153504 340.983809 
L 123.432552 341.713682 
L 124.398348 343.966904 
L 129.79992 355.425086 
L 130.086216 356.011087 
L 130.396068 356.623 
L 130.702296 357.196135 
L 131.0955 357.881434 
L 133.317012 362.039068 
L 133.606932 362.626337 
L 133.951212 363.205452 
L 134.262876 363.767897 
L 135.18156 365.353578 
L 135.545772 366.002999 
L 140.32764 373.703274 
L 140.722656 374.316274 
L 143.159796 377.859096 
L 143.911776 378.895198 
L 144.96636 380.429056 
L 147.046536 383.262842 
L 147.959784 384.396792 
L 148.503384 385.130108 
L 148.990812 385.677514 
L 149.88594 386.790444 
L 150.331692 387.394565 
L 150.857172 388.004303 
L 152.636556 390.087197 
L 153.082308 390.621193 
L 153.504504 391.11605 
L 154.040856 391.703863 
L 158.521932 396.476671 
L 159.076404 397.034767 
L 161.538912 399.463753 
L 162.084324 399.914579 
L 163.102668 400.83743 
L 163.600968 401.362186 
L 164.764272 402.293372 
L 166.4295 403.739167 
L 166.851696 404.140706 
L 167.331876 404.550581 
L 168.015 405.081316 
L 170.53368 407.026679 
L 171.08634 407.493088 
L 172.240584 408.251047 
L 174.675912 410.0529 
L 174.851676 410.17974 
L 174.851676 410.17974 
" style="fill:none;stroke:#008000;stroke-linecap:square;stroke-width:1.5;"/>
   </g>
  </g>
 </g>
 <defs>
  <clipPath id="pb9b1cc7257">
   <rect height="434.88" width="471.12" x="7.2" y="7.2"/>
  </clipPath>
 </defs>
</svg>
