<?xml version="1.0" encoding="utf-8" standalone="no"?>
<!DOCTYPE svg PUBLIC "-//W3C//DTD SVG 1.1//EN"
  "http://www.w3.org/Graphics/SVG/1.1/DTD/svg11.dtd">
<svg xmlns:xlink="http://www.w3.org/1999/xlink" width="528.349091pt" height="449.28pt" viewBox="0 0 528.349091 449.28" xmlns="http://www.w3.org/2000/svg" version="1.1">
 <metadata>
  <rdf:RDF xmlns:dc="http://purl.org/dc/elements/1.1/" xmlns:cc="http://creativecommons.org/ns#" xmlns:rdf="http://www.w3.org/1999/02/22-rdf-syntax-ns#">
   <cc:Work>
    <dc:type rdf:resource="http://purl.org/dc/dcmitype/StillImage"/>
    <dc:date>2021-11-29T01:33:32.486558</dc:date>
    <dc:format>image/svg+xml</dc:format>
    <dc:creator>
     <cc:Agent>
      <dc:title>Matplotlib v3.5.0, https://matplotlib.org/</dc:title>
     </cc:Agent>
    </dc:creator>
   </cc:Work>
  </rdf:RDF>
 </metadata>
 <defs>
  <style type="text/css">*{stroke-linejoin: round; stroke-linecap: butt}</style>
 </defs>
 <g id="figure_1">
  <g id="patch_1">
   <path d="M 0 449.28 
L 528.349091 449.28 
L 528.349091 0 
L 0 0 
L 0 449.28 
z
" style="fill: none"/>
  </g>
  <g id="axes_1">
   <g id="PathCollection_1">
    <path d="M 270.611205 442.08 
L 279.907681 439.712506 
L 290.396438 435.714786 
L 295.311972 433.204898 
L 300.885195 430.473106 
L 310.837277 424.329796 
L 311.373952 424.008965 
L 321.862709 416.376384 
L 322.937252 415.454694 
L 332.351466 407.539528 
L 333.339692 406.579592 
L 342.587123 397.70449 
L 342.840223 397.463452 
L 350.79443 388.829388 
L 353.32898 386.078736 
L 358.353367 379.954286 
L 363.817737 373.244336 
L 365.407758 371.079184 
L 371.841911 362.204082 
L 374.306494 358.743505 
L 377.819007 353.32898 
L 383.433337 344.453878 
L 384.79525 342.241269 
L 388.566859 335.578776 
L 393.411825 326.703673 
L 395.284007 323.138822 
L 397.872804 317.828571 
L 402.005131 308.953469 
L 405.772764 300.421706 
L 405.914782 300.078367 
L 409.391777 291.203265 
L 412.647338 282.328163 
L 415.676292 273.453061 
L 416.261521 271.600401 
L 418.357794 264.577959 
L 420.781093 255.702857 
L 422.972788 246.827755 
L 424.929257 237.952653 
L 426.646807 229.077551 
L 426.750278 228.454238 
L 428.057997 220.202449 
L 429.227937 211.327347 
L 430.157985 202.452245 
L 430.844527 193.577143 
L 431.283713 184.702041 
L 431.471468 175.826939 
L 431.403497 166.951837 
L 431.075308 158.076735 
L 430.482246 149.201633 
L 429.619529 140.326531 
L 428.4823 131.451429 
L 427.065689 122.576327 
L 426.750278 120.913961 
L 425.293128 113.701224 
L 423.200538 104.826122 
L 420.799883 95.95102 
L 418.087218 87.075918 
L 416.261521 81.691948 
L 414.984213 78.200816 
L 411.430342 69.325714 
L 407.538227 60.450612 
L 405.772764 56.709232 
L 403.125415 51.57551 
L 398.221819 42.700408 
L 395.284007 37.703323 
L 392.759447 33.825306 
L 386.662774 24.950204 
L 384.79525 22.351676 
L 379.727807 16.075102 
L 374.306494 9.636837 
L 371.963198 7.2 
" clip-path="url(#p55a90c203e)" style="fill: none; stroke: #bbbbbb; stroke-width: 1.5"/>
    <path d="M 197.335167 7.2 
L 195.997625 8.554016 
L 189.267026 16.075102 
L 185.508868 20.523505 
L 182.05799 24.950204 
L 175.560562 33.825306 
L 175.020111 34.602541 
L 169.730484 42.700408 
L 164.531354 51.308492 
L 164.377707 51.57551 
L 159.53528 60.450612 
L 155.085716 69.325714 
L 154.042597 71.55122 
L 151.025555 78.200816 
L 147.318357 87.075918 
L 143.936149 95.95102 
L 143.55384 97.035593 
L 140.856362 104.826122 
L 138.070638 113.701224 
L 135.56507 122.576327 
L 133.326731 131.451429 
L 133.065083 132.610244 
L 131.327508 140.326531 
L 129.576282 149.201633 
L 128.066676 158.076735 
L 126.790921 166.951837 
L 125.742483 175.826939 
L 124.915982 184.702041 
L 124.307134 193.577143 
L 123.912701 202.452245 
L 123.730456 211.327347 
L 123.759159 220.202449 
L 123.998537 229.077551 
L 124.449277 237.952653 
L 125.113027 246.827755 
L 125.992394 255.702857 
L 127.090962 264.577959 
L 128.413303 273.453061 
L 129.965003 282.328163 
L 131.752688 291.203265 
L 133.065083 296.977137 
L 133.781825 300.078367 
L 136.059201 308.953469 
L 138.599196 317.828571 
L 141.413063 326.703673 
L 143.55384 332.883643 
L 144.522559 335.578776 
L 147.95753 344.453878 
L 151.714265 353.32898 
L 154.042597 358.446414 
L 155.853342 362.204082 
L 160.421333 371.079184 
L 164.531354 378.472588 
L 165.422387 379.954286 
L 171.042261 388.829388 
L 175.020111 394.696751 
L 177.283555 397.70449 
L 184.351539 406.579592 
L 185.508868 407.970741 
L 192.654382 415.454694 
L 195.997625 418.787358 
L 202.628264 424.329796 
L 206.486382 427.429668 
L 215.542531 433.204898 
L 216.975139 434.091674 
L 227.463896 438.970572 
L 237.854553 442.08 
" clip-path="url(#p55a90c203e)" style="fill: none; stroke: #bbbbbb; stroke-width: 1.5"/>
   </g>
   <g id="PathCollection_2">
    <path d="M 245.317751 7.2 
L 237.952653 11.145867 
L 227.463896 18.16529 
L 216.975139 26.78852 
L 209.777634 33.825306 
L 206.486382 37.232279 
L 201.752399 42.700408 
L 194.67854 51.57551 
L 188.481617 60.450612 
L 185.508868 65.029827 
L 182.909577 69.325714 
L 177.921086 78.200816 
L 173.410565 87.075918 
L 169.381591 95.95102 
L 164.531354 107.986689 
L 162.457829 113.701224 
L 159.547712 122.576327 
L 156.95275 131.451429 
L 154.042597 143.047737 
L 152.675602 149.201633 
L 150.978658 158.076735 
L 149.554158 166.951837 
L 148.395366 175.826939 
L 147.496891 184.702041 
L 146.854628 193.577143 
L 146.465708 202.452245 
L 146.328464 211.327347 
L 146.442412 220.202449 
L 146.808238 229.077551 
L 147.427803 237.952653 
L 148.304153 246.827755 
L 149.441544 255.702857 
L 150.845469 264.577959 
L 152.522706 273.453061 
L 154.489726 282.328163 
L 156.783481 291.203265 
L 159.387463 300.078367 
L 162.315072 308.953469 
L 165.617543 317.828571 
L 169.367968 326.703673 
L 175.020111 338.57017 
L 178.238085 344.453878 
L 183.522078 353.32898 
L 185.508868 356.441955 
L 189.607476 362.204082 
L 196.508313 371.079184 
L 206.486382 381.617583 
L 216.975139 390.314068 
L 227.463896 396.90316 
L 229.191881 397.70449 
L 237.952653 401.610999 
L 248.44141 404.579193 
L 258.930167 405.932242 
L 269.418924 405.766631 
L 279.907681 404.152139 
L 290.396438 401.135315 
L 300.885195 396.746435 
L 311.373952 391.012499 
L 321.862709 383.911958 
L 332.351466 375.40607 
L 342.840223 365.411149 
L 353.69647 353.32898 
L 363.817737 340.258747 
L 367.010857 335.578776 
L 374.306494 324.461061 
L 378.140931 317.828571 
L 384.79525 305.638301 
L 387.480604 300.078367 
L 391.530281 291.203265 
L 395.324694 282.328163 
L 398.606296 273.453061 
L 401.631731 264.577959 
L 404.394679 255.702857 
L 406.817774 246.827755 
L 408.893338 237.952653 
L 410.703408 229.077551 
L 412.243119 220.202449 
L 413.507511 211.327347 
L 414.4915 202.452245 
L 415.189872 193.577143 
L 415.597277 184.702041 
L 415.708236 175.826939 
L 415.517154 166.951837 
L 415.018354 158.076735 
L 414.206109 149.201633 
L 413.074692 140.326531 
L 411.618435 131.451429 
L 409.831801 122.576327 
L 407.709464 113.701224 
L 405.207016 104.826122 
L 402.188581 95.95102 
L 398.795135 87.075918 
L 395.000477 78.200816 
L 390.48151 69.325714 
L 384.79525 59.17938 
L 379.727405 51.57551 
L 373.264782 42.700408 
L 363.817737 31.798199 
L 353.32898 21.92923 
L 342.840223 13.960887 
L 332.351466 7.648985 
L 331.38427 7.2 
L 331.38427 7.2 
" clip-path="url(#p55a90c203e)" style="fill: none; stroke: #bbbbbb; stroke-width: 1.5"/>
   </g>
   <g id="PathCollection_3">
    <path d="M 237.952653 362.294794 
L 248.44141 366.819341 
L 258.930167 369.486108 
L 269.418924 370.415839 
L 279.907681 369.700379 
L 290.396438 367.406551 
L 300.885195 363.578872 
L 303.556993 362.204082 
L 311.373952 358.183329 
L 318.687465 353.32898 
L 321.862709 351.205249 
L 330.054041 344.453878 
L 332.351466 342.530491 
L 339.315357 335.578776 
L 342.840223 331.975834 
L 347.275916 326.703673 
L 353.32898 319.276801 
L 354.364633 317.828571 
L 360.460886 308.953469 
L 363.817737 303.836234 
L 366.014114 300.078367 
L 370.925495 291.203265 
L 374.306494 284.704387 
L 375.423316 282.328163 
L 379.307928 273.453061 
L 382.891454 264.577959 
L 384.79525 259.411409 
L 386.045157 255.702857 
L 388.735996 246.827755 
L 391.118401 237.952653 
L 393.184492 229.077551 
L 394.926437 220.202449 
L 395.284007 217.945072 
L 396.25465 211.327347 
L 397.24043 202.452245 
L 397.90491 193.577143 
L 398.241592 184.702041 
L 398.243913 175.826939 
L 397.905258 166.951837 
L 397.218999 158.076735 
L 396.178538 149.201633 
L 395.284007 143.515194 
L 394.73263 140.326531 
L 392.807734 131.451429 
L 390.475953 122.576327 
L 387.731166 113.701224 
L 384.79525 105.456369 
L 384.543894 104.826122 
L 380.579347 95.95102 
L 376.143064 87.075918 
L 374.306494 83.725161 
L 370.847852 78.200816 
L 364.790587 69.325714 
L 363.817737 67.997049 
L 357.363674 60.450612 
L 353.32898 56.031528 
L 348.443238 51.57551 
L 342.840223 46.728672 
L 337.038274 42.700408 
L 332.351466 39.578504 
L 321.862709 34.255045 
L 320.651788 33.825306 
L 311.373952 30.617951 
L 300.885195 28.491898 
L 290.396438 27.821462 
L 279.907681 28.581978 
L 269.418924 30.768988 
L 260.561976 33.825306 
L 258.930167 34.410633 
L 248.44141 39.623858 
L 243.613293 42.700408 
L 237.952653 46.493811 
L 231.700424 51.57551 
L 227.463896 55.227003 
L 222.265134 60.450612 
L 216.975139 66.135734 
L 214.352952 69.325714 
L 207.567526 78.200816 
L 206.486382 79.722248 
L 201.752739 87.075918 
L 196.530851 95.95102 
L 195.997625 96.93451 
L 192.041221 104.826122 
L 188.016737 113.701224 
L 185.508868 119.838356 
L 184.455936 122.576327 
L 181.389202 131.451429 
L 178.687411 140.326531 
L 176.337869 149.201633 
L 175.020111 155.01268 
L 174.354168 158.076735 
L 172.739081 166.951837 
L 171.439866 175.826939 
L 170.451061 184.702041 
L 169.768782 193.577143 
L 169.390681 202.452245 
L 169.315912 211.327347 
L 169.545126 220.202449 
L 170.080468 229.077551 
L 170.925608 237.952653 
L 172.085771 246.827755 
L 173.567794 255.702857 
L 175.020111 262.834531 
L 175.395947 264.577959 
L 177.645129 273.453061 
L 180.266663 282.328163 
L 183.276581 291.203265 
L 185.508868 297.046317 
L 186.768393 300.078367 
L 190.863174 308.953469 
L 195.45066 317.828571 
L 195.997625 318.803408 
L 200.965509 326.703673 
L 206.486382 334.639259 
L 207.241392 335.578776 
L 214.955596 344.453878 
L 216.975139 346.603724 
L 224.630671 353.32898 
L 227.463896 355.648593 
L 237.80077 362.204082 
L 237.952653 362.294794 
z
" clip-path="url(#p55a90c203e)" style="fill: none; stroke: #bbbbbb; stroke-width: 1.5"/>
   </g>
   <g id="PathCollection_4">
    <path d="M 258.930167 331.045958 
L 269.418924 333.320502 
L 279.907681 333.58869 
L 290.396438 331.949636 
L 300.885195 328.475975 
L 304.379663 326.703673 
L 311.373952 323.083254 
L 318.915491 317.828571 
L 321.862709 315.714103 
L 329.317466 308.953469 
L 332.351466 306.094454 
L 337.61868 300.078367 
L 342.840223 293.822817 
L 344.700156 291.203265 
L 350.637026 282.328163 
L 353.32898 278.022897 
L 355.813408 273.453061 
L 360.266499 264.577959 
L 363.817737 256.828138 
L 364.274544 255.702857 
L 367.503847 246.827755 
L 370.353479 237.952653 
L 372.810066 229.077551 
L 374.306494 222.591264 
L 374.80237 220.202449 
L 376.260578 211.327347 
L 377.330139 202.452245 
L 378.001167 193.577143 
L 378.263888 184.702041 
L 378.108664 175.826939 
L 377.526039 166.951837 
L 376.506789 158.076735 
L 375.041997 149.201633 
L 374.306494 145.7775 
L 372.975875 140.326531 
L 370.297208 131.451429 
L 367.088891 122.576327 
L 363.817737 114.812056 
L 363.272268 113.701224 
L 358.337206 104.826122 
L 353.32898 96.828417 
L 352.668951 95.95102 
L 345.32777 87.075918 
L 342.840223 84.317889 
L 335.944041 78.200816 
L 332.351466 75.236164 
L 322.869142 69.325714 
L 321.862709 68.733972 
L 311.373952 64.477923 
L 300.885195 62.089475 
L 290.396438 61.504745 
L 279.907681 62.685697 
L 269.418924 65.619153 
L 261.116358 69.325714 
L 258.930167 70.361287 
L 248.44141 77.145923 
L 247.147023 78.200816 
L 237.952653 86.251913 
L 237.167244 87.075918 
L 229.336077 95.95102 
L 227.463896 98.265992 
L 222.859558 104.826122 
L 217.221624 113.701224 
L 216.975139 114.129267 
L 212.628382 122.576327 
L 208.570165 131.451429 
L 206.486382 136.617631 
L 205.117988 140.326531 
L 202.267397 149.201633 
L 199.845963 158.076735 
L 197.843549 166.951837 
L 196.25248 175.826939 
L 195.997625 177.735492 
L 195.126731 184.702041 
L 194.395676 193.577143 
L 194.041812 202.452245 
L 194.065751 211.327347 
L 194.47014 220.202449 
L 195.259707 229.077551 
L 195.997625 234.641151 
L 196.47386 237.952653 
L 198.174875 246.827755 
L 200.32332 255.702857 
L 202.936103 264.577959 
L 206.03336 273.453061 
L 206.486382 274.588676 
L 209.960323 282.328163 
L 214.538617 291.203265 
L 216.975139 295.401402 
L 220.144892 300.078367 
L 226.90238 308.953469 
L 227.463896 309.625445 
L 235.906215 317.828571 
L 237.952653 319.638107 
L 248.44141 326.633045 
L 248.597028 326.703673 
L 258.930167 331.045958 
z
" clip-path="url(#p55a90c203e)" style="fill: none; stroke: #bbbbbb; stroke-width: 1.5"/>
   </g>
   <g id="PathCollection_5">
    <path d="M 279.907681 291.26289 
L 280.668809 291.203265 
L 290.396438 290.406713 
L 300.885195 286.953974 
L 309.026441 282.328163 
L 311.373952 280.91398 
L 320.032369 273.453061 
L 321.862709 271.759194 
L 327.801436 264.577959 
L 332.351466 258.584188 
L 334.120598 255.702857 
L 339.006906 246.827755 
L 342.840223 238.943765 
L 343.244176 237.952653 
L 346.320938 229.077551 
L 348.855722 220.202449 
L 350.824505 211.327347 
L 352.203811 202.452245 
L 352.970832 193.577143 
L 353.103557 184.702041 
L 352.580937 175.826939 
L 351.38306 166.951837 
L 349.491359 158.076735 
L 346.88883 149.201633 
L 343.560277 140.326531 
L 342.840223 138.738992 
L 338.718923 131.451429 
L 332.781149 122.576327 
L 332.351466 122.014555 
L 323.919227 113.701224 
L 321.862709 111.8973 
L 311.373952 105.623467 
L 308.944814 104.826122 
L 300.885195 102.407272 
L 290.396438 101.742165 
L 279.907681 103.486575 
L 276.475061 104.826122 
L 269.418924 107.827697 
L 260.597513 113.701224 
L 258.930167 114.927174 
L 251.213744 122.576327 
L 248.44141 125.655507 
L 244.251648 131.451429 
L 238.615498 140.326531 
L 237.952653 141.531151 
L 234.384808 149.201633 
L 230.899255 158.076735 
L 228.045892 166.951837 
L 227.463896 169.269489 
L 226.01877 175.826939 
L 224.609717 184.702041 
L 223.746318 193.577143 
L 223.43086 202.452245 
L 223.669323 211.327347 
L 224.471523 220.202449 
L 225.851312 229.077551 
L 227.463896 236.340403 
L 227.882731 237.952653 
L 230.884203 246.827755 
L 234.650852 255.702857 
L 237.952653 262.142918 
L 239.506822 264.577959 
L 246.173036 273.453061 
L 248.44141 276.066754 
L 255.887272 282.328163 
L 258.930167 284.576767 
L 269.418924 289.387049 
L 279.538457 291.203265 
L 279.907681 291.26289 
z
" clip-path="url(#p55a90c203e)" style="fill: none; stroke: #bbbbbb; stroke-width: 1.5"/>
   </g>
   <g id="line2d_1">
    <path d="M 394.804591 120.457775 
L 395.110983 121.301442 
L 395.937255 123.227763 
L 396.29702 124.59131 
L 396.52039 126.079587 
L 396.996781 127.186752 
L 397.400033 128.280476 
L 397.801309 129.970577 
L 397.981191 131.485937 
L 398.427932 132.624136 
L 398.799556 133.745336 
L 399.151414 135.476949 
L 399.287808 137.015238 
L 399.635712 138.034439 
L 400.009313 139.182917 
L 400.345357 141.252946 
L 400.430356 142.658004 
L 400.744656 143.703099 
L 401.090583 144.877275 
L 401.367325 146.986246 
L 401.404883 148.403757 
L 401.687555 149.473562 
L 402.001855 150.672645 
L 402.219295 152.816208 
L 402.237085 154.434159 
L 402.551385 155.655974 
L 402.760918 156.711546 
L 402.903242 158.731564 
L 402.845917 160.161726 
L 403.004055 161.103439 
L 403.322308 162.675926 
L 403.409284 164.72085 
L 403.314401 166.347696 
L 403.545679 167.621895 
L 403.705793 168.706525 
L 403.737421 170.771612 
L 403.601027 172.593957 
L 403.838234 174.016015 
L 403.921257 175.110528 
L 403.836257 177.195383 
L 403.68998 178.689789 
L 403.858001 179.973673 
L 403.943001 181.074315 
L 403.800676 183.330551 
L 403.603004 184.818038 
L 403.699863 185.95011 
L 403.790793 187.068345 
L 403.650445 189.167827 
L 403.332192 191.165112 
L 403.450796 192.609111 
L 403.427075 193.716869 
L 403.191844 195.656236 
L 402.881498 197.320048 
L 402.944753 198.614211 
L 402.926963 199.721376 
L 402.527664 202.150576 
L 402.258829 203.46846 
L 402.280573 204.770333 
L 402.235108 205.876707 
L 401.825926 208.128595 
L 401.462208 209.597303 
L 401.442441 210.902931 
L 401.373255 212.006143 
L 400.847446 214.406681 
L 400.497565 215.694321 
L 400.43431 216.828765 
L 400.369078 217.94186 
L 399.868966 220.158957 
L 399.333273 221.942558 
L 399.25618 223.371534 
L 399.034787 224.609163 
L 398.558396 226.331723 
L 398.070144 227.742513 
L 397.94561 228.86482 
L 397.823053 229.961291 
L 397.265616 231.977216 
L 396.542134 234.052404 
L 396.095393 236.627981 
L 395.500399 238.299818 
L 395.018077 239.516197 
L 394.838195 240.613221 
L 394.614825 241.825094 
L 393.778669 244.073042 
L 393.266697 245.271547 
L 393.04728 246.513397 
L 392.810073 247.539081 
L 391.827639 249.896071 
L 391.376945 250.925096 
L 391.135785 252.142127 
L 390.86695 253.144051 
L 389.90626 255.301966 
L 389.352777 256.46691 
L 389.095802 257.654666 
L 388.791386 258.630063 
L 387.771395 260.737966 
L 387.267329 261.711128 
L 386.990588 262.738651 
L 386.713846 263.720214 
L 385.780831 265.633173 
L 385.000023 267.005614 
L 384.685724 268.15093 
L 384.341773 269.07762 
L 383.234806 271.071149 
L 382.620044 272.1625 
L 381.424124 275.083708 
L 380.754013 276.094013 
L 380.208436 277.009436 
L 379.817044 278.228483 
L 379.46914 278.96264 
L 378.170431 280.965262 
L 377.628807 281.874161 
L 376.697769 283.982341 
L 375.701498 285.421003 
L 375.11441 286.268229 
L 374.715111 287.306603 
L 374.379068 288.005574 
L 373.04873 289.85243 
L 372.447805 290.669609 
L 372.030716 291.678136 
L 371.682812 292.34963 
L 370.105383 294.362136 
L 369.627015 295.059723 
L 368.587257 296.955009 
L 367.523777 298.227429 
L 366.903085 298.99341 
L 366.418787 300.042459 
L 366.009604 300.63864 
L 363.766019 303.45093 
L 363.289628 304.287481 
L 360.86023 307.175282 
L 360.441164 307.870497 
L 358.899316 309.423414 
L 358.258857 310.107164 
L 357.035263 311.805568 
L 356.009341 312.753409 
L 355.355044 313.39545 
L 353.933777 315.198621 
L 353.081808 315.916766 
L 352.419604 316.520853 
L 350.97857 318.237246 
L 350.124624 318.911903 
L 349.45649 319.482584 
L 348.092548 321.029175 
L 347.029069 321.81275 
L 346.382679 322.388768 
L 345.469431 323.455015 
L 343.302938 325.12278 
L 342.642711 325.89568 
L 340.377382 327.484376 
L 339.630179 328.29266 
L 337.451825 329.692578 
L 336.52474 330.57064 
L 334.524292 331.749165 
L 333.595231 332.583937 
L 331.509783 333.740718 
L 330.758627 334.40391 
L 328.785853 335.334553 
L 328.24423 335.866095 
L 327.839001 336.112197 
L 325.872157 336.947958 
L 324.466704 337.839462 
L 323.424969 338.208517 
L 322.869508 338.482293 
L 321.942423 339.094683 
L 320.080346 339.735538 
L 318.872566 340.395568 
L 316.94328 341.10541 
L 316.445145 341.404292 
L 314.66609 341.808137 
L 314.100746 342.133902 
L 313.679703 342.365376 
L 311.815649 342.713676 
L 311.281933 343.023824 
L 310.934029 343.191846 
L 309.099626 343.449216 
L 308.554049 343.7309 
L 308.210099 343.88627 
L 306.40337 344.058443 
L 305.85384 344.313639 
L 305.513843 344.451614 
L 303.839555 344.525939 
L 303.329559 344.686054 
L 302.778052 344.885506 
L 301.937943 344.91575 
L 300.682721 345.035144 
L 300.20633 345.205143 
L 299.304943 345.190713 
L 298.065535 345.267805 
L 297.599027 345.398269 
L 296.780662 345.348258 
L 295.477999 345.386804 
L 295.08463 345.487419 
L 294.206963 345.391548 
L 292.999183 345.363874 
L 292.542559 345.449862 
L 291.819076 345.332839 
L 288.927124 345.067167 
L 288.324223 344.983749 
L 287.478183 345.004307 
L 286.353425 344.727368 
L 285.84343 344.681508 
L 285.171343 344.69317 
L 284.611929 344.53266 
L 282.059974 344.017525 
L 281.172423 343.768062 
L 280.51615 343.717458 
L 279.970573 343.51346 
L 279.282672 343.237706 
L 278.79442 343.179788 
L 278.351633 343.163184 
L 277.703267 342.866081 
L 275.398403 342.106821 
L 274.180739 341.743498 
L 273.957369 341.685382 
L 273.34063 341.334118 
L 272.690287 340.988388 
L 272.215872 340.879866 
L 271.792852 340.802181 
L 271.324368 340.490648 
L 268.981946 339.417483 
L 267.950095 338.951766 
L 267.665446 338.875267 
L 267.165334 338.487828 
L 266.483363 338.047216 
L 266.026739 337.886705 
L 265.617556 337.758218 
L 265.176746 337.393907 
L 263.370017 336.328649 
L 262.122703 335.550411 
L 261.71352 335.39761 
L 261.300384 335.000091 
L 260.576902 334.441863 
L 260.07086 334.258027 
L 259.817839 334.116889 
L 259.414586 333.704346 
L 257.771926 332.520484 
L 256.781585 331.685712 
L 256.012639 331.172949 
L 255.447295 330.690232 
L 254.889857 330.195457 
L 254.328467 329.83767 
L 253.968703 329.448847 
L 253.514055 329.005665 
L 253.120687 328.696307 
L 252.620575 328.376671 
L 252.288484 327.969267 
L 250.827683 326.650988 
L 250.39478 326.227968 
L 249.479555 325.460405 
L 249.30758 325.291395 
L 248.967583 324.800771 
L 248.416076 324.177706 
L 247.949568 323.857674 
L 247.704454 323.67206 
L 247.390154 323.173727 
L 246.012375 321.730716 
L 245.658541 321.319952 
L 244.448784 319.941382 
L 243.689721 318.971205 
L 243.203446 318.644451 
L 243.067052 318.42286 
L 242.79624 317.956155 
L 241.554855 316.47697 
L 241.232649 316.023904 
L 240.167193 314.723218 
L 239.882544 314.244257 
L 239.461501 313.615262 
L 239.113597 313.261823 
L 238.823018 312.990023 
L 238.564067 312.436539 
L 237.3721 310.773519 
L 236.70792 309.712016 
L 236.253273 309.321415 
L 236.140599 309.077882 
L 235.907345 308.574014 
L 234.839913 307.023667 
L 234.575031 306.519602 
L 234.248871 305.935479 
L 233.934572 305.534796 
L 233.628179 305.17009 
L 233.438413 304.659106 
L 232.384817 302.973748 
L 232.117959 302.465729 
L 231.857031 301.947629 
L 231.570406 301.522633 
L 231.254129 301.143694 
L 231.092038 300.628164 
L 230.028559 298.709355 
L 229.390076 297.481412 
L 228.992753 296.859336 
L 228.773337 296.323049 
L 228.488688 295.709869 
L 228.213923 295.276768 
L 227.937181 294.874504 
L 227.782996 294.33802 
L 226.871725 292.538012 
L 226.632541 292.008249 
L 226.375567 291.360278 
L 226.031616 290.90484 
L 225.901152 290.669807 
L 225.748944 290.054452 
L 224.918719 288.394199 
L 224.798138 287.925517 
L 223.942215 285.97251 
L 223.515242 284.864159 
L 223.193036 284.393105 
L 223.074432 284.147595 
L 222.941991 283.518403 
L 222.190835 281.81229 
L 222.080138 281.332736 
L 221.330959 279.427764 
L 221.123402 278.879024 
L 220.95538 278.298064 
L 220.718173 277.846975 
L 220.528407 277.470211 
L 220.441431 276.913169 
L 219.73574 274.981116 
L 219.547951 274.420121 
L 219.389812 273.83916 
L 219.170396 273.375025 
L 218.982607 272.990156 
L 218.915398 272.432917 
L 218.255171 270.475759 
L 218.083196 269.906462 
L 217.938895 269.322536 
L 217.733315 268.850494 
L 217.553433 268.458311 
L 217.500061 267.898107 
L 216.879369 265.816613 
L 216.541348 264.547752 
L 216.238909 263.51932 
L 215.914726 262.245418 
L 215.634031 261.313332 
L 215.483799 260.737373 
L 215.369149 260.140223 
L 215.177407 259.664978 
L 215.037059 259.261133 
L 214.997524 258.68549 
L 214.485552 256.856622 
L 214.406483 256.261054 
L 214.264159 255.587346 
L 214.060556 255.013818 
L 213.936022 254.675303 
L 213.932068 254.118697 
L 213.263935 251.090429 
L 213.131494 250.488101 
L 212.951612 249.988226 
L 212.945681 249.415015 
L 212.528592 247.365188 
L 212.408012 246.779128 
L 212.073945 245.269784 
L 212.062084 244.68053 
L 211.676623 242.899342 
L 211.682553 242.404453 
L 211.328719 240.230942 
L 211.140929 238.919008 
L 210.970931 238.045216 
L 210.92942 237.530436 
L 210.842444 236.842832 
L 210.725817 236.335208 
L 210.60326 235.903649 
L 210.642794 235.334529 
L 210.354192 233.037197 
L 210.041869 231.410153 
L 210.037916 231.116529 
L 210.063613 230.523729 
L 209.97466 229.627975 
L 209.804662 229.075302 
L 209.775011 228.788261 
L 209.826406 228.214338 
L 209.606989 226.115587 
L 209.537804 225.516066 
L 209.357921 223.973052 
L 209.409316 223.479068 
L 209.209667 221.469329 
L 209.21362 220.949846 
L 209.170132 220.152038 
L 209.069319 219.650938 
L 208.998157 219.28643 
L 209.085133 218.727411 
L 208.942809 216.61172 
L 208.926995 216.091445 
L 208.907228 215.492695 
L 208.855833 214.970839 
L 208.776764 214.445227 
L 208.855833 213.960929 
L 208.705601 209.395677 
L 208.695718 208.875995 
L 208.701648 208.272896 
L 208.65223 207.751633 
L 208.585021 207.298962 
L 208.693741 206.733223 
L 208.662113 204.604288 
L 208.666067 204.082234 
L 208.681881 203.478937 
L 208.620602 202.868128 
L 208.583044 202.497689 
L 208.705601 201.93709 
L 208.715485 199.802817 
L 208.721415 199.18766 
L 208.768857 198.572107 
L 208.713508 198.060727 
L 208.677927 197.686533 
L 208.814321 197.131863 
L 208.911181 193.958228 
L 208.923041 193.336349 
L 208.895367 192.799668 
L 209.019901 192.319323 
L 209.178039 189.137781 
L 209.205713 188.516495 
L 209.183969 187.974279 
L 209.326294 187.391935 
L 209.381642 185.523137 
L 209.512106 185.034885 
L 209.701872 182.786358 
L 209.828383 181.437044 
L 209.889661 180.524191 
L 209.970707 179.997591 
L 210.047799 179.292097 
L 210.039892 178.678719 
L 210.053729 178.30571 
L 210.231635 177.742738 
L 210.387796 175.778465 
L 210.524191 175.274992 
L 210.672445 173.397694 
L 210.83256 172.916163 
L 211.136976 170.665659 
L 211.324765 169.425263 
L 211.283254 168.790141 
L 211.397904 168.484143 
L 211.550112 167.981857 
L 211.759645 166.10278 
L 211.935574 165.625005 
L 212.340803 163.269734 
L 212.548359 161.718597 
L 212.564173 161.326216 
L 212.813241 160.697024 
L 213.12161 158.738285 
L 213.293585 158.236196 
L 213.586141 156.360677 
L 213.781837 155.886263 
L 214.256252 153.645247 
L 214.362995 153.031275 
L 214.683225 151.462742 
L 214.882874 150.977258 
L 215.323684 148.936485 
L 215.493683 148.420757 
L 215.691356 147.614054 
L 215.746704 147.008978 
L 215.804029 146.706539 
L 216.096585 146.082684 
L 216.489953 144.20677 
L 216.723207 143.751134 
L 217.606804 140.491313 
L 217.753082 139.875167 
L 217.826221 139.403125 
L 218.140521 138.777688 
L 218.603075 136.916006 
L 218.850166 136.462743 
L 219.235628 134.779955 
L 219.368068 134.495702 
L 219.652717 133.93866 
L 220.160736 132.081327 
L 220.455268 131.530413 
L 221.04038 129.606662 
L 221.289447 129.130666 
L 221.894326 127.207903 
L 222.153277 126.74021 
L 222.839201 124.744506 
L 223.084316 124.253289 
L 223.416406 123.361192 
L 223.525126 122.777465 
L 223.641753 122.494002 
L 223.977796 121.989936 
L 224.885114 119.735084 
L 225.436621 118.326468 
L 225.626387 117.696287 
L 225.972314 117.180954 
L 226.759052 115.217076 
L 227.041724 114.74444 
L 227.743462 112.944037 
L 228.103226 112.428309 
L 228.947289 110.491709 
L 229.241821 110.023423 
L 229.939606 108.298135 
L 230.372509 107.740105 
L 231.269943 105.827819 
L 231.582266 105.37159 
L 232.386794 103.609733 
L 232.780163 103.126028 
L 233.877247 101.08565 
L 234.187593 100.507853 
L 234.917005 99.043493 
L 235.330141 98.595369 
L 236.553735 96.502806 
L 236.870012 95.933904 
L 237.652796 94.510858 
L 238.081745 94.06135 
L 239.374525 92.019391 
L 239.704639 91.461163 
L 240.536841 90.072907 
L 240.981604 89.636841 
L 242.418685 87.562266 
L 243.250887 86.300916 
L 243.571117 85.741898 
L 244.031695 85.335087 
L 244.972617 83.788496 
L 245.211801 83.57837 
L 245.6111 83.234024 
L 246.508534 81.915547 
L 246.757601 81.529492 
L 247.301201 81.078403 
L 248.625609 79.345801 
L 249.028861 78.962514 
L 250.230711 77.377574 
L 250.651754 77.065053 
L 251.663839 75.726809 
L 251.889185 75.429114 
L 252.458483 75.034559 
L 254.138701 73.209051 
L 254.555791 72.717835 
L 255.595549 71.517566 
L 256.109498 71.195952 
L 257.196698 69.933812 
L 257.441812 69.656873 
L 258.034831 69.309562 
L 259.210983 67.953724 
L 259.464004 67.788668 
L 259.995744 67.476345 
L 261.160036 66.209065 
L 261.385383 66.022857 
L 261.996192 65.698476 
L 263.848385 64.109385 
L 264.33466 63.676877 
L 265.487092 62.598177 
L 266.109761 62.318273 
L 267.323472 61.211108 
L 267.598237 60.97054 
L 268.222883 60.720089 
L 269.474151 59.648702 
L 269.748916 59.402402 
L 270.464492 59.122498 
L 272.344359 57.803427 
L 272.830634 57.528267 
L 274.299343 56.431183 
L 274.864687 56.265336 
L 276.07049 55.442622 
L 276.633857 55.052021 
L 277.215015 54.887162 
L 278.505818 54.03875 
L 278.936745 53.753706 
L 279.600925 53.592603 
L 281.028122 52.670657 
L 281.346375 52.523984 
L 282.020439 52.377311 
L 283.412055 51.556772 
L 283.724378 51.377285 
L 284.471581 51.25117 
L 285.948196 50.428456 
L 286.274356 50.307875 
L 286.849584 50.248574 
L 287.569113 49.884658 
L 289.041775 49.3375 
L 289.579444 49.225024 
L 291.494893 48.450542 
L 292.125469 48.37681 
L 294.161498 47.66677 
L 294.697191 47.623677 
L 296.335898 46.990729 
L 296.616593 46.944869 
L 297.292634 46.967997 
L 298.486577 46.604081 
L 299.585638 46.406409 
L 300.141098 46.372804 
L 302.159337 45.894436 
L 302.671309 45.947808 
L 303.386884 45.769903 
L 304.792337 45.485254 
L 305.452564 45.599904 
L 306.087094 45.473393 
L 307.476733 45.200605 
L 308.805094 45.291535 
L 309.704505 45.174908 
L 310.562404 45.13735 
L 311.189027 45.261884 
L 312.898896 45.066188 
L 313.276451 45.060257 
L 314.023654 45.279674 
L 315.490385 45.200605 
L 316.281076 45.226303 
L 316.872118 45.421999 
L 317.631181 45.392348 
L 319.046518 45.398278 
L 320.088253 45.730368 
L 322.080794 45.823274 
L 322.719277 46.117807 
L 323.401248 46.165248 
L 324.328333 46.252224 
L 325.067629 46.360944 
L 325.712042 46.687104 
L 326.492849 46.762022 
L 327.757955 46.917788 
L 328.066324 47.043508 
L 328.708761 47.399319 
L 329.495498 47.509818 
L 330.831766 47.743269 
L 331.211297 47.979884 
L 331.705479 48.260381 
L 332.49617 48.410415 
L 333.842321 48.711273 
L 334.148714 48.902422 
L 334.696268 49.270884 
L 335.496842 49.465987 
L 336.427881 49.735613 
L 337.097991 49.978157 
L 337.799729 50.486176 
L 338.588444 50.700256 
L 339.928665 51.144229 
L 340.302266 51.450819 
L 340.889354 51.865339 
L 343.366193 52.970329 
L 343.965142 53.408965 
L 346.351052 54.575037 
L 346.902559 55.055974 
L 347.693249 55.386681 
L 348.79231 55.932257 
L 349.207423 56.203662 
L 350.049508 57.004434 
L 352.279257 58.277644 
L 352.933553 58.980964 
L 353.815174 59.438972 
L 355.034815 60.207128 
L 355.384695 60.625799 
L 355.902598 61.199643 
L 356.685382 61.658639 
L 357.576886 62.268064 
L 358.227229 62.812454 
L 358.936874 63.681819 
L 361.257552 65.517013 
L 361.714176 66.148972 
L 362.378356 66.656794 
L 363.190791 67.269777 
L 364.13369 68.224338 
L 364.651593 68.988146 
L 365.309843 69.516525 
L 366.100534 70.179322 
L 367.013782 71.206627 
L 367.527731 72.008585 
L 368.276911 72.636987 
L 368.950975 73.274086 
L 369.78713 74.267589 
L 370.243754 75.091291 
L 370.876307 75.711391 
L 371.655137 76.460373 
L 372.548618 77.608456 
L 372.987452 78.467146 
L 373.606167 79.121047 
L 374.371161 79.915889 
L 375.234991 81.129995 
L 375.654057 82.020313 
L 376.258935 82.712168 
L 377.006138 83.552079 
L 377.846247 84.829836 
L 378.324615 85.885013 
L 379.014493 86.679657 
L 379.629255 87.47272 
L 380.374481 88.706198 
L 380.813315 89.791817 
L 381.388543 90.534275 
L 382.084351 91.466302 
L 382.845391 92.876895 
L 383.205155 93.867433 
L 383.756662 94.657333 
L 384.440609 95.631267 
L 385.146301 96.978011 
L 385.650367 98.408568 
L 387.409654 101.489298 
L 387.81686 102.822403 
L 388.504761 103.879161 
L 389.135337 105.084767 
L 389.552426 106.16999 
L 389.939865 107.549548 
L 391.574618 111.014356 
L 391.867174 112.272741 
L 392.337635 113.17393 
L 392.904956 114.312525 
L 393.440649 115.877105 
L 393.725297 117.308058 
L 394.174015 118.233166 
L 394.658313 119.272925 
L 395.207843 121.165246 
L 395.43912 122.488467 
L 395.937255 123.577248 
L 396.318764 124.510461 
L 396.810969 126.456352 
L 397.006665 127.806654 
L 397.473172 128.925679 
L 397.827007 129.88459 
L 398.261887 131.880294 
L 398.420025 133.253724 
L 398.787696 134.25632 
L 399.183041 135.386613 
L 399.556643 137.427781 
L 399.671293 138.820583 
L 400.068615 140.000887 
L 400.404659 141.155691 
L 400.693261 142.937118 
L 400.800004 144.684347 
L 401.223024 146.005591 
L 401.452324 147.039024 
L 401.659881 148.854846 
L 401.711276 150.4641 
L 402.140225 151.967006 
L 402.365572 153.341029 
L 402.460455 154.713668 
L 402.432781 156.139679 
L 402.664058 157.241507 
L 402.960567 158.625809 
L 403.071264 160.813848 
L 403.027776 162.27801 
L 403.243239 163.374303 
L 403.464633 164.612723 
L 403.533818 166.664368 
L 403.436959 168.485527 
L 403.705793 169.891375 
L 403.806607 170.980947 
L 403.761142 173.056313 
L 403.640561 174.35443 
L 403.776956 175.488874 
L 403.941024 176.760305 
L 403.873815 179.005077 
L 403.680096 180.659597 
L 403.832304 181.950993 
L 403.90742 183.215308 
L 403.717654 185.479451 
L 403.535795 186.795359 
L 403.620794 187.932768 
L 403.69591 189.212896 
L 403.514051 191.313564 
L 403.205681 193.146188 
L 403.294634 194.434421 
L 403.294634 195.541389 
L 402.986265 197.806718 
L 402.697663 199.300333 
L 402.758941 200.762321 
L 402.681849 202.030984 
L 402.399177 203.80312 
L 402.019645 205.443408 
L 402.025575 206.748641 
L 401.976157 207.854225 
L 401.547207 210.101962 
L 401.167676 211.563356 
L 401.130118 212.699974 
L 401.082676 213.81643 
L 400.675471 215.891005 
L 400.100243 218.039708 
L 399.837338 220.686941 
L 399.366877 222.419345 
L 398.965601 223.682869 
L 398.852928 224.98233 
L 398.724441 226.068937 
L 398.119562 228.255237 
L 397.579916 229.850772 
L 397.451428 231.268342 
L 397.235965 232.328244 
L 396.51446 234.491633 
L 396.075626 235.750789 
L 395.282959 239.42847 
L 394.300525 242.299765 
L 394.047504 243.676419 
L 393.268673 245.761398 
L 392.673679 247.101868 
L 392.464145 248.175903 
L 392.246705 249.213744 
L 391.440201 251.256297 
L 390.738463 252.720399 
L 390.489395 253.929682 
L 390.212653 254.923916 
L 389.14522 257.214706 
L 388.674759 258.224102 
L 388.37825 259.549023 
L 388.0343 260.508448 
L 387.057796 262.460486 
L 386.484545 263.603904 
L 385.332113 266.791535 
L 384.484097 268.177418 
L 384.124333 269.022469 
L 383.505617 270.860035 
L 382.542951 272.570497 
L 381.902492 273.622906 
L 381.586215 274.596049 
L 381.256102 275.511274 
L 380.129367 277.418618 
L 379.46321 278.427342 
L 379.11926 279.382101 
L 378.777286 280.276768 
L 377.522064 282.241042 
L 376.85393 283.245615 
L 376.434864 284.42157 
L 376.067193 285.121134 
L 374.823831 286.903944 
L 374.23872 287.749983 
L 373.843375 288.771754 
L 373.493494 289.457085 
L 372.145366 291.282197 
L 371.546417 292.099179 
L 371.087817 293.208913 
L 370.696425 293.853722 
L 368.512141 296.863091 
L 368.065401 297.770805 
L 366.574948 299.547685 
L 365.960186 300.315446 
L 364.714848 302.337835 
L 363.80753 303.323827 
L 363.169047 304.039995 
L 362.710447 304.941383 
L 362.326961 305.516808 
L 359.952912 308.254378 
L 359.466637 309.043289 
L 357.05503 311.638139 
L 356.566778 312.403133 
L 354.01087 315.079622 
L 353.635292 315.594559 
L 352.061817 316.951187 
L 351.40752 317.564763 
L 350.328227 318.907159 
L 348.13999 320.910967 
L 347.701156 321.46959 
L 345.153155 323.632723 
L 344.708391 324.152602 
L 342.365969 325.894099 
L 341.618767 326.720964 
L 339.438436 328.206079 
L 338.604257 329.060816 
L 336.425904 330.459548 
L 335.674748 331.186588 
L 333.587324 332.373811 
L 332.565356 333.241001 
L 330.570838 334.31555 
L 329.819681 334.969056 
L 327.748071 335.940617 
L 326.63122 336.729925 
L 324.660423 337.652463 
L 324.079265 338.108494 
L 322.043236 338.851151 
L 320.643713 339.634725 
L 319.605932 339.938746 
L 319.056401 340.189988 
L 318.226176 340.696426 
L 316.498516 341.155422 
L 315.95887 341.507279 
L 315.603059 341.718394 
L 313.533425 342.201901 
L 312.432388 342.688176 
L 310.607869 343.11673 
L 309.959503 343.435774 
L 308.536259 343.607354 
L 307.986729 343.745132 
L 307.087318 344.083548 
L 305.509889 344.234174 
L 304.97222 344.485812 
L 304.634199 344.606194 
L 303.173398 344.647508 
L 302.629798 344.738833 
L 301.829223 344.987901 
L 300.528537 344.980191 
L 299.990867 345.0559 
L 299.198199 345.253968 
L 298.012163 345.200794 
L 297.377633 345.256735 
L 296.675895 345.415467 
L 296.003808 345.374351 
L 294.505449 345.46785 
L 294.244521 345.483466 
L 293.517085 345.386211 
L 290.603389 345.208899 
L 289.998511 345.132795 
L 289.059565 345.164818 
L 287.70353 344.892227 
L 287.171791 344.981377 
L 286.867375 344.974261 
L 286.248659 344.79517 
L 285.53506 344.596509 
L 285.027041 344.565869 
L 284.437977 344.575358 
L 283.888447 344.398638 
L 283.188685 344.174477 
L 282.686596 344.123082 
L 282.103462 344.105687 
L 281.561839 343.906631 
L 280.871961 343.656179 
L 280.375802 343.588773 
L 279.859876 343.576517 
L 279.268835 343.321717 
L 278.681747 343.082138 
L 278.191519 342.963929 
L 277.539199 342.882291 
L 277.009436 342.646862 
L 276.339325 342.340667 
L 275.855027 342.256063 
L 275.41817 342.215738 
L 274.860733 341.908159 
L 274.212367 341.590895 
L 273.732022 341.463198 
L 273.227956 341.387489 
L 272.745635 341.090783 
L 272.026106 340.714809 
L 271.555645 340.58988 
L 271.122742 340.51595 
L 270.587049 340.164686 
L 269.96438 339.803736 
L 269.497872 339.644807 
L 269.00962 339.524029 
L 268.541136 339.191543 
L 266.754175 338.284818 
L 265.576045 337.570034 
L 264.890121 337.296059 
L 264.476985 336.990457 
L 263.885943 336.566054 
L 263.437226 336.372137 
L 263.02409 336.231987 
L 262.605024 335.845142 
L 260.430624 334.427828 
L 259.54505 333.848252 
L 259.220867 333.694858 
L 258.821568 333.27757 
L 257.186815 332.076906 
L 256.204381 331.231855 
L 255.441364 330.710592 
L 254.577535 329.893413 
L 254.085329 329.633869 
L 253.830332 329.476522 
L 253.474521 329.019898 
L 251.49384 327.26575 
L 250.760474 326.59979 
L 250.436291 326.402711 
L 250.038969 325.864053 
L 249.544787 325.317685 
L 249.151418 325.015443 
L 248.779793 324.761632 
L 248.505028 324.331298 
L 246.496673 322.216002 
L 246.117142 321.771041 
L 245.583425 321.32094 
L 245.277033 320.871828 
L 244.816455 320.289089 
L 244.446807 319.954626 
L 244.092973 319.665036 
L 243.839952 319.207621 
L 242.007526 316.997442 
L 241.521251 316.400075 
L 241.163463 316.092299 
L 240.938116 315.623419 
L 239.908241 314.444499 
L 239.75208 314.247419 
L 239.538593 313.772214 
L 237.704191 311.176574 
L 237.378031 310.787554 
L 237.04001 310.449336 
L 236.781059 309.881026 
L 236.330365 309.151219 
L 235.988391 308.795606 
L 235.73537 308.498899 
L 235.535721 307.999973 
L 234.318057 306.092629 
L 233.394925 304.780477 
L 233.244694 304.568177 
L 233.031207 303.985437 
L 232.017146 302.376974 
L 231.774009 301.8567 
L 231.469593 301.258542 
L 231.105875 300.784128 
L 230.890412 300.522014 
L 230.706576 299.934728 
L 229.73798 298.2808 
L 229.566004 297.826944 
L 228.638919 296.150481 
L 228.405665 295.616567 
L 228.1309 294.994096 
L 227.848228 294.571471 
L 227.605091 294.233253 
L 227.429162 293.620468 
L 227.069398 292.823254 
L 226.723471 292.363072 
L 226.579169 292.132783 
L 226.428938 291.525928 
L 225.567085 289.791745 
L 225.367436 289.240436 
L 225.146042 288.702963 
L 224.918719 288.236851 
L 224.614303 287.738914 
L 224.473955 287.185825 
L 223.681287 285.504619 
L 223.519196 284.942438 
L 223.274081 284.309489 
L 223.046758 283.843179 
L 222.78583 283.407311 
L 222.681063 282.857583 
L 221.886419 280.865635 
L 221.49305 279.739691 
L 221.184681 279.259347 
L 221.077937 279.006128 
L 221.000845 278.461144 
L 219.957133 275.589552 
L 219.761437 275.010371 
L 219.492602 274.474481 
L 219.399696 273.905381 
L 218.747376 272.143128 
L 218.658423 271.653098 
L 218.027847 269.788649 
L 217.91122 269.295455 
L 217.725408 268.635624 
L 217.535642 268.151523 
L 217.334016 267.684027 
L 217.264831 267.109195 
L 217.0296 266.251493 
L 216.764719 265.730823 
L 216.667859 265.46693 
L 216.60658 264.818959 
L 216.351583 263.853466 
L 215.813913 262.03033 
L 215.651821 261.351917 
L 215.432404 260.789637 
L 215.402753 260.304015 
L 214.84927 258.084624 
L 214.400553 256.555863 
L 214.295786 256.219009 
L 214.276019 255.648861 
L 213.793697 253.717026 
L 213.722535 253.210035 
L 213.584164 252.535358 
L 213.443817 252.032696 
L 213.277772 251.540688 
L 213.254051 250.957277 
L 212.819171 249.106033 
L 212.781613 248.599279 
L 212.3665 246.829673 
L 212.336849 246.233923 
L 212.206385 245.453025 
L 212.012666 244.886736 
L 211.935574 244.540294 
L 211.939527 243.960683 
L 211.561972 242.087959 
L 211.520461 241.48314 
L 211.423601 240.797828 
L 211.257556 240.213725 
L 211.168604 239.864002 
L 211.196278 239.296346 
L 210.874071 237.115264 
L 210.702096 235.799653 
L 210.547911 234.921828 
L 210.508377 234.405705 
L 210.427331 233.611436 
L 210.285007 233.127316 
L 210.209891 232.773244 
L 210.255356 232.203216 
L 209.998381 230.111561 
L 209.923265 229.512119 
L 209.897568 228.898345 
L 209.737453 228.331143 
L 209.691988 228.044438 
L 209.741407 227.379013 
L 209.664314 226.481064 
L 209.502223 225.928292 
L 209.476525 225.639809 
L 209.535827 225.063593 
L 209.330247 223.059607 
L 209.32234 222.539332 
L 209.278852 221.845105 
L 209.197807 221.329575 
L 209.106877 220.88659 
L 209.181993 220.316897 
L 209.013971 218.303798 
L 209.019901 217.782733 
L 208.986297 217.08732 
L 208.921065 216.568034 
L 208.830135 216.118526 
L 208.923041 215.555159 
L 208.824205 213.331341 
L 208.786647 211.995271 
L 208.727345 211.09586 
L 208.723392 210.479121 
L 208.733276 209.873452 
L 208.640369 209.273318 
L 208.612695 208.909402 
L 208.709555 208.333581 
L 208.650253 206.307238 
L 208.660137 205.688523 
L 208.677927 205.083249 
L 208.632463 204.562579 
L 208.577114 204.11149 
L 208.689788 203.540808 
L 208.709555 201.303944 
L 208.713508 199.856386 
L 208.668044 199.232531 
L 208.76688 198.73835 
L 208.828159 196.497334 
L 208.86374 195.046811 
L 208.826182 194.417619 
L 208.938855 193.928181 
L 209.043622 191.68341 
L 209.122691 190.446176 
L 209.209667 189.111095 
L 209.355945 186.863753 
L 209.369782 186.178027 
L 209.375712 185.00049 
L 209.468618 184.689156 
L 209.581292 184.180939 
L 209.664314 182.312734 
L 209.800708 181.822506 
L 209.958847 179.772442 
L 210.053729 179.2494 
L 210.146636 178.440523 
L 210.113031 177.843749 
L 210.132799 177.544077 
L 210.324541 176.888002 
L 210.472796 175.021378 
L 210.619073 174.52858 
L 210.881978 172.38304 
L 210.95314 171.762941 
L 211.069767 171.145609 
L 211.069767 170.62909 
L 211.087558 170.249756 
L 211.289184 169.702796 
L 211.650925 167.345548 
L 211.830807 165.795794 
L 211.840691 165.405984 
L 212.077898 164.770663 
L 212.352663 162.813308 
L 212.512778 162.306673 
L 212.67487 161.391448 
L 212.676847 160.799418 
L 212.732195 160.502712 
L 212.957542 159.952984 
L 213.309399 157.901536 
L 213.461607 157.38482 
L 213.623699 156.575943 
L 213.667187 156.053494 
L 213.736372 155.601614 
L 213.963696 155.034491 
L 214.277996 153.153042 
L 214.509273 152.579396 
L 214.73462 151.558811 
L 215.06078 150.236776 
L 215.545078 148.099143 
L 215.699263 147.575904 
L 215.879145 146.871793 
L 215.952284 146.258415 
L 216.029376 145.887383 
L 216.294257 145.344771 
L 216.833904 143.218011 
L 216.992042 142.694771 
L 217.191692 141.992835 
L 217.272737 141.383015 
L 217.328086 141.075041 
L 217.642385 140.472336 
L 218.184009 138.444214 
L 218.387612 137.937579 
L 218.624819 137.13483 
L 218.717725 136.527184 
L 218.824468 136.163466 
L 219.113071 135.624017 
L 219.75946 133.51821 
L 219.943296 132.999912 
L 220.17655 132.303116 
L 220.289223 131.784422 
L 220.39992 131.33195 
L 220.706313 130.804756 
L 221.455492 128.615531 
L 221.645258 128.006501 
L 222.206649 126.39705 
L 222.457693 125.913345 
L 223.044781 124.076767 
L 223.365011 123.53633 
L 224.029191 121.632149 
L 224.303956 121.170385 
L 225.112438 119.112415 
L 225.345692 118.607756 
L 225.628364 117.923808 
L 225.798362 117.323674 
L 225.924873 116.960747 
L 226.278707 116.475658 
L 226.849981 114.824893 
L 227.004166 114.55507 
L 227.359977 114.04369 
L 227.976716 112.315438 
L 227.976716 112.315438 
" clip-path="url(#p55a90c203e)" style="fill: none; stroke: #0000ff; stroke-width: 1.5; stroke-linecap: square"/>
   </g>
   <g id="line2d_2">
    <path d="M 339.389018 51.42018 
L 339.385065 51.398831 
L 339.485878 51.487982 
L 339.732969 51.423343 
L 339.916804 51.372541 
L 340.126337 51.249984 
L 340.128314 51.215786 
L 340.20343 51.301181 
L 340.424823 51.291693 
L 340.897261 51.062194 
L 340.922959 51.118136 
L 341.118655 51.169135 
L 341.687952 50.954265 
L 341.689929 50.933312 
L 341.753184 51.019102 
L 341.974577 51.03966 
L 342.547828 50.907417 
L 342.808756 50.950114 
L 343.376077 50.82222 
L 343.565843 50.90287 
L 343.822817 50.78565 
L 343.931537 50.831906 
L 344.166768 50.791976 
L 344.218163 50.726942 
L 344.271535 50.814313 
L 344.492928 50.871638 
L 345.202573 50.838034 
L 345.489199 50.852661 
L 345.769894 50.841394 
L 346.022915 50.753232 
L 346.024892 50.746511 
L 346.08617 50.845941 
L 346.317447 50.912952 
L 347.029069 50.910579 
L 347.260346 50.9853 
L 347.993712 51.009218 
L 348.226966 51.093427 
L 348.954401 51.112996 
L 349.159981 51.230019 
L 351.016128 51.517435 
L 351.247405 51.633271 
L 352.097398 51.794374 
L 352.348442 51.897362 
L 353.119366 52.010628 
L 353.299248 52.16758 
L 353.666919 52.162441 
L 353.830988 52.25337 
L 354.13145 52.27887 
L 354.196682 52.28401 
L 354.212496 52.332835 
L 354.437843 52.521612 
L 355.53888 52.895411 
L 355.884807 52.910632 
L 356.046899 52.994643 
L 356.359222 53.06284 
L 356.475849 53.134398 
L 356.713056 53.336419 
L 357.740954 53.735916 
L 358.076998 53.846217 
L 358.339903 53.907298 
L 358.602807 54.021751 
L 358.814317 54.11268 
L 359.051524 54.332492 
L 360.073492 54.773105 
L 360.336397 54.931638 
L 361.202204 55.213322 
L 361.344528 55.445192 
L 361.690455 55.575854 
L 361.96522 55.677457 
L 362.283473 55.819584 
L 362.445565 55.911502 
L 362.591843 56.125186 
L 362.941724 56.255848 
L 363.216489 56.37623 
L 363.540672 56.521322 
L 363.694857 56.633205 
L 363.906367 56.894528 
L 364.87694 57.28513 
L 364.959962 57.406896 
L 365.183332 57.677115 
L 367.515871 59.072882 
L 367.705636 59.360891 
L 368.108889 59.518831 
L 368.314468 59.661551 
L 368.636675 59.862189 
L 368.818534 60.006688 
L 369.010276 60.304581 
L 369.417482 60.474777 
L 369.623062 60.62738 
L 369.949222 60.839681 
L 370.131081 60.996435 
L 370.322823 61.303816 
L 370.732006 61.488442 
L 370.941539 61.650139 
L 371.267699 61.875288 
L 371.455488 62.043112 
L 371.6413 62.359586 
L 372.05246 62.56141 
L 372.267923 62.730223 
L 372.592106 62.969802 
L 372.785825 63.14751 
L 372.965708 63.472681 
L 373.38082 63.693679 
L 373.600237 63.869213 
L 373.922444 64.124013 
L 374.122093 64.311011 
L 374.296045 64.643892 
L 374.66174 64.869041 
L 374.938481 65.067505 
L 375.302199 65.361247 
L 375.466268 65.534606 
L 375.628359 65.873417 
L 375.992077 66.120507 
L 376.280679 66.326087 
L 376.640444 66.639596 
L 376.816372 66.818885 
L 377.016022 67.222533 
L 377.433111 67.477728 
L 377.656481 67.690424 
L 377.976711 67.979817 
L 378.178337 68.210106 
L 378.350313 68.574219 
L 378.717984 68.834949 
L 379.002633 69.072947 
L 379.314956 69.381712 
L 379.532396 69.618524 
L 379.737975 70.049451 
L 380.196576 70.350309 
L 380.414016 70.616574 
L 380.783664 70.93285 
L 380.896337 71.13922 
L 381.068313 71.525473 
L 381.487379 71.83661 
L 381.722609 72.075201 
L 382.07842 72.441686 
L 382.248419 72.674742 
L 382.450045 73.129982 
L 382.867135 73.43855 
L 383.092481 73.69928 
L 383.454223 74.072486 
L 383.608407 74.326693 
L 383.770499 74.731922 
L 384.134217 75.046815 
L 384.428749 75.337591 
L 384.77863 75.737286 
L 384.952582 75.992086 
L 385.138394 76.467686 
L 385.502112 76.78337 
L 385.759087 77.041728 
L 386.091177 77.465538 
L 386.290826 77.725083 
L 386.496406 78.269671 
L 386.911519 78.623307 
L 387.136865 78.918828 
L 387.4907 79.339476 
L 387.642908 79.629264 
L 387.793139 80.064144 
L 388.14895 80.423908 
L 388.447436 80.754219 
L 388.785456 81.202937 
L 388.965338 81.49312 
L 389.125453 81.999162 
L 389.481264 82.366241 
L 389.775796 82.713354 
L 390.11184 83.175315 
L 390.283815 83.480126 
L 390.445907 84.001192 
L 390.853113 84.419863 
L 391.09032 84.740685 
L 391.463921 85.261158 
L 391.590432 85.535527 
L 391.74857 86.07043 
L 392.155776 86.502345 
L 392.387053 86.836214 
L 392.754724 87.373686 
L 392.879258 87.659521 
L 393.033443 88.206877 
L 393.438672 88.654012 
L 393.667972 89.000137 
L 394.029713 89.555202 
L 394.152271 89.851316 
L 394.300525 90.410137 
L 394.646452 90.825843 
L 394.929124 91.231862 
L 395.241447 91.754509 
L 395.403539 92.111308 
L 395.591328 92.766 
L 396.64097 94.505718 
L 396.763527 95.015516 
L 397.097594 95.466012 
L 397.382243 95.897532 
L 397.718287 96.509329 
L 397.844797 96.83371 
L 398.000959 97.508169 
L 399.034787 99.436269 
L 399.167228 99.976311 
L 399.548736 100.49026 
L 399.758269 100.900035 
L 400.048848 101.480205 
L 400.187219 101.889981 
L 400.303846 102.508301 
L 400.675471 103.04854 
L 400.890934 103.465432 
L 401.236861 104.183577 
L 401.31593 104.5554 
L 401.408836 105.103348 
L 401.772554 105.671064 
L 401.991971 106.095072 
L 402.83208 108.356251 
L 403.06138 108.788759 
L 403.377657 109.551775 
L 403.468586 109.932295 
L 403.595097 110.679696 
L 404.494508 112.714934 
L 404.591367 113.46194 
L 405.480895 115.712641 
L 405.589615 116.405089 
L 406.429724 118.613093 
L 406.504839 119.303564 
L 406.834953 119.916943 
L 407.010881 120.404008 
L 407.599946 122.748604 
L 407.882618 123.395587 
L 408.113895 124.164929 
L 408.194941 124.668204 
L 408.244359 125.371919 
L 408.552729 126.018902 
L 408.722727 126.523363 
L 408.971795 127.376914 
L 409.009353 127.820096 
L 409.033073 128.430707 
L 409.276211 129.032818 
L 409.505511 129.622673 
L 409.752602 130.570119 
L 409.772369 131.025754 
L 409.825741 131.763271 
L 410.503759 134.112612 
L 410.541316 135.034557 
L 411.177823 137.333491 
L 411.20352 138.353285 
L 411.794561 140.52551 
L 411.972467 142.123101 
L 412.162233 142.754468 
L 412.328278 143.678786 
L 412.334208 144.241362 
L 412.340138 145.007739 
L 412.871878 147.417568 
L 412.865948 148.56743 
L 413.196061 150.007278 
L 413.285014 151.147059 
L 413.261293 151.814798 
L 413.482687 152.544605 
L 413.587453 153.025543 
L 413.721871 154.146347 
L 413.656639 154.753796 
L 413.662569 155.448022 
L 414.065821 157.75763 
L 414.109309 159.426581 
L 414.25361 160.099064 
L 414.316865 160.980091 
L 414.314889 161.568761 
L 414.23582 162.445241 
L 414.45326 163.264793 
L 414.488841 163.864334 
L 414.597561 166.690461 
L 414.678607 167.278537 
L 414.646979 170.0082 
L 414.801164 170.899902 
L 414.726048 173.642808 
L 414.862442 174.537475 
L 414.880233 175.614199 
L 414.761629 176.235682 
L 414.690467 176.94078 
L 414.848605 179.434224 
L 414.664769 180.720678 
L 414.771513 182.144119 
L 414.645002 186.323909 
L 414.575817 186.932544 
L 414.393958 187.811594 
L 414.516515 188.666331 
L 414.482911 189.275558 
L 414.216052 191.95007 
L 414.271401 192.753215 
L 414.192332 193.837647 
L 414.034193 194.452409 
L 413.897799 195.147031 
L 413.830591 197.746625 
L 413.561756 198.927918 
L 413.541988 200.458695 
L 413.27513 201.862765 
L 413.16641 202.575573 
L 413.134783 203.995258 
L 412.761181 205.725092 
L 412.729553 206.437505 
L 412.741414 207.23887 
L 412.221535 210.050369 
L 412.213628 210.842839 
L 411.65026 213.533758 
L 411.630493 214.424866 
L 411.458518 215.39544 
L 411.268752 215.981935 
L 411.053289 216.635045 
L 411.059219 217.401422 
L 410.990033 217.980999 
L 410.361434 220.533349 
L 410.32783 221.422283 
L 410.108413 222.462437 
L 409.881089 223.041421 
L 409.651789 223.817088 
L 409.471907 225.287536 
L 409.019236 226.724933 
L 408.878889 227.412993 
L 408.768192 228.464394 
L 408.58831 229.227984 
L 408.38866 229.789078 
L 408.100058 230.51347 
L 407.613783 233.032591 
L 407.238205 233.923205 
L 406.836929 236.092782 
L 406.564141 236.647867 
L 406.332864 237.291272 
L 406.048215 238.797756 
L 405.6588 239.87863 
L 405.407756 240.502228 
L 404.925434 242.690708 
L 404.387764 244.100712 
L 404.273114 244.814046 
L 403.998349 245.607955 
L 403.780909 246.130674 
L 403.413238 246.900064 
L 402.994172 248.622841 
L 402.760918 249.227502 
L 402.377433 249.970989 
L 401.746857 252.204691 
L 401.280349 253.099101 
L 400.750586 254.995415 
L 400.454077 255.485584 
L 400.173382 256.066228 
L 399.67327 257.784972 
L 399.441993 258.270536 
L 399.042694 258.979548 
L 398.338979 261.085079 
L 397.880378 261.8375 
L 397.202361 263.846527 
L 396.625156 264.936574 
L 396.441321 265.647405 
L 396.09144 266.419712 
L 395.800861 266.861115 
L 395.486561 267.381785 
L 394.68401 269.431059 
L 394.25506 270.065588 
L 393.484137 272.012269 
L 392.968211 272.784972 
L 392.543215 273.91052 
L 391.598339 275.897724 
L 391.353225 276.298802 
L 390.384628 277.934939 
L 390.10591 278.70527 
L 389.777773 279.334462 
L 389.467427 279.714192 
L 389.14522 280.188408 
L 388.36639 281.881871 
L 387.799069 282.650818 
L 387.474886 283.45416 
L 386.508266 284.872264 
L 386.093153 285.792826 
L 385.112697 287.358987 
L 384.942698 287.783983 
L 384.539446 288.396373 
L 384.254797 288.72787 
L 383.869335 289.215134 
L 383.404804 290.149533 
L 382.448068 291.633462 
L 382.28993 291.964959 
L 381.908422 292.484047 
L 381.657377 292.80408 
L 381.252148 293.227099 
L 381.086103 293.775443 
L 380.886454 294.02293 
L 380.560294 294.489635 
L 380.295412 294.788714 
L 379.896113 295.218257 
L 379.301119 296.257027 
L 378.986819 296.667395 
L 378.583567 297.069462 
L 377.769155 298.414625 
L 377.229508 298.933318 
L 376.707652 299.783706 
L 376.193703 300.352608 
L 375.88138 300.73293 
L 375.541383 301.336623 
L 375.234991 301.752526 
L 374.950342 301.993687 
L 374.608368 302.327161 
L 373.896746 303.428 
L 373.647679 303.616975 
L 373.305705 303.933647 
L 372.536758 305.065917 
L 371.935833 305.614063 
L 371.639324 306.096187 
L 371.348745 306.425905 
L 371.115491 306.650263 
L 370.716192 306.967726 
L 369.919571 308.044647 
L 369.391785 308.459167 
L 369.018183 308.998615 
L 368.118772 309.827457 
L 367.745171 310.341406 
L 366.85762 311.138225 
L 366.482042 311.625488 
L 365.576701 312.449981 
L 365.32961 312.793932 
L 365.037055 313.059802 
L 364.831475 313.239091 
L 364.44206 313.476693 
L 363.641485 314.370569 
L 363.214512 314.620625 
L 362.463356 315.448083 
L 361.998825 315.710198 
L 361.556038 316.191728 
L 360.694185 317.010884 
L 360.54593 317.099244 
L 360.249421 317.308184 
L 360.028028 317.473438 
L 359.654426 317.677832 
L 359.1385 318.182293 
L 358.80048 318.410012 
L 358.48618 318.608673 
L 358.102695 318.983065 
L 357.27247 319.624315 
L 357.136076 319.761105 
L 356.839567 319.92715 
L 356.596429 320.078765 
L 356.278176 320.226229 
L 355.592252 320.832491 
L 355.20086 320.964734 
L 354.491215 321.551624 
L 354.143311 321.657379 
L 353.366457 322.221339 
L 353.060064 322.340536 
L 352.439372 322.838276 
L 352.038096 322.940473 
L 351.403567 323.41469 
L 351.035895 323.496526 
L 350.347994 323.937929 
L 350.055439 324.009685 
L 349.339863 324.417483 
L 349.049284 324.511773 
L 348.68952 324.727632 
L 347.376973 325.250674 
L 347.127905 325.391812 
L 346.967791 325.485509 
L 346.722676 325.588892 
L 346.566515 325.606683 
L 346.28582 325.67231 
L 345.991287 325.819971 
L 345.323153 326.122213 
L 345.317223 326.148108 
L 345.240131 326.113911 
L 345.012807 326.155224 
L 344.821065 326.195154 
L 344.55223 326.249317 
L 344.271535 326.35942 
L 341.63458 326.925357 
L 341.383536 326.938008 
L 341.136445 326.988613 
L 339.45425 327.088437 
L 339.21902 327.110774 
L 339.068788 327.105437 
L 338.529142 327.125205 
L 338.517281 327.184506 
L 338.436236 327.086263 
L 337.955891 327.029729 
L 337.754265 327.014112 
L 336.603809 326.820591 
L 336.119511 326.750417 
L 336.111604 326.801021 
L 336.060209 326.683801 
L 335.609516 326.562035 
L 335.566028 326.631023 
L 335.508703 326.500361 
L 335.046148 326.408443 
L 335.052079 326.43671 
L 334.97894 326.289642 
L 334.099296 325.874134 
L 333.90953 325.789925 
L 333.883833 325.811867 
L 333.879879 325.72074 
L 333.860112 325.693263 
L 333.648602 325.649182 
L 333.632788 325.68417 
L 333.624881 325.551532 
L 333.215699 325.358603 
L 333.213722 325.386871 
L 333.191978 325.231104 
L 332.474426 324.62504 
L 332.310358 324.498727 
L 332.27873 324.514738 
L 332.302451 324.429542 
L 332.290591 324.398705 
L 332.100825 324.305996 
L 332.079081 324.333275 
L 332.104778 324.196485 
L 331.758851 323.916778 
L 331.748967 323.934371 
L 331.768735 323.774849 
L 331.361529 323.230459 
L 331.254785 323.064611 
L 331.159903 323.068565 
L 331.213274 322.955298 
L 331.078857 322.830369 
L 331.047229 322.838869 
L 331.094671 322.754463 
L 331.08874 322.721451 
L 330.922695 322.591185 
L 330.898975 322.608383 
L 330.96223 322.496698 
L 330.813975 322.35635 
L 330.796185 322.363071 
L 330.845603 322.25356 
L 330.689441 322.106492 
L 330.661767 322.120526 
L 330.730953 322.016155 
L 330.588628 321.860982 
L 330.568861 321.867901 
L 330.624209 321.764122 
L 330.501652 321.60638 
L 330.444327 321.611124 
L 330.515489 321.546485 
L 330.519443 321.514066 
L 330.408746 321.350393 
L 330.363281 321.346242 
L 330.42456 321.252941 
L 330.317817 321.083535 
L 330.252585 321.080768 
L 330.329677 320.990234 
L 330.232817 320.815886 
L 330.179446 320.80877 
L 330.244678 320.72041 
L 330.151772 320.540528 
L 330.084563 320.529459 
L 330.161655 320.44525 
L 330.076656 320.261217 
L 330.019331 320.247577 
L 330.088516 320.166531 
L 330.009447 319.977556 
L 329.936308 319.960952 
L 330.017354 319.879313 
L 329.942239 319.686384 
L 329.88096 319.665826 
L 329.952122 319.591699 
L 329.88689 319.394817 
L 329.811775 319.368329 
L 329.89282 319.292423 
L 329.829565 319.091983 
L 329.764333 319.063913 
L 329.837472 318.996111 
L 329.786077 318.792311 
L 329.707008 318.755741 
L 329.788054 318.684777 
L 329.740612 318.478011 
L 329.66945 318.44243 
L 329.744566 318.379768 
L 329.707008 318.170432 
L 329.625962 318.123189 
L 329.707008 318.05677 
L 329.66945 317.84447 
L 329.683287 317.711436 
L 329.625962 317.504868 
L 329.56666 317.470671 
L 329.643753 317.408404 
L 329.641776 317.222789 
L 329.643753 317.019384 
L 329.568637 316.821711 
L 329.525149 316.798188 
L 329.604218 316.739875 
L 329.594335 316.51947 
L 329.602241 316.379517 
L 329.576544 316.159903 
L 329.507359 316.105938 
L 329.584451 316.051183 
L 329.588404 315.828208 
L 329.592358 315.683314 
L 329.580497 315.458955 
L 329.602241 315.313468 
L 329.580497 315.086342 
L 329.515265 315.030006 
L 329.602241 314.967146 
L 329.606195 314.739031 
L 329.623985 314.586428 
L 329.618055 314.354953 
L 329.546893 314.288535 
L 329.631892 314.231013 
L 329.65166 314.000526 
L 329.665497 313.839225 
L 329.671427 313.604588 
L 329.598288 313.527495 
L 329.681311 313.474914 
L 329.728752 313.28159 
L 329.746543 313.040232 
L 329.728752 312.803222 
L 329.67538 312.744316 
L 329.750496 312.698851 
L 329.801891 312.466783 
L 329.807821 312.285715 
L 329.839449 312.04752 
L 329.865146 311.87594 
L 329.890844 311.634186 
L 329.906657 311.479013 
L 329.963983 311.282921 
L 329.99561 311.02911 
L 330.00154 310.783995 
L 330.025261 310.652543 
L 330.08654 310.415534 
L 330.124097 310.196314 
L 330.145841 309.947049 
L 330.187353 309.77962 
L 330.236771 309.571076 
L 330.270375 309.343752 
L 330.319793 309.130463 
L 330.369212 308.882779 
L 330.381072 308.626595 
L 330.406769 308.498306 
L 330.499676 308.303796 
L 330.590605 307.873067 
L 330.687465 307.147213 
L 330.794208 306.924435 
L 330.8713 306.596101 
L 330.885137 306.335766 
L 330.922695 306.199965 
L 331.015601 305.955839 
L 331.063043 305.702423 
L 331.130252 305.437739 
L 331.175716 305.228799 
L 331.252809 305.015115 
L 331.325948 304.715838 
L 331.381296 304.485747 
L 331.420831 304.264156 
L 331.507807 304.006193 
L 331.547341 303.776497 
L 331.652108 303.562615 
L 331.73513 303.214316 
L 331.762804 302.936191 
L 331.814199 302.781808 
L 331.932803 302.524834 
L 332.013849 302.211918 
L 332.059313 301.930629 
L 332.092918 301.765968 
L 332.225359 301.565923 
L 332.425008 300.704465 
L 332.545588 300.436026 
L 332.614774 300.143668 
L 332.69582 299.862775 
L 332.737331 299.647509 
L 332.875702 299.385791 
L 332.966631 299.043026 
L 333.02791 298.752052 
L 333.063491 298.568414 
L 333.217676 298.315788 
L 333.356047 297.873397 
L 333.361977 297.583608 
L 333.405465 297.466784 
L 333.575463 297.225623 
L 333.792903 296.322456 
L 333.954995 296.061133 
L 334.081505 295.644637 
L 334.123017 295.340023 
L 334.160575 295.177931 
L 334.336503 294.928864 
L 334.611268 293.96086 
L 334.743709 293.720886 
L 334.905801 293.235994 
L 334.903824 292.899555 
L 334.969056 292.800917 
L 335.150915 292.546314 
L 335.407889 291.566846 
L 335.571958 291.350197 
L 335.900095 290.275252 
L 336.028582 290.018871 
L 336.184743 289.55434 
L 336.224278 289.231145 
L 336.253929 289.075379 
L 336.455555 288.836195 
L 337.354966 286.288786 
L 337.416244 285.921511 
L 337.499267 285.749535 
L 337.637638 285.446305 
L 337.736474 285.065785 
L 337.890659 284.807427 
L 338.102169 284.18713 
L 338.529142 282.948117 
L 338.616118 282.606144 
L 338.671466 282.349762 
L 338.875069 282.065311 
L 339.307972 280.805147 
L 339.406809 280.455464 
L 339.499715 280.173978 
L 339.634132 279.847423 
L 339.709248 279.477775 
L 339.906921 279.167824 
L 340.237034 278.004125 
L 340.416916 277.74636 
L 340.85575 276.417406 
L 340.974353 276.054874 
L 341.061329 275.748284 
L 341.205631 275.416193 
L 341.312374 274.981116 
L 341.482372 274.705758 
L 341.897485 273.387874 
L 342.037833 273.084248 
L 342.209808 272.551323 
L 342.278993 272.17614 
L 342.320505 271.924305 
L 342.547828 271.634121 
L 342.792943 270.448282 
L 342.868058 270.327702 
L 343.095382 270.029414 
L 343.336543 268.828947 
L 343.417588 268.7056 
L 343.644912 268.400195 
L 343.892003 267.220682 
L 343.967119 267.058195 
L 344.192465 266.746861 
L 344.439556 265.551138 
L 344.516649 265.385686 
L 344.743972 265.069015 
L 344.98711 263.856925 
L 345.066179 263.687757 
L 345.293503 263.367112 
L 345.53664 262.137765 
L 345.613732 261.965019 
L 345.843033 261.641053 
L 346.568492 259.198826 
L 346.659421 258.792471 
L 346.698956 258.444369 
L 346.932209 258.117082 
L 347.171393 256.832704 
L 347.236625 256.64699 
L 347.469879 256.319585 
L 347.734761 255.125385 
L 347.770342 254.825139 
L 348.003596 254.498564 
L 348.276384 253.355383 
L 348.335686 252.943631 
L 348.555103 252.580882 
L 349.019633 250.858381 
L 349.114516 250.433286 
L 349.197539 250.089217 
L 349.328003 249.689701 
L 349.409049 249.139637 
L 349.612652 248.748245 
L 349.911137 247.22401 
L 350.120671 246.835682 
L 350.53183 245.121537 
L 350.644503 244.682026 
L 350.763107 244.20215 
L 350.850083 243.765973 
L 350.889617 243.324437 
L 351.109034 242.946139 
L 351.29287 241.550032 
L 351.330428 241.37782 
L 351.585425 240.970041 
L 351.787052 239.603984 
L 351.794959 239.371738 
L 352.069724 238.895307 
L 352.678556 236.078135 
L 352.725997 235.621372 
L 352.749718 235.22492 
L 352.967158 234.84353 
L 353.143087 233.438136 
L 353.170761 233.159596 
L 353.392154 232.789631 
L 353.599711 231.505292 
L 353.615524 231.03408 
L 353.825057 230.637727 
L 353.971335 229.213396 
L 353.975289 228.971207 
L 354.218426 228.548899 
L 354.412145 227.322874 
L 354.455633 226.720031 
L 354.631562 226.280664 
L 354.849002 224.533257 
L 355.005164 224.078016 
L 355.187023 222.388112 
L 355.355044 221.941174 
L 355.582368 220.106178 
L 355.695041 219.63038 
L 355.774111 219.01285 
L 355.809692 218.53468 
L 355.805738 218.050184 
L 355.993527 217.628944 
L 356.08841 216.214793 
L 356.08841 215.85918 
L 356.297943 215.370928 
L 356.489686 213.426422 
L 356.580615 213.019809 
L 356.649801 212.314315 
L 356.657708 211.828633 
L 356.624103 211.396125 
L 356.825729 210.905897 
L 356.827706 209.36741 
L 356.845497 209.171121 
L 357.053053 208.701846 
L 357.126192 207.332962 
L 357.07282 206.894129 
L 357.254679 206.48969 
L 357.353516 205.27934 
L 357.38119 204.427173 
L 357.462236 203.93734 
L 357.503747 203.298462 
L 357.503747 202.807838 
L 357.462236 202.314051 
L 357.624327 201.876009 
L 357.59863 200.364208 
L 357.567002 200.108617 
L 357.768628 199.561459 
L 357.695489 198.007356 
L 357.70142 197.808695 
L 357.891185 197.243153 
L 357.790372 195.703085 
L 357.81014 195.505017 
L 357.982115 195.008067 
L 357.908976 193.496859 
L 357.873395 193.243838 
L 358.057231 192.686006 
L 357.912929 191.093752 
L 357.960371 190.890545 
L 358.100719 190.449932 
L 358.031533 188.996049 
L 357.970255 188.63332 
L 358.124439 188.129057 
L 358.031533 186.684267 
L 357.962348 186.375304 
L 358.120486 185.896145 
L 358.063161 184.514215 
L 357.972231 184.026557 
L 358.096765 183.5812 
L 358.013743 182.205991 
L 357.910953 181.780006 
L 358.04537 181.356591 
L 357.990022 180.058079 
L 357.877348 179.433433 
L 357.970255 178.967519 
L 357.869441 176.839967 
L 357.790372 176.204845 
L 357.711303 175.326189 
L 357.634211 174.977692 
L 357.748861 174.466115 
L 357.497817 172.94957 
L 357.480026 172.758223 
L 357.59863 172.187344 
L 357.343632 169.285311 
L 357.317935 168.811885 
L 357.187471 168.140983 
L 357.225028 167.663801 
L 357.153866 166.890308 
L 357.037239 166.41787 
L 356.918636 166.073722 
L 357.021425 165.582703 
L 356.792125 164.189703 
L 356.693289 163.855439 
L 356.780265 163.351373 
L 356.525267 161.977943 
L 356.426431 161.698434 
L 356.52329 161.217101 
L 356.309804 159.904752 
L 356.175386 159.459988 
L 356.238641 159.01562 
L 355.888761 157.56312 
L 355.867017 157.338762 
L 355.938179 156.912382 
L 355.704925 155.618416 
L 355.556671 155.18235 
L 355.612019 154.744703 
L 355.273999 153.357831 
L 355.192953 153.141182 
L 355.272022 152.675662 
L 355.017024 151.403441 
L 354.860863 150.977258 
L 354.89249 150.46746 
L 354.744236 149.588805 
L 354.546563 149.183774 
L 354.461564 148.973647 
L 354.520865 148.435187 
L 354.139357 146.580819 
L 354.0168 146.092567 
L 353.971335 145.710664 
L 353.866569 145.260365 
L 353.688663 144.791683 
L 353.704477 144.355024 
L 353.115412 141.815127 
L 353.036343 141.316794 
L 352.836694 140.732276 
L 352.801113 140.290082 
L 352.664719 139.678878 
L 352.522394 139.2438 
L 352.360303 138.856164 
L 352.370186 138.434133 
L 351.909609 137.140563 
L 351.870074 136.98618 
L 351.903679 136.530347 
L 351.441124 135.237963 
L 351.39566 135.047011 
L 351.423334 134.649491 
L 351.041825 133.443885 
L 350.895548 133.176236 
L 350.929152 132.791763 
L 350.593108 131.650598 
L 350.413226 131.232125 
L 350.389505 130.81464 
L 350.201716 130.108751 
L 350.049508 129.769742 
L 349.877533 129.464535 
L 349.895324 129.074922 
L 349.448583 127.876828 
L 349.349747 127.668283 
L 349.371491 127.289542 
L 348.970215 126.143633 
L 348.827891 125.851671 
L 348.821961 125.457907 
L 348.308012 123.86249 
L 348.171617 123.487505 
L 348.080688 123.181508 
L 347.985805 122.783988 
L 347.756505 122.281504 
L 347.685343 121.881216 
L 347.523251 121.357779 
L 347.359183 120.969154 
L 347.177324 120.692808 
L 347.183254 120.322962 
L 346.718723 119.21046 
L 346.619887 119.023659 
L 346.604073 118.59471 
L 346.084193 117.224047 
L 345.985357 116.841155 
L 345.845009 116.46103 
L 345.730359 116.078138 
L 345.518849 115.609061 
L 345.420013 115.230122 
L 345.273735 114.800777 
L 345.166992 114.479757 
L 344.951529 114.019179 
L 344.854669 113.644194 
L 344.708391 113.280081 
L 344.599671 112.906282 
L 344.382231 112.453809 
L 344.285372 112.08337 
L 344.139094 111.726966 
L 344.030374 111.357713 
L 343.814911 110.913147 
L 343.714097 110.547453 
L 343.56782 110.144398 
L 343.461076 109.834052 
L 343.245613 109.397195 
L 343.1448 109.036245 
L 343.000499 108.695457 
L 342.893756 108.334704 
L 342.680269 107.905755 
L 342.573526 107.549944 
L 342.431201 107.162901 
L 342.284924 106.809462 
L 342.101088 106.54201 
L 342.067484 106.192327 
L 341.549581 105.050174 
L 341.472489 104.697922 
L 341.30842 104.278065 
L 341.152259 103.935498 
L 340.984237 103.679709 
L 340.942726 103.335166 
L 340.7411 102.812914 
L 340.592845 102.534789 
L 340.434707 102.28414 
L 340.383312 101.942166 
L 340.171802 101.369113 
L 339.950409 101.09672 
L 339.87727 100.954593 
L 339.859479 100.626852 
L 339.349484 99.395351 
L 339.161695 99.079667 
L 339.11623 98.844239 
L 339.01937 98.561369 
L 338.821697 98.183617 
L 338.709024 97.860422 
L 338.58449 97.579134 
L 338.479724 97.250206 
L 338.291935 96.930965 
L 338.206935 96.604212 
L 338.058681 96.236145 
L 337.947984 95.962171 
L 337.774032 95.647871 
L 337.681126 95.327444 
L 337.546708 95.016307 
L 337.424151 94.69667 
L 337.26206 94.435544 
L 337.192874 94.115314 
L 337.040666 93.766817 
L 336.906249 93.453902 
L 336.763924 93.195939 
L 336.682879 92.880453 
L 336.544508 92.538281 
L 336.402183 92.233272 
L 336.267766 92.023146 
L 336.242068 91.759649 
L 335.799281 90.777215 
L 335.692538 90.477346 
L 335.583818 90.238557 
L 335.494865 89.932164 
L 335.334751 89.597702 
L 335.21417 89.308704 
L 335.123241 89.072683 
L 335.056032 88.81472 
L 334.880103 88.437165 
L 334.747663 88.16161 
L 334.67057 87.969274 
L 334.593478 87.670195 
L 334.437316 87.348384 
L 334.324643 87.064526 
L 334.23569 86.842935 
L 334.178365 86.5911 
L 334.010343 86.226394 
L 333.881856 85.956373 
L 333.808717 85.77649 
L 333.743485 85.484726 
L 333.593254 85.173984 
L 333.486511 84.896451 
L 333.403488 84.688302 
L 333.320465 84.398514 
L 333.191978 84.138179 
L 333.101049 83.856298 
L 333.012096 83.617114 
L 332.911283 83.333058 
L 332.802563 83.118583 
L 332.733377 82.834923 
L 332.628611 82.606018 
L 332.551519 82.322555 
L 332.434892 82.071115 
L 332.347916 81.796943 
L 332.26094 81.61034 
L 332.205591 81.331029 
L 332.083034 81.039857 
L 331.978268 80.779126 
L 331.916989 80.593512 
L 331.84385 80.316572 
L 331.745014 80.072842 
L 331.654084 79.807169 
L 331.582922 79.631834 
L 331.529551 79.357859 
L 331.426761 79.07499 
L 331.318041 78.824538 
L 331.264669 78.684784 
L 331.229088 78.416344 
L 331.120368 78.140393 
L 331.027462 77.884802 
L 330.972113 77.71935 
L 330.918742 77.450911 
L 330.829789 77.221017 
L 330.754673 76.962066 
L 330.689441 76.804916 
L 330.655837 76.540628 
L 330.564908 76.272188 
L 330.497699 76.055341 
L 330.434444 75.870912 
L 330.381072 75.608205 
L 330.30398 75.425753 
L 330.258515 75.165023 
L 330.199213 74.950351 
L 330.124097 74.694957 
L 330.066772 74.549668 
L 330.060842 74.328274 
L 329.98375 73.997766 
L 329.855263 73.781907 
L 329.795961 73.757593 
L 329.849332 73.687222 
L 329.835495 73.43084 
L 329.776193 73.193238 
L 329.695148 72.94753 
L 329.667473 72.804613 
L 329.629916 72.552185 
L 329.588404 72.35728 
L 329.525149 72.109596 
L 329.487591 71.972806 
L 329.487591 71.757936 
L 329.432243 71.495031 
L 329.347244 71.260987 
L 329.272128 71.222836 
L 329.33143 71.154441 
L 329.323523 70.905769 
L 329.285965 70.688527 
L 329.218756 70.451319 
L 329.135734 70.408622 
L 329.208873 70.315913 
L 329.177245 70.072183 
L 329.143641 69.930649 
L 329.13178 69.686326 
L 329.110036 69.489048 
L 329.050735 69.257376 
L 328.981549 69.210132 
L 329.036897 69.148656 
L 329.058641 68.946634 
L 329.028991 68.630358 
L 328.90841 68.439802 
L 328.89655 68.43229 
L 328.969689 68.349663 
L 328.949921 68.110479 
L 328.942015 67.955503 
L 328.912364 67.721261 
L 328.833295 67.668087 
L 328.904457 67.59653 
L 328.920271 67.394706 
L 328.906433 67.171138 
L 328.851085 66.950733 
L 328.791783 66.917722 
L 328.860969 66.856641 
L 328.874806 66.622794 
L 328.876783 66.439947 
L 328.835271 66.217169 
L 328.773993 66.180798 
L 328.860969 66.09995 
L 328.851085 65.869068 
L 328.772016 65.817475 
L 328.853062 65.755801 
L 328.862945 65.52492 
L 328.862945 65.389118 
L 328.868876 65.15962 
L 328.886666 65.017494 
L 328.870852 64.792542 
L 328.803644 64.748461 
L 328.886666 64.691136 
L 328.90841 64.464603 
L 328.922247 64.326232 
L 328.922247 64.102071 
L 328.851085 64.053444 
L 328.953875 63.976944 
L 328.953875 63.75476 
L 328.89062 63.711075 
L 328.981549 63.648808 
L 328.997363 63.425635 
L 328.922247 63.372461 
L 329.025037 63.308218 
L 329.040851 63.086824 
L 328.973642 63.037604 
L 329.062595 62.98443 
L 329.092246 62.764025 
L 329.01713 62.705118 
L 329.115967 62.652933 
L 329.149571 62.433911 
L 329.084339 62.377772 
L 329.193059 62.304633 
L 329.197012 62.089565 
L 329.135734 62.05181 
L 329.232593 62.011287 
L 329.280035 61.795626 
L 329.323523 61.670104 
L 329.339337 61.455826 
L 329.280035 61.413129 
L 329.396662 61.356595 
L 329.420383 61.143701 
L 329.372941 61.101004 
L 329.475731 61.049609 
L 329.507359 60.837111 
L 329.44608 60.788681 
L 329.56073 60.744995 
L 329.602241 60.533881 
L 329.550847 60.48466 
L 329.649683 60.442951 
L 329.697124 60.233418 
L 329.633869 60.180442 
L 329.744566 60.147431 
L 329.805844 59.939677 
L 329.754449 59.883538 
L 329.849332 59.850526 
L 329.912588 59.64554 
L 329.849332 59.585249 
L 329.956076 59.564098 
L 330.033168 59.361089 
L 329.981773 59.296845 
L 330.100377 59.24881 
L 330.139911 59.044615 
L 330.088516 59.00508 
L 330.21898 58.972464 
L 330.276305 58.769652 
L 330.236771 58.725373 
L 330.347468 58.688013 
L 330.402816 58.48698 
L 330.351421 58.440329 
L 330.475955 58.420957 
L 330.551071 58.221703 
L 330.513513 58.169517 
L 330.618279 58.142239 
L 330.693395 57.945357 
L 330.640023 57.891392 
L 330.758627 57.884276 
L 330.851533 57.690754 
L 330.815952 57.630069 
L 330.914788 57.611487 
L 331.003741 57.420733 
L 330.948393 57.360641 
L 331.063043 57.36242 
L 331.175716 57.177003 
L 331.262692 57.076585 
L 331.331878 56.884842 
L 331.28839 56.843331 
L 331.426761 56.83918 
L 331.521644 56.648821 
L 331.491993 56.599403 
L 331.60862 56.580229 
L 331.695596 56.39323 
L 331.652108 56.343021 
L 331.778618 56.351917 
L 331.895245 56.16986 
L 331.871524 56.109372 
L 331.976291 56.099686 
L 332.083034 55.919409 
L 332.041523 55.860305 
L 332.15815 55.88106 
L 332.294544 55.70612 
L 332.270823 55.63733 
L 332.367683 55.635155 
L 332.492217 55.464564 
L 332.458612 55.395971 
L 332.559425 55.425029 
L 332.715587 55.263135 
L 332.818377 55.174183 
L 332.927097 54.999045 
L 332.891516 54.949231 
L 332.986399 54.9858 
L 333.023956 54.976312 
L 333.166281 54.809279 
L 333.152444 54.746023 
L 333.259187 54.747012 
L 333.387674 54.581164 
L 333.358023 54.520677 
L 333.47465 54.558827 
L 333.636742 54.403259 
L 333.727671 54.337039 
L 333.871972 54.183249 
L 333.848252 54.112285 
L 333.949065 54.157749 
L 334.130924 54.017402 
L 334.251504 53.936158 
L 334.385921 53.776636 
L 334.360224 53.722672 
L 334.449177 53.774462 
L 334.488711 53.770904 
L 334.660687 53.622254 
L 334.765453 53.56572 
L 334.921615 53.419442 
L 334.901847 53.353419 
L 335.010567 53.409558 
L 335.204287 53.278699 
L 335.340681 53.206944 
L 335.484982 53.055922 
L 335.465215 53.005515 
L 335.560097 53.066596 
L 335.771607 52.955702 
L 335.943583 52.868726 
L 336.07207 52.696157 
L 336.058233 52.678564 
L 336.212417 52.741424 
L 336.394276 52.599298 
L 336.402183 52.545333 
L 336.495089 52.569251 
L 336.678925 52.451043 
L 336.678925 52.37573 
L 336.767878 52.443729 
L 336.993225 52.351021 
L 337.145433 52.279463 
L 337.329268 52.130616 
L 337.317408 52.09286 
L 337.428105 52.170348 
L 337.655428 52.068942 
L 337.781939 52.015175 
L 337.977635 51.912385 
L 337.985542 51.835293 
L 338.076471 51.913176 
L 338.315655 51.840037 
L 338.519258 51.770654 
L 338.68728 51.622004 
L 338.679373 51.602039 
L 338.786116 51.687631 
L 339.0253 51.608562 
L 339.203206 51.558353 
L 339.400879 51.425319 
L 339.396925 51.393889 
L 339.479948 51.479086 
L 339.732969 51.431842 
L 339.879247 51.361471 
L 339.879247 51.361471 
" clip-path="url(#p55a90c203e)" style="fill: none; stroke: #ff0000; stroke-width: 1.5; stroke-linecap: square"/>
   </g>
  </g>
 </g>
 <defs>
  <clipPath id="p55a90c203e">
   <rect x="7.2" y="7.2" width="513.949091" height="434.88"/>
  </clipPath>
 </defs>
</svg>
