<?xml version="1.0" encoding="utf-8" standalone="no"?>
<!DOCTYPE svg PUBLIC "-//W3C//DTD SVG 1.1//EN"
  "http://www.w3.org/Graphics/SVG/1.1/DTD/svg11.dtd">
<svg height="280.512pt" version="1.1" viewBox="0 0 222.973081 280.512" width="222.973081pt" xmlns="http://www.w3.org/2000/svg" xmlns:xlink="http://www.w3.org/1999/xlink">
 <metadata>
  <rdf:RDF xmlns:cc="http://creativecommons.org/ns#" xmlns:dc="http://purl.org/dc/elements/1.1/" xmlns:rdf="http://www.w3.org/1999/02/22-rdf-syntax-ns#">
   <cc:Work>
    <dc:type rdf:resource="http://purl.org/dc/dcmitype/StillImage"/>
    <dc:date>2021-12-01T03:08:51.174141</dc:date>
    <dc:format>image/svg+xml</dc:format>
    <dc:creator>
     <cc:Agent>
      <dc:title>Matplotlib v3.4.3, https://matplotlib.org/</dc:title>
     </cc:Agent>
    </dc:creator>
   </cc:Work>
  </rdf:RDF>
 </metadata>
 <defs>
  <style type="text/css">*{stroke-linecap:butt;stroke-linejoin:round;}</style>
 </defs>
 <g id="figure_1">
  <g id="patch_1">
   <path d="M 0 280.512 
L 222.973081 280.512 
L 222.973081 0 
L 0 0 
z
" style="fill:#ffffff;"/>
  </g>
  <g id="axes_1">
   <g id="line2d_1">
    <path clip-path="url(#p0f9acf2d48)" d="M 132.704024 186.812693 
L 131.947627 190.333735 
L 127.370427 188.920662 
L 123.164776 189.798362 
L 126.023608 194.257797 
L 128.234193 188.432867 
L 125.456723 185.085746 
L 119.130389 188.056484 
L 113.999198 191.197872 
L 113.080084 193.310584 
L 116.671117 184.761647 
L 117.051276 191.048049 
L 114.744221 186.395316 
L 110.328611 187.318482 
L 108.037776 196.098111 
L 110.114511 185.795111 
L 113.933702 181.393456 
L 112.420793 184.07418 
L 113.327858 177.704084 
L 117.789502 182.124854 
L 118.258358 180.592884 
L 117.233399 177.676156 
L 116.225772 184.463591 
L 119.263298 184.913185 
L 123.920164 182.645073 
L 115.963013 184.324982 
L 108.999062 188.051781 
L 107.315461 186.153552 
L 105.735047 185.740248 
L 106.480225 183.371142 
L 113.976645 183.331072 
L 114.652619 178.785102 
L 112.513786 179.416665 
L 114.788092 181.112099 
L 116.369123 179.17941 
L 117.449182 182.930956 
L 119.969332 183.434708 
L 121.242653 187.833269 
L 124.446377 179.83575 
L 128.291178 181.976097 
L 125.974284 188.558021 
L 127.228373 191.493904 
L 132.360397 190.638618 
L 127.266235 187.170114 
L 129.461311 182.372042 
L 125.422121 184.984428 
L 126.290182 188.29378 
L 127.932492 192.471131 
L 124.721725 185.561417 
L 126.462682 180.914898 
L 127.001561 180.185245 
L 133.705007 179.814587 
L 133.967432 180.020422 
L 133.546402 181.448788 
L 134.389015 179.979085 
L 130.588995 177.860288 
L 133.040032 173.319152 
L 137.820973 171.719924 
L 135.410622 172.007429 
L 138.926922 167.33303 
L 139.892703 164.210359 
L 135.163435 164.092805 
L 139.698855 155.410959 
L 142.176014 156.008306 
L 141.799286 159.197247 
L 139.679329 154.873084 
L 138.04465 154.954646 
L 141.411018 155.495301 
L 136.644754 155.424244 
L 128.563731 158.351198 
L 124.334893 157.354538 
L 120.954669 157.689281 
L 117.791031 154.810059 
L 114.347998 155.527277 
L 121.866878 151.140862 
L 114.795815 148.862231 
L 114.740205 150.662305 
L 114.480999 152.976156 
L 112.047586 155.853988 
L 108.10698 154.824425 
L 109.47005 154.79662 
L 111.440044 146.895635 
L 112.136254 150.562361 
L 110.243651 146.671959 
L 107.623016 143.467416 
L 110.11621 144.438125 
L 115.985721 140.694935 
L 109.599035 143.61293 
L 112.497257 152.188344 
L 112.357923 151.419995 
L 109.102095 153.079653 
L 107.636147 146.14984 
L 106.744528 139.00222 
L 101.514382 141.016702 
L 101.814368 136.617311 
L 100.601138 143.422774 
L 106.898384 141.862133 
L 109.721223 144.593061 
L 107.250736 151.272164 
L 106.588202 147.861092 
L 105.138936 145.414394 
L 101.720758 145.826837 
L 105.633713 145.673291 
L 109.437611 152.193287 
L 114.185801 153.363111 
L 110.187268 149.612352 
L 115.867703 145.859894 
L 117.94226 146.704243 
L 120.845348 150.47014 
L 118.668438 151.998033 
L 116.552328 146.488445 
L 118.779226 140.999092 
L 116.540124 143.770647 
L 120.631403 143.556702 
L 117.161569 146.396533 
L 114.82532 142.481261 
L 116.741403 139.49468 
L 116.465668 138.063951 
L 114.658643 132.621713 
L 119.150533 135.912142 
L 121.953352 134.99828 
L 120.775249 127.694642 
L 125.569642 129.296836 
L 118.980396 128.403056 
L 119.073605 126.718682 
L 115.724198 127.800611 
L 117.110593 126.053521 
L 113.400924 125.247481 
L 115.070623 124.875201 
L 108.237819 122.109362 
L 108.721319 125.123285 
L 111.962008 129.415935 
L 108.291112 127.207589 
L 106.325752 131.180789 
L 100.108369 128.506707 
L 101.099622 133.273589 
L 96.351894 142.854776 
L 91.335384 139.945432 
L 90.051096 140.157215 
L 89.480009 140.888181 
L 89.51044 141.185232 
L 88.919581 137.942226 
L 85.587135 141.931028 
L 85.581265 140.451331 
L 83.673524 134.432445 
L 83.173186 130.774988 
L 86.382516 126.624762 
L 91.712607 127.711017 
L 88.309104 129.968485 
L 87.352761 129.546619 
L 81.041149 123.758671 
L 81.102012 128.925947 
L 78.373864 127.856067 
L 82.211437 130.149836 
L 85.151367 133.160978 
L 83.678312 133.944156 
L 85.051268 132.581087 
L 82.360658 130.029656 
L 75.720018 129.647644 
L 74.024831 132.370076 
L 76.139876 132.110253 
L 72.719844 135.440227 
L 72.496476 128.154354 
L 76.49022 120.396257 
L 81.544268 115.991614 
L 76.027728 109.820263 
L 71.688736 117.952031 
L 70.519221 119.059293 
L 65.436133 120.874351 
L 66.524704 117.903063 
L 61.580333 111.446092 
L 68.765181 114.907059 
L 66.622486 109.564611 
L 66.666356 111.505718 
L 66.033171 108.155045 
L 66.200156 102.786799 
L 63.025736 101.845132 
L 62.920849 104.906786 
L 51.645711 103.984737 
L 53.354491 106.754592 
L 51.185999 105.373295 
L 46.213359 106.155546 
L 48.618658 106.889293 
L 53.982424 105.214033 
L 56.958037 101.240215 
L 58.356327 98.507125 
L 55.443893 99.433036 
L 56.506976 99.592298 
L 58.151032 97.616434 
L 57.953616 97.534099 
L 61.574154 100.30241 
L 65.474906 98.546979 
L 65.13522 90.279121 
L 65.896154 100.793789 
L 70.254146 106.784406 
L 66.755023 110.142649 
L 71.700013 108.816343 
L 70.84933 107.94975 
L 69.204193 103.037818 
L 64.457547 105.413149 
L 64.34509 109.511935 
L 66.58742 117.699004 
L 61.303054 118.605297 
L 62.810556 117.443351 
L 64.207455 118.913625 
L 62.314388 118.576411 
L 59.229563 115.745384 
L 58.760737 112.565557 
L 63.405277 112.17644 
L 66.431403 117.084665 
L 59.08235 117.58284 
L 56.344934 114.823026 
L 57.246747 108.83936 
L 56.811442 105.125829 
L 61.633935 105.847681 
L 64.788428 103.526107 
L 65.909902 110.13199 
L 61.509893 117.251496 
L 64.603987 112.947106 
L 66.326979 117.131934 
L 60.820634 118.173699 
L 57.092738 118.695664 
L 54.017335 115.539626 
L 49.623969 119.008472 
L 46.750462 120.212125 
L 43.754922 115.068174 
L 41.179084 117.279146 
L 39.653046 114.204052 
L 41.185572 116.141453 
L 43.439797 115.778287 
L 45.126178 120.238849 
L 44.299593 119.293165 
L 48.10519 124.582475 
L 48.709025 124.233366 
L 46.31284 121.834246 
L 44.051664 120.361655 
L 48.181036 125.53959 
L 42.78375 120.510412 
L 37.72445 123.185421 
L 45.800916 123.728394 
L 44.780931 127.112743 
L 54.040042 131.744924 
L 55.186078 134.468592 
L 50.490871 131.39736 
L 48.507438 132.396337 
L 46.189725 133.401647 
L 50.578612 139.39211 
L 52.39197 136.12686 
L 52.823413 136.338797 
L 47.23906 136.832338 
L 48.190614 131.870974 
L 46.993911 131.466564 
L 43.794312 133.552876 
L 45.929438 134.640366 
L 42.439121 139.596014 
L 39.639452 147.056133 
L 37.271381 152.049627 
L 38.717248 148.101452 
L 41.100303 151.177318 
L 46.438735 152.678486 
L 49.837914 155.359365 
L 47.097408 156.205105 
L 43.586237 155.080541 
L 47.961839 149.790305 
L 44.102331 146.404102 
L 46.87852 141.696383 
L 42.159216 133.780724 
L 41.134596 136.058274 
L 40.742853 135.151363 
L 37.841078 134.65087 
L 35.089296 129.359552 
L 32.496312 133.277605 
L 28.90327 136.532042 
L 27.547152 137.088454 
L 29.641033 137.074397 
L 32.2317 143.064396 
L 30.637384 140.979938 
L 32.184894 138.859023 
L 30.092558 139.38902 
L 29.950906 140.29346 
L 33.735803 146.734984 
L 29.776815 149.603547 
L 24.077534 152.617624 
L 26.435564 152.046692 
L 22.046986 157.41262 
L 22.764668 165.523997 
L 22.285338 166.411753 
L 29.117061 169.994446 
L 26.846462 175.408245 
L 21.086473 175.096488 
L 20.793129 173.286018 
L 16.680595 176.788091 
L 17.031557 177.046709 
L 17.031557 177.046709 
" style="fill:none;stroke:#1f77b4;stroke-linecap:square;stroke-width:1.5;"/>
   </g>
   <g id="line2d_2">
    <path clip-path="url(#p0f9acf2d48)" d="M 132.704024 186.812693 
L 127.402217 188.78244 
L 122.857436 184.777897 
L 121.06419 185.879728 
L 124.417706 179.942537 
L 124.751909 180.856569 
L 131.033476 181.689534 
L 125.729228 175.635506 
L 124.626106 171.879186 
L 127.220248 173.829686 
L 122.78692 175.105663 
L 125.457819 175.437471 
L 120.69639 176.604499 
L 124.739381 174.976864 
L 125.635201 181.415422 
L 123.988024 186.6731 
L 123.305254 184.030093 
L 127.460067 177.080261 
L 132.583833 181.157375 
L 131.728288 182.377495 
L 129.204963 186.852506 
L 128.216908 190.391338 
L 128.362591 188.775488 
L 126.076731 189.424476 
L 120.35502 184.028518 
L 118.533954 185.601391 
L 118.08921 184.91028 
L 119.476517 182.037979 
L 123.102168 185.893107 
L 121.667299 185.044054 
L 121.199725 186.705493 
L 119.568645 184.770513 
L 119.384219 185.550874 
L 123.004912 184.636647 
L 122.132232 182.543801 
L 115.946639 184.49671 
L 115.035248 186.974953 
L 121.078325 184.704893 
L 119.112501 186.574648 
L 124.151874 185.211611 
L 127.322015 187.254722 
L 122.495089 184.950181 
L 119.598659 184.746076 
L 116.704947 181.092063 
L 119.042788 179.705112 
L 115.636612 175.787847 
L 106.277557 171.003772 
L 102.960867 172.887014 
L 101.089581 176.33672 
L 100.577503 176.662349 
L 101.753969 180.061157 
L 103.759338 175.175701 
L 103.934974 180.467328 
L 101.059459 180.366241 
L 100.21202 175.561853 
L 94.798977 173.680696 
L 97.290472 169.079347 
L 101.413665 168.962257 
L 103.669435 164.168806 
L 111.685347 161.088614 
L 113.883807 167.610309 
L 113.723773 162.479798 
L 112.281149 164.305978 
L 110.547963 155.209372 
L 116.135096 158.077935 
L 120.416701 165.779495 
L 114.477601 168.882085 
L 113.319671 166.927539 
L 111.671445 170.103812 
L 113.488665 170.882356 
L 116.748508 175.751546 
L 116.992885 180.344847 
L 114.125248 173.946961 
L 117.23618 168.104777 
L 116.584149 173.600262 
L 116.260683 179.420202 
L 116.679768 178.648409 
L 115.808077 169.006745 
L 116.179275 171.208758 
L 119.26061 170.808055 
L 120.782911 172.886968 
L 115.538058 177.504088 
L 119.844209 179.117775 
L 117.598094 182.341626 
L 110.862006 180.125634 
L 113.832213 181.330153 
L 112.055619 180.401693 
L 112.450606 182.650093 
L 112.070757 178.71338 
L 111.733543 178.766395 
L 111.821901 179.394946 
L 106.573372 177.600495 
L 102.179852 179.195444 
L 97.33357 176.117477 
L 89.100005 179.886077 
L 85.882178 182.720502 
L 80.780708 181.559792 
L 74.817432 182.207621 
L 72.671648 181.696284 
L 72.280831 174.160582 
L 76.977428 175.876375 
L 76.328642 176.814104 
L 77.370562 181.034368 
L 73.855066 177.999097 
L 70.785069 180.953656 
L 69.16542 179.892781 
L 71.962308 183.294972 
L 76.410821 189.812759 
L 76.284617 193.44133 
L 76.334821 189.716321 
L 76.061867 188.045501 
L 80.386493 186.689431 
L 81.500089 187.419771 
L 75.333218 190.562633 
L 81.692098 192.905046 
L 75.90415 190.918461 
L 80.528917 185.406114 
L 75.039565 186.104788 
L 78.364905 184.954259 
L 73.575006 191.081415 
L 74.774952 195.295036 
L 78.29014 181.409057 
L 79.154725 179.864806 
L 80.948311 180.925279 
L 84.250171 182.355513 
L 87.289273 186.528044 
L 89.991623 193.95004 
L 85.174383 195.3656 
L 88.350193 187.497016 
L 90.468327 189.665963 
L 88.37321 189.376867 
L 88.016532 183.778627 
L 90.933754 189.078611 
L 92.591404 187.840227 
L 93.056522 192.462558 
L 91.33214 191.695352 
L 92.177571 195.731531 
L 88.388657 198.438469 
L 93.22706 192.031547 
L 96.24021 186.067441 
L 99.47333 182.07757 
L 95.831475 182.723854 
L 96.727573 179.861269 
L 94.575301 185.322484 
L 91.365043 187.449162 
L 86.9984 187.482812 
L 85.007243 185.695643 
L 87.088767 197.38365 
L 92.233644 186.267421 
L 98.354019 186.40725 
L 97.207984 185.694288 
L 102.947273 190.473455 
L 102.077281 190.255231 
L 99.204238 188.920229 
L 107.370608 180.811123 
L 110.146951 180.30266 
L 112.655438 177.400684 
L 113.54273 180.662999 
L 109.958494 183.121159 
L 116.427668 179.810061 
L 120.918816 184.821304 
L 113.615951 180.788416 
L 115.354081 180.835715 
L 114.086475 180.260427 
L 121.81201 183.844417 
L 117.66407 183.456612 
L 124.423406 189.662827 
L 125.360131 193.116396 
L 124.761965 200.195507 
L 125.044481 202.83355 
L 121.713688 198.743059 
L 124.337458 205.701959 
L 126.866505 207.299828 
L 136.697676 213.011003 
L 136.429341 214.77076 
L 129.673897 217.719649 
L 126.958741 219.121955 
L 124.334863 215.921892 
L 125.284114 216.120854 
L 122.339628 212.649845 
L 121.564729 213.583944 
L 122.292004 213.119752 
L 117.735004 216.813974 
L 119.68382 226.410454 
L 121.942725 228.866575 
L 124.879673 231.375062 
L 126.565653 227.977892 
L 124.934712 227.746491 
L 125.752847 219.089825 
L 126.802136 217.523932 
L 129.062045 216.533914 
L 125.477654 211.77939 
L 128.435734 210.185692 
L 134.551274 207.678596 
L 135.759855 206.863751 
L 131.561738 202.023818 
L 126.88861 200.426815 
L 121.752136 197.960931 
L 121.779107 190.315182 
L 127.709433 189.3471 
L 130.293581 190.973639 
L 136.964296 185.467684 
L 133.457206 188.439525 
L 135.148281 188.143125 
L 137.676355 191.364996 
L 145.281972 191.898206 
L 141.060302 188.543593 
L 140.913816 186.386264 
L 140.354855 191.232752 
L 138.167857 185.446856 
L 139.051844 181.558217 
L 138.607441 176.4094 
L 138.046936 174.933472 
L 141.966472 171.936217 
L 141.961529 172.811168 
L 139.801054 170.051601 
L 149.419701 169.776948 
L 152.075092 168.866947 
L 157.798007 170.311579 
L 162.706387 171.009179 
L 166.009946 163.056754 
L 167.09033 164.577541 
L 162.199561 163.545044 
L 155.400123 161.241697 
L 159.992296 160.657943 
L 164.156733 156.275081 
L 158.740756 152.674625 
L 163.406767 152.883318 
L 159.809709 148.691229 
L 166.308697 149.727125 
L 166.700749 149.404895 
L 163.247042 150.995967 
L 163.191586 155.916086 
L 162.530287 157.340481 
L 161.716369 148.961248 
L 160.213501 152.289523 
L 162.415977 147.319973 
L 159.203094 148.575375 
L 154.736352 145.189945 
L 156.432466 149.118038 
L 165.511462 151.46541 
L 161.096315 147.893068 
L 161.859411 143.9486 
L 168.011144 142.022476 
L 168.963161 138.375677 
L 167.218852 139.57099 
L 164.887545 138.145822 
L 174.01798 140.405453 
L 168.902144 133.522291 
L 172.957523 136.937379 
L 181.561823 135.719669 
L 176.862292 133.248101 
L 181.439017 131.610069 
L 178.623438 127.27633 
L 179.472422 128.596456 
L 178.318354 133.123287 
L 181.047119 135.153834 
L 184.691755 132.503696 
L 186.962817 128.541772 
L 189.18383 132.711307 
L 196.510175 136.194982 
L 196.624485 133.585779 
L 191.110108 133.045587 
L 202.252554 130.98708 
L 201.092771 134.231631 
L 198.96645 135.316031 
L 201.696142 135.965899 
L 195.318416 138.943984 
L 188.739102 131.998105 
L 195.265586 133.361793 
L 192.847466 130.866745 
L 192.574512 125.819649 
L 196.17883 122.497399 
L 200.988965 120.89505 
L 199.075817 128.230355 
L 201.87564 127.154914 
L 206.292486 129.255438 
L 203.812577 122.963598 
L 206.1669 129.604701 
L 200.433326 136.500993 
L 202.240969 130.610938 
L 197.374297 131.809031 
L 199.378893 131.136301 
L 196.928951 133.615129 
L 191.817749 137.259765 
L 189.162822 141.987256 
L 184.494957 141.933499 
L 193.851695 142.786036 
L 193.943606 143.882949 
L 197.735609 143.919559 
L 196.642404 141.990191 
L 194.104876 144.735176 
L 198.993483 139.321207 
L 197.923139 150.511539 
L 198.033433 151.386165 
L 193.912248 140.111027 
L 192.228338 139.480005 
L 192.228338 139.480005 
" style="fill:none;stroke:#ff7f0e;stroke-linecap:square;stroke-width:1.5;"/>
   </g>
   <g id="line2d_3">
    <path clip-path="url(#p0f9acf2d48)" d="M 132.704024 186.812693 
L 128.529901 190.280472 
L 118.200632 189.341694 
L 123.978879 188.332203 
L 118.858965 191.005677 
L 118.597705 195.681126 
L 118.876127 191.616231 
L 120.189194 192.583417 
L 122.793778 192.9506 
L 121.962806 193.340196 
L 120.523025 192.123227 
L 116.23813 192.093568 
L 114.055581 194.125367 
L 121.532367 190.950808 
L 118.074196 190.88613 
L 114.308762 192.394404 
L 120.58381 195.819101 
L 129.141676 195.403476 
L 132.22521 194.262477 
L 136.769954 188.889675 
L 134.760585 186.00024 
L 134.143298 187.026784 
L 141.100388 190.992794 
L 141.803456 187.110296 
L 139.948668 190.55477 
L 137.971661 189.226117 
L 141.614675 200.937796 
L 143.92281 196.948531 
L 147.93744 190.430728 
L 144.943228 186.078251 
L 150.433662 186.02582 
L 153.814303 190.985333 
L 148.767362 181.562233 
L 149.472067 180.577607 
L 150.01504 182.077431 
L 147.142429 182.49145 
L 149.602597 185.440368 
L 144.314878 183.186485 
L 134.96333 185.795576 
L 133.413101 182.312307 
L 133.738741 177.410926 
L 140.25403 175.066798 
L 140.66879 176.631656 
L 140.516866 173.531136 
L 145.004369 173.937477 
L 143.814432 173.819722 
L 140.951213 170.240212 
L 145.685162 172.607032 
L 146.855264 168.442301 
L 143.99722 169.423822 
L 139.928649 169.678703 
L 147.521676 166.066352 
L 149.812371 171.353035 
L 149.264919 172.1385 
L 145.413645 168.48061 
L 141.330615 163.074519 
L 132.654469 165.377866 
L 129.210046 165.212116 
L 128.521699 170.364563 
L 121.27293 169.147316 
L 121.873088 166.465664 
L 121.432315 167.677196 
L 118.209699 162.577579 
L 114.831344 167.20281 
L 119.575102 168.127948 
L 129.460539 163.984983 
L 128.353107 165.574201 
L 133.882586 163.047177 
L 133.971997 161.938061 
L 134.432051 161.324803 
L 139.912058 156.785923 
L 142.851324 158.596347 
L 142.579282 160.551975 
L 136.922589 161.385202 
L 133.720963 159.598413 
L 133.331132 152.700113 
L 134.63384 153.416404 
L 136.326755 152.217385 
L 143.290954 146.31528 
L 138.098916 147.381607 
L 139.413172 142.598351 
L 138.208592 142.589237 
L 131.705141 145.771227 
L 132.498638 151.634867 
L 134.225198 156.712549 
L 137.578079 154.123736 
L 136.722778 153.954897 
L 133.045931 155.644368 
L 132.513213 154.120028 
L 134.192384 154.415226 
L 127.089749 154.517487 
L 124.015644 157.111243 
L 127.81344 153.234744 
L 125.169094 149.430383 
L 126.701914 149.076176 
L 126.27631 151.483947 
L 129.334968 151.670241 
L 134.30767 154.993882 
L 132.186288 151.68955 
L 131.958821 152.611291 
L 130.611981 149.65823 
L 132.653488 150.169536 
L 134.377044 154.882662 
L 135.677521 146.879879 
L 136.021841 147.909287 
L 135.348123 152.507485 
L 139.448145 151.451971 
L 143.409497 144.228968 
L 141.46723 147.477844 
L 135.194885 147.285525 
L 138.220965 143.679508 
L 141.110521 139.684064 
L 139.698206 144.365522 
L 139.674571 148.813727 
L 138.192465 150.582597 
L 142.203665 158.54846 
L 133.654787 157.035552 
L 132.986717 158.281531 
L 137.308292 156.37518 
L 136.963972 158.732746 
L 133.566329 151.498467 
L 134.765543 152.304353 
L 136.165825 150.267317 
L 132.342307 151.343531 
L 130.034437 152.196222 
L 125.816706 151.616176 
L 120.713815 153.841823 
L 118.632739 154.171468 
L 116.068673 155.394431 
L 113.842099 153.49951 
L 112.632112 151.910292 
L 116.36248 155.026167 
L 120.810221 150.184674 
L 115.207486 149.565083 
L 112.098717 144.698875 
L 114.008003 144.606809 
L 110.483393 141.466528 
L 110.122544 141.849621 
L 111.852796 134.780164 
L 110.718346 138.582671 
L 109.745321 136.461139 
L 110.076356 139.052733 
L 110.615622 132.497362 
L 106.19306 133.900595 
L 103.634678 133.700552 
L 104.404263 138.834771 
L 107.398567 146.732666 
L 115.308357 145.131863 
L 115.344503 140.838749 
L 115.614059 134.091832 
L 117.302557 135.733571 
L 118.17054 131.896462 
L 118.550189 137.543223 
L 116.27474 135.066712 
L 111.357247 135.17129 
L 117.151374 140.149336 
L 123.298225 138.647087 
L 126.012887 138.90413 
L 124.850385 138.318522 
L 126.23641 131.08239 
L 129.437893 137.383034 
L 131.020284 136.42731 
L 135.27515 134.440169 
L 139.147865 134.663846 
L 136.00783 137.579369 
L 129.290557 138.75599 
L 127.692657 144.477361 
L 132.013077 152.962717 
L 133.355572 154.426657 
L 129.591115 148.482228 
L 134.523129 146.883587 
L 132.664553 154.293656 
L 135.013133 155.767328 
L 128.816974 154.949394 
L 132.08367 162.053452 
L 132.946225 160.615463 
L 137.279885 162.010045 
L 130.969478 165.152644 
L 137.243892 159.870131 
L 133.83238 160.880693 
L 132.184017 158.096318 
L 135.276942 161.197981 
L 131.166347 161.435251 
L 132.846639 166.512624 
L 137.476822 159.00292 
L 138.481978 156.25917 
L 136.965949 151.830121 
L 135.575646 152.023057 
L 135.964207 148.233989 
L 138.480804 146.765106 
L 134.796299 145.222229 
L 131.387928 146.768659 
L 136.105859 150.854315 
L 134.311563 151.377824 
L 135.066441 152.051789 
L 136.53585 151.214082 
L 136.696811 149.28317 
L 132.596733 150.031283 
L 127.470556 141.220143 
L 134.591452 144.537296 
L 137.712378 146.783179 
L 135.504882 143.354342 
L 132.417605 147.935239 
L 128.781599 149.615132 
L 130.792961 141.812393 
L 130.726074 144.127788 
L 125.250517 145.441272 
L 121.554596 141.4293 
L 117.316552 143.996332 
L 114.164021 137.060649 
L 113.004238 135.408869 
L 107.037255 139.044237 
L 104.458792 139.845334 
L 100.409282 142.831142 
L 95.650278 143.45614 
L 95.331137 140.234451 
L 88.457861 140.130491 
L 85.346312 137.37392 
L 81.054279 136.532969 
L 73.752032 138.410125 
L 67.203922 141.024889 
L 67.754927 136.571587 
L 66.816504 132.141456 
L 65.094593 127.85653 
L 63.965396 132.702657 
L 62.40321 130.57371 
L 58.478052 133.431769 
L 51.74998 132.334702 
L 46.06661 128.883003 
L 42.446535 135.198631 
L 46.492029 131.186659 
L 48.501568 125.798177 
L 53.615396 133.350053 
L 56.367796 132.467549 
L 55.277989 129.806288 
L 49.513366 135.098378 
L 46.74212 137.215276 
L 48.012661 140.443916 
L 54.600934 142.680531 
L 54.736407 143.622507 
L 52.29388 139.98405 
L 52.400775 141.233119 
L 58.341652 144.991601 
L 56.370731 148.746376 
L 53.344451 146.151848 
L 50.173738 141.8938 
L 56.425569 142.947306 
L 51.692671 146.294427 
L 49.832198 145.991814 
L 46.753551 145.757942 
L 48.21672 151.783779 
L 45.329001 148.277242 
L 46.15296 148.502927 
L 47.596665 148.163086 
L 43.385886 140.112263 
L 47.290036 134.384404 
L 46.541769 132.287279 
L 42.294843 132.250669 
L 43.09146 136.348065 
L 46.336783 136.974453 
L 48.098239 135.474829 
L 42.236761 137.716387 
L 36.965525 133.068912 
L 36.128899 135.743149 
L 37.180088 135.948907 
L 38.383896 131.167504 
L 43.709815 129.720247 
L 45.314635 135.732181 
L 42.796108 130.893469 
L 38.362115 133.122669 
L 41.023685 132.727527 
L 39.28092 130.337984 
L 39.546459 133.098417 
L 32.338441 139.964123 
L 37.705296 138.307709 
L 34.170799 141.052231 
L 33.472118 138.869219 
L 40.759845 137.240301 
L 40.824878 134.874702 
L 41.596162 129.863907 
L 36.763011 133.227247 
L 37.892826 136.44183 
L 38.861063 135.594237 
L 42.961239 137.205081 
L 39.456865 138.603216 
L 42.502609 138.900268 
L 44.178796 140.041669 
L 45.517304 140.053563 
L 49.05628 137.364806 
L 46.288588 140.859603 
L 37.958323 135.356194 
L 47.989335 139.31441 
L 47.20523 138.484272 
L 46.548566 139.709243 
L 50.659864 136.254763 
L 52.447271 129.624937 
L 54.540535 131.884104 
L 50.057574 131.761916 
L 50.669442 136.601864 
L 50.669442 136.601864 
" style="fill:none;stroke:#2ca02c;stroke-linecap:square;stroke-width:1.5;"/>
   </g>
   <g id="line2d_4">
    <path clip-path="url(#p0f9acf2d48)" d="M 132.704024 186.812693 
L 130.419229 190.299642 
L 139.942814 191.681527 
L 138.029727 189.948494 
L 139.279584 193.921509 
L 140.451184 194.521019 
L 139.068589 199.5588 
L 135.760797 206.510007 
L 137.86682 208.539628 
L 145.590424 207.188607 
L 141.733094 207.584213 
L 143.082354 213.281177 
L 143.479164 210.803893 
L 142.731932 214.976518 
L 140.075568 216.21292 
L 137.622768 218.941376 
L 137.3954 215.856396 
L 132.257175 218.097953 
L 129.175088 217.034252 
L 129.42121 211.701845 
L 131.408144 210.348661 
L 134.666047 216.128886 
L 127.648988 217.287434 
L 123.17182 211.197181 
L 124.327031 215.570003 
L 126.203862 215.429278 
L 130.023609 211.242751 
L 126.738555 212.706228 
L 132.962243 214.171404 
L 134.843753 207.588538 
L 137.225155 208.275325 
L 145.653449 211.145896 
L 145.833255 210.763421 
L 144.797993 211.001619 
L 143.982113 207.506204 
L 141.117056 209.090479 
L 143.071819 209.034868 
L 147.565453 210.279303 
L 144.188349 219.672806 
L 145.300462 218.783659 
L 149.121259 221.627352 
L 151.958465 220.472667 
L 152.444591 222.275676 
L 158.678349 225.092491 
L 157.871382 225.86501 
L 159.733245 228.907665 
L 152.616674 231.894709 
L 153.626773 228.748403 
L 156.499662 228.182105 
L 154.027167 222.971576 
L 151.784374 224.040529 
L 151.91583 226.383576 
L 149.583597 226.416788 
L 147.22915 220.971615 
L 150.571297 227.70571 
L 152.599528 228.666687 
L 154.50109 225.925254 
L 153.794685 227.069436 
L 158.261426 229.98326 
L 153.173395 221.290292 
L 154.388479 220.575546 
L 150.153448 220.201567 
L 149.830908 221.541311 
L 155.301878 223.762787 
L 157.847439 226.525691 
L 151.23275 224.677113 
L 149.170536 220.078143 
L 148.381797 222.706192 
L 159.731237 223.872308 
L 156.007511 225.768773 
L 155.514742 224.136303 
L 155.42453 217.950586 
L 154.274169 220.79845 
L 151.375792 222.316611 
L 149.625613 223.971017 
L 150.336189 222.633435 
L 150.53515 227.026183 
L 153.540268 229.39271 
L 157.651103 222.435246 
L 153.989167 222.531328 
L 154.454285 224.72191 
L 154.095907 224.635714 
L 154.832744 226.146614 
L 157.678445 223.733283 
L 156.326188 224.46981 
L 158.217556 223.166212 
L 155.648361 229.648517 
L 149.304464 231.289329 
L 150.449109 231.095929 
L 145.60255 223.888219 
L 147.319471 222.512637 
L 146.783419 225.87953 
L 143.655356 223.802796 
L 143.856959 225.893124 
L 136.27442 224.143872 
L 140.139164 228.789802 
L 144.416243 228.934543 
L 143.171716 231.293654 
L 146.346152 231.185214 
L 146.201596 224.643901 
L 148.589718 226.901215 
L 156.917048 219.336054 
L 156.943154 225.079206 
L 159.129873 224.282125 
L 160.572806 225.074417 
L 156.262546 223.979204 
L 157.093301 225.963255 
L 157.520574 232.555853 
L 158.65595 235.553711 
L 159.792562 233.168648 
L 161.916875 232.668464 
L 158.948213 236.769259 
L 162.155227 236.238335 
L 166.169517 232.102475 
L 167.848329 225.912279 
L 166.828498 232.106337 
L 164.073781 233.807239 
L 164.243702 233.006142 
L 162.080307 231.383403 
L 167.073029 235.982219 
L 165.498331 239.684473 
L 159.113036 237.709381 
L 153.263607 239.203444 
L 149.3644 233.576765 
L 150.260189 229.227733 
L 152.54469 228.975787 
L 154.144566 235.222984 
L 156.128926 232.876848 
L 153.200736 230.325418 
L 158.463477 233.770474 
L 156.130935 242.020259 
L 152.650658 243.514013 
L 153.121646 248.382847 
L 150.754966 251.36742 
L 151.013553 245.386071 
L 157.688795 248.654411 
L 165.914482 242.684493 
L 167.534285 236.205896 
L 167.404837 241.124316 
L 161.51818 241.973299 
L 159.550194 242.700095 
L 163.76499 238.141597 
L 163.502077 233.793182 
L 158.882562 238.37655 
L 160.593968 237.928733 
L 162.793355 233.023906 
L 159.395103 235.553247 
L 155.808549 235.066194 
L 152.989572 235.846128 
L 156.687964 234.508392 
L 158.394582 240.733345 
L 157.751974 237.970132 
L 163.13335 237.3785 
L 169.01908 235.265464 
L 172.3679 239.158029 
L 171.277012 239.713977 
L 168.180137 238.919677 
L 168.603239 236.918788 
L 169.967081 243.131383 
L 175.008925 247.167299 
L 177.49007 250.445062 
L 183.503395 249.096667 
L 181.745646 247.173324 
L 185.18267 246.194428 
L 180.273055 240.392577 
L 181.126364 235.605459 
L 187.734564 240.23795 
L 184.885773 242.916357 
L 188.058494 239.791368 
L 187.449562 234.144608 
L 187.285202 234.085445 
L 194.702995 244.051115 
L 197.813618 246.786523 
L 193.382715 247.481806 
L 192.342494 244.230459 
L 189.086975 240.856614 
L 190.882415 239.24268 
L 190.259734 244.365005 
L 194.849436 250.653446 
L 189.956658 248.881486 
L 189.441645 248.958105 
L 188.07734 247.594726 
L 182.274407 250.045594 
L 182.050576 249.789169 
L 181.810216 246.805369 
L 183.074269 251.290183 
L 181.940437 251.742944 
L 180.468464 247.261064 
L 171.804073 244.692178 
L 165.845587 244.782391 
L 169.19487 243.740625 
L 167.741588 236.642282 
L 170.03474 233.173745 
L 171.981408 231.288248 
L 168.066908 227.060013 
L 163.60372 229.394872 
L 156.263781 222.457336 
L 156.711444 222.003494 
L 157.107204 216.152366 
L 157.05561 217.651681 
L 150.158545 213.394251 
L 147.219588 210.704413 
L 149.794607 206.9915 
L 145.691912 208.213381 
L 148.515107 204.594079 
L 149.124966 205.872497 
L 147.782148 206.211102 
L 150.793893 200.364377 
L 149.046494 205.013936 
L 150.62459 209.104845 
L 146.146712 207.704856 
L 141.454533 204.752105 
L 142.902702 206.174801 
L 146.307163 206.166768 
L 140.938809 201.387946 
L 140.326231 204.885106 
L 142.049733 201.264506 
L 148.397244 199.918212 
L 147.034684 205.460827 
L 144.180394 210.739941 
L 147.50592 213.065687 
L 145.466799 206.975589 
L 145.101517 203.654729 
L 148.002859 204.722755 
L 146.314114 200.966883 
L 144.338389 193.137481 
L 146.246548 198.016804 
L 157.887293 188.249322 
L 149.069356 193.276461 
L 143.897631 198.717432 
L 142.974145 194.295905 
L 142.982966 192.034668 
L 133.357231 189.077823 
L 130.8841 193.77649 
L 131.921056 193.857372 
L 128.722204 196.890603 
L 129.942201 198.898412 
L 132.040426 198.157838 
L 131.620532 192.81749 
L 134.619844 187.154297 
L 134.574862 183.072067 
L 124.527027 184.619547 
L 124.587688 182.78087 
L 125.439638 176.891634 
L 124.947209 184.88748 
L 123.6617 189.928984 
L 125.90369 200.148562 
L 123.993879 203.085341 
L 119.993106 205.399501 
L 121.906763 209.172967 
L 122.585131 204.745153 
L 116.778167 206.160281 
L 113.902344 200.754637 
L 121.798153 203.005788 
L 122.858981 202.468376 
L 117.422752 204.065318 
L 118.220775 206.660464 
L 122.719832 206.384112 
L 125.753388 208.162405 
L 127.282794 207.809125 
L 130.216808 205.442599 
L 133.499008 205.320411 
L 140.756207 202.033952 
L 134.339399 199.073168 
L 132.170443 199.177885 
L 132.556561 200.098621 
L 134.597322 201.632461 
L 140.415795 198.972884 
L 142.810713 195.197209 
L 136.555329 205.484925 
L 137.627573 202.700703 
L 134.487971 199.976758 
L 132.723871 202.937819 
L 137.268902 198.103942 
L 138.779678 195.340189 
L 136.408997 198.05533 
L 138.813678 196.276882 
L 146.218959 194.878932 
L 143.623689 193.529194 
L 144.589531 195.577876 
L 149.229854 193.983499 
L 144.477245 195.590111 
L 144.075584 193.716678 
L 151.314158 190.213307 
L 153.837629 188.703488 
L 151.519452 191.73326 
L 153.313502 187.163212 
L 154.775898 188.917171 
L 162.036128 187.082812 
L 161.353821 186.872054 
L 155.012705 186.949686 
L 155.211666 190.618274 
L 159.891116 190.293541 
L 157.326865 190.179184 
L 159.970361 189.383787 
L 164.946863 190.149788 
L 159.174207 187.404828 
L 160.912492 187.370405 
L 157.610322 190.404653 
L 157.610322 190.404653 
" style="fill:none;stroke:#d62728;stroke-linecap:square;stroke-width:1.5;"/>
   </g>
   <g id="line2d_5">
    <path clip-path="url(#p0f9acf2d48)" d="M 132.704024 186.812693 
L 135.027746 187.859678 
L 129.92714 185.257984 
L 128.525298 183.826776 
L 126.820858 187.499639 
L 128.007813 186.354308 
L 132.797365 185.789324 
L 133.241 184.585099 
L 135.483812 191.626766 
L 137.296892 186.97919 
L 133.464959 184.765601 
L 135.644989 183.510245 
L 137.507145 188.21642 
L 134.667715 185.911517 
L 141.957713 183.241277 
L 138.15414 188.519094 
L 139.009642 186.141268 
L 138.080333 191.300535 
L 131.92271 194.909364 
L 130.331164 204.10579 
L 128.867208 203.08704 
L 126.203306 206.175419 
L 127.191346 206.310119 
L 126.363726 202.629491 
L 127.923023 210.874487 
L 123.899449 211.694893 
L 117.752274 205.651446 
L 111.793478 204.869659 
L 117.04278 203.657973 
L 119.314228 204.157693 
L 121.420112 206.517113 
L 119.997384 204.523794 
L 122.227295 205.19606 
L 117.551042 208.37944 
L 115.343268 212.059759 
L 115.286731 214.145453 
L 115.495578 213.750002 
L 117.657675 211.352736 
L 115.776873 215.181967 
L 119.690369 209.866551 
L 118.123426 210.610493 
L 116.637751 208.898932 
L 118.858733 209.666509 
L 119.369931 212.14889 
L 120.195249 206.614586 
L 117.925732 206.850775 
L 128.373559 206.870856 
L 124.81793 205.88918 
L 125.655545 204.028708 
L 127.81829 207.430821 
L 129.821496 207.459553 
L 124.505957 208.622735 
L 118.965953 210.464979 
L 121.126736 207.270015 
L 115.584554 211.171384 
L 119.80125 206.950101 
L 115.564936 214.6271 
L 113.706317 213.690993 
L 106.381362 212.325607 
L 117.673246 213.509024 
L 115.521993 217.121839 
L 117.40732 220.984281 
L 113.994255 217.963716 
L 110.712322 219.752359 
L 109.486115 221.637857 
L 108.55418 221.255999 
L 109.473757 213.95715 
L 108.322316 215.787501 
L 112.897188 217.138985 
L 119.328254 217.822837 
L 115.757564 220.138078 
L 119.095077 217.74869 
L 118.913154 220.702523 
L 120.052083 219.090597 
L 122.785885 221.711231 
L 123.124752 224.184807 
L 119.827155 228.951226 
L 126.428172 235.956267 
L 129.806559 235.558036 
L 135.32387 232.46873 
L 137.783513 237.243182 
L 140.193493 238.891563 
L 138.890791 236.157546 
L 134.057263 239.540968 
L 134.643108 243.53533 
L 131.391583 242.480589 
L 132.495631 240.885191 
L 131.225052 241.203251 
L 126.863431 240.262202 
L 130.161785 238.431388 
L 125.697855 236.64877 
L 125.490058 237.762829 
L 122.014709 237.107554 
L 125.563386 239.006336 
L 130.178282 242.371067 
L 136.936012 237.001277 
L 132.533149 237.323971 
L 134.120646 237.656088 
L 132.858709 236.10348 
L 133.094264 231.373517 
L 134.188571 231.528608 
L 142.191106 225.394176 
L 140.432617 223.073683 
L 140.770696 226.17581 
L 139.408893 233.215762 
L 136.495255 231.827822 
L 138.462854 231.436233 
L 140.79586 232.101394 
L 138.088443 230.14144 
L 131.613066 230.349979 
L 127.432803 225.549576 
L 124.445326 220.537545 
L 121.765745 227.074225 
L 112.256125 231.80496 
L 112.112156 234.53527 
L 111.56007 240.469659 
L 113.744627 244.342297 
L 108.011825 240.832671 
L 108.685173 236.841089 
L 107.929645 238.156117 
L 101.779303 235.093999 
L 104.228781 232.076369 
L 104.683859 230.857577 
L 107.777489 243.346873 
L 98.97222 234.897509 
L 108.051216 240.739678 
L 106.399745 240.1689 
L 103.816647 242.943235 
L 101.03567 236.533224 
L 96.916957 236.020837 
L 99.182921 236.101317 
L 93.085409 237.794805 
L 86.850415 236.85082 
L 85.869357 230.303637 
L 87.258533 234.383732 
L 81.232696 237.511656 
L 79.400801 237.467322 
L 85.058528 229.517369 
L 88.354519 233.049549 
L 91.962544 232.859393 
L 96.966697 235.107747 
L 91.229724 237.342199 
L 91.361181 236.87878 
L 85.71473 246.616448 
L 86.027229 245.517528 
L 84.034218 246.038256 
L 86.382053 240.279657 
L 92.307791 246.61305 
L 88.100102 246.173111 
L 90.1186 246.663408 
L 86.462688 246.60579 
L 86.89892 243.13092 
L 85.069496 240.421773 
L 80.793066 239.93441 
L 88.25751 233.823304 
L 82.995233 235.778469 
L 79.719942 239.060711 
L 80.914481 239.933638 
L 76.560351 241.923713 
L 74.462144 246.731994 
L 73.275174 250.962237 
L 66.156286 250.475647 
L 65.069878 250.029684 
L 63.105445 257.01418 
L 61.007083 259.991184 
L 67.42142 260.446724 
L 64.584369 258.26433 
L 64.691882 261.216 
L 62.282412 255.879576 
L 63.776939 252.427722 
L 55.045198 256.719446 
L 56.078931 258.095646 
L 53.594542 254.895737 
L 60.412517 254.664028 
L 59.286563 257.481924 
L 59.312051 253.423301 
L 58.871649 255.346335 
L 57.769638 249.81373 
L 61.893295 248.336351 
L 61.568438 246.831166 
L 59.552566 244.994328 
L 56.700067 240.681751 
L 64.259976 240.277031 
L 63.244007 240.418992 
L 66.703275 241.600556 
L 69.767556 232.010409 
L 69.71349 233.688604 
L 73.014424 229.625964 
L 78.910658 235.860339 
L 77.543417 236.738055 
L 79.462281 229.449556 
L 79.253588 226.89689 
L 76.466895 232.860628 
L 75.126842 229.133967 
L 78.283034 228.958486 
L 75.854719 229.56711 
L 74.537527 224.540559 
L 79.695689 225.130182 
L 80.435461 220.652782 
L 79.256059 223.193554 
L 83.464522 226.515959 
L 79.026821 226.51565 
L 84.453458 229.994228 
L 83.094713 226.444747 
L 83.078339 219.41808 
L 82.686596 220.684758 
L 85.529208 219.773368 
L 84.818323 221.636157 
L 83.656223 218.550714 
L 89.288308 223.321458 
L 91.957292 228.452896 
L 92.069903 225.161231 
L 91.189561 222.491474 
L 91.976601 220.400991 
L 92.344711 222.574272 
L 90.781907 234.011298 
L 88.598895 226.380332 
L 87.768139 229.292302 
L 86.446932 231.861188 
L 81.867889 237.38298 
L 79.681632 235.689647 
L 80.307094 239.099947 
L 78.26079 240.026476 
L 81.486804 246.332527 
L 84.925836 244.068108 
L 75.924386 244.723227 
L 75.969955 243.024951 
L 78.772404 237.696097 
L 80.349574 234.32287 
L 79.005041 240.299584 
L 76.73367 244.147352 
L 77.137617 240.483716 
L 79.848 239.432064 
L 80.580974 238.790692 
L 84.150227 245.191126 
L 83.288422 248.3467 
L 87.545544 247.484896 
L 86.643885 250.906318 
L 88.025491 255.979983 
L 87.386591 254.11225 
L 90.047697 255.447515 
L 88.554716 257.186881 
L 85.933927 259.763336 
L 91.026129 259.32108 
L 89.13368 253.804231 
L 86.10462 257.322508 
L 90.377497 253.044533 
L 86.01348 258.342802 
L 83.094713 257.444387 
L 81.818612 254.562694 
L 91.412929 251.378696 
L 87.894344 246.676693 
L 96.947388 246.810003 
L 90.695093 245.20024 
L 88.346023 248.318895 
L 90.148877 240.889053 
L 86.390549 236.347547 
L 90.215764 232.140321 
L 86.200393 227.374211 
L 94.01719 227.276584 
L 93.8794 230.796869 
L 98.139456 232.314103 
L 93.108271 228.085096 
L 94.60187 228.456294 
L 89.260812 235.566532 
L 86.419744 226.032304 
L 80.711504 235.704631 
L 75.064898 240.827573 
L 78.01595 239.112459 
L 77.544344 240.811817 
L 74.671301 243.043797 
L 75.314218 245.53282 
L 71.08104 241.573678 
L 69.404081 238.44838 
L 62.948345 239.780092 
L 58.381042 231.552397 
L 60.69304 238.210646 
L 63.591725 237.795423 
L 56.434374 238.321249 
L 60.89509 237.772715 
L 58.289749 234.897355 
L 55.413925 225.696634 
L 58.211431 223.458012 
L 53.185343 226.28564 
L 50.859444 220.681514 
L 48.872612 221.4874 
L 47.386582 218.066286 
L 51.837258 224.842399 
L 49.347462 217.833187 
L 52.299286 216.943268 
L 48.643219 216.623818 
L 48.077076 211.202279 
L 39.873942 203.91239 
L 42.113337 200.9086 
L 41.570519 198.386736 
L 39.683786 202.03216 
L 39.614273 209.397726 
L 41.827871 212.068564 
L 41.827871 212.068564 
" style="fill:none;stroke:#9467bd;stroke-linecap:square;stroke-width:1.5;"/>
   </g>
   <g id="line2d_6">
    <path clip-path="url(#p0f9acf2d48)" d="M 132.704024 186.812693 
L 132.299802 189.536422 
L 131.318693 190.665465 
L 133.136283 184.662645 
L 139.334236 186.661521 
L 136.183312 181.210652 
L 146.559 178.512241 
L 142.982688 174.584688 
L 135.598261 175.717067 
L 130.145302 177.624917 
L 129.400542 173.090826 
L 131.181113 171.78729 
L 132.855063 171.620784 
L 135.369826 175.760984 
L 132.151956 163.733655 
L 134.168258 162.711353 
L 139.89363 163.66785 
L 137.591549 162.224608 
L 140.39854 162.815004 
L 147.612521 168.92024 
L 139.542404 175.09051 
L 141.690058 170.15587 
L 142.570909 173.160833 
L 141.813312 176.259329 
L 145.176297 177.158609 
L 143.686467 180.746337 
L 140.312699 184.318865 
L 142.989531 182.141429 
L 145.59929 183.213966 
L 146.966191 182.180109 
L 143.458696 187.742739 
L 143.594324 183.566427 
L 136.590719 171.633049 
L 143.455823 168.75032 
L 142.752832 171.47215 
L 140.157809 172.413462 
L 143.91935 165.744121 
L 142.663995 158.44311 
L 143.895469 157.185081 
L 139.081565 157.217675 
L 137.291918 151.595631 
L 137.345319 156.287593 
L 129.821434 150.386262 
L 130.177726 147.272241 
L 127.999518 151.736201 
L 125.695074 155.758987 
L 130.406593 159.308776 
L 129.941908 150.352895 
L 134.459239 149.510863 
L 134.684924 152.698104 
L 133.761066 158.849991 
L 132.069974 155.028639 
L 130.037882 153.818343 
L 131.354942 151.245904 
L 125.379579 151.749949 
L 130.194039 151.991854 
L 124.283068 156.1963 
L 122.885458 155.824638 
L 122.367973 154.104581 
L 125.49341 152.304044 
L 129.272391 148.223794 
L 128.329658 144.282725 
L 132.485783 142.701076 
L 132.336503 137.125528 
L 137.201644 133.711057 
L 142.789828 137.826217 
L 135.026294 139.638031 
L 136.99774 138.369035 
L 146.142062 134.574869 
L 150.115911 144.811486 
L 151.314621 143.513604 
L 153.145281 149.797102 
L 152.950954 152.391476 
L 152.885303 149.779955 
L 161.622141 149.462668 
L 155.352545 150.184829 
L 144.481508 150.543824 
L 145.619573 154.135321 
L 147.924032 156.822224 
L 144.628659 160.323973 
L 141.959938 158.52946 
L 136.633369 157.121902 
L 134.041287 155.9632 
L 129.283482 155.579798 
L 122.575353 156.557303 
L 124.235845 155.802857 
L 121.981034 153.520673 
L 127.381873 152.757731 
L 126.046485 154.597504 
L 131.840455 150.373904 
L 130.123429 139.830813 
L 128.279176 145.894805 
L 125.688617 143.370407 
L 120.588707 141.527081 
L 117.05143 143.03999 
L 116.796241 144.937845 
L 123.437931 143.546198 
L 126.045388 138.132691 
L 127.353527 138.556102 
L 132.262021 131.899861 
L 137.019181 137.597134 
L 140.117368 138.463418 
L 133.901426 138.708567 
L 139.246959 143.111511 
L 144.435213 148.381975 
L 143.717238 144.85273 
L 134.673477 139.761609 
L 137.159118 140.75657 
L 137.293108 141.104288 
L 130.37712 139.409411 
L 131.010722 139.682056 
L 136.038833 139.221417 
L 137.506836 140.439437 
L 139.207754 143.342139 
L 139.741597 149.38296 
L 142.82236 146.014521 
L 143.31411 149.963006 
L 139.084222 148.756417 
L 143.978977 147.333257 
L 139.677754 144.798047 
L 129.888429 145.493947 
L 129.348546 141.0028 
L 134.553776 144.263107 
L 128.940737 147.187435 
L 127.679743 150.452531 
L 123.076587 150.887218 
L 124.016494 149.992664 
L 124.287146 150.697679 
L 124.67115 148.107476 
L 122.228253 145.120277 
L 121.902345 148.431251 
L 121.32372 147.526349 
L 122.904875 145.363109 
L 125.04082 145.714072 
L 123.638745 152.405224 
L 125.075823 154.437625 
L 124.846554 157.862446 
L 127.718964 163.188056 
L 129.313342 163.395205 
L 129.085 165.023659 
L 130.904661 175.094356 
L 133.891055 170.358384 
L 140.633586 169.890022 
L 149.257504 171.218489 
L 145.774123 170.781794 
L 147.890712 172.963447 
L 144.620148 169.820818 
L 149.871998 172.231724 
L 151.725674 177.642666 
L 155.320415 176.439831 
L 162.943966 184.39139 
L 161.754369 181.737575 
L 161.698141 187.128913 
L 165.936262 188.87483 
L 163.167334 191.872718 
L 168.414473 191.109235 
L 161.986542 184.303001 
L 156.181911 180.654287 
L 156.747745 176.935396 
L 155.675394 175.230756 
L 161.353358 181.476068 
L 161.542433 185.319523 
L 162.442701 192.136898 
L 166.965207 187.039232 
L 174.656572 192.850764 
L 183.535834 192.357145 
L 185.552633 191.756292 
L 181.90877 186.89009 
L 179.863084 188.629171 
L 176.685729 192.48525 
L 184.553502 197.449904 
L 185.132467 197.493558 
L 180.833792 195.796626 
L 177.924293 196.40837 
L 172.696309 197.37344 
L 170.504029 199.214325 
L 168.098266 197.526692 
L 173.307714 196.518045 
L 180.050151 196.913543 
L 178.167434 189.258958 
L 170.808341 189.146054 
L 166.167045 183.070862 
L 165.282842 182.739255 
L 164.159514 184.914111 
L 163.253684 185.340119 
L 164.42011 188.43798 
L 162.221496 190.886192 
L 160.843597 189.938994 
L 159.485007 187.296 
L 160.251811 200.342889 
L 156.534573 200.294246 
L 152.405973 196.323935 
L 154.265519 197.155386 
L 154.880321 198.751385 
L 151.905017 193.822677 
L 153.305933 194.441527 
L 150.479077 189.878163 
L 157.801097 194.059067 
L 159.392477 192.273776 
L 159.362664 188.613446 
L 161.775532 187.039374 
L 164.769837 183.388165 
L 164.594355 174.922412 
L 158.796675 176.914727 
L 163.4148 175.141347 
L 163.895365 177.70807 
L 161.409122 178.972339 
L 159.753172 181.184176 
L 161.985461 184.763238 
L 160.464365 180.321691 
L 158.668462 179.850363 
L 161.558343 186.20022 
L 160.09533 186.625756 
L 158.067408 192.420109 
L 160.057947 199.545623 
L 164.776634 192.476553 
L 160.183534 195.952288 
L 164.567632 198.067749 
L 164.361256 194.704363 
L 168.536661 193.475159 
L 163.516597 188.263823 
L 166.704457 186.429077 
L 170.649851 191.015517 
L 173.186916 193.496183 
L 170.970383 187.754586 
L 165.494161 182.648842 
L 170.379524 183.102313 
L 164.167238 179.0406 
L 166.135996 181.68646 
L 158.799147 180.244764 
L 158.470274 179.686761 
L 157.517484 178.865335 
L 152.840351 176.936941 
L 151.078123 175.277252 
L 148.488692 169.526238 
L 146.055202 167.960654 
L 147.459516 164.541703 
L 149.375522 164.36545 
L 151.918611 174.913391 
L 155.157755 176.882597 
L 157.849447 175.03561 
L 157.948309 178.475754 
L 161.592173 175.022959 
L 165.507754 177.570373 
L 159.881539 178.464339 
L 159.140532 182.366002 
L 155.8569 177.878376 
L 160.09533 178.146279 
L 159.936377 180.011756 
L 164.028212 178.113963 
L 164.615827 175.342857 
L 162.736818 181.769659 
L 162.851591 182.276809 
L 161.341309 183.98681 
L 162.162487 181.495346 
L 162.381839 179.087189 
L 160.431617 173.819073 
L 166.276412 174.691923 
L 164.380719 173.793369 
L 163.62272 175.308131 
L 161.730272 174.534669 
L 161.809362 173.706787 
L 157.900114 171.274254 
L 161.419781 166.851692 
L 165.362086 169.141446 
L 163.323043 163.032039 
L 158.050725 160.116361 
L 158.322906 157.494336 
L 156.536426 154.505284 
L 160.507927 155.135379 
L 163.429475 156.926957 
L 162.779607 155.618416 
L 159.583097 156.203869 
L 161.199194 159.027481 
L 168.824907 155.102013 
L 169.109755 154.413527 
L 163.894438 155.020142 
L 162.119544 154.985541 
L 169.363555 152.106318 
L 165.383558 154.150305 
L 158.820309 147.833595 
L 153.974028 153.472323 
L 150.947593 153.305029 
L 150.501166 151.687851 
L 147.361317 155.415439 
L 144.889317 152.710617 
L 145.067393 152.981408 
L 145.176961 145.675762 
L 147.33776 141.340169 
L 140.917399 138.476857 
L 146.058369 133.483209 
L 149.718915 133.492014 
L 149.536637 137.853868 
L 150.467182 135.199867 
L 152.613739 131.178935 
L 153.186988 138.557647 
L 151.157677 137.891868 
L 151.157677 137.891868 
" style="fill:none;stroke:#8c564b;stroke-linecap:square;stroke-width:1.5;"/>
   </g>
   <g id="line2d_7">
    <path clip-path="url(#p0f9acf2d48)" d="M 132.704024 186.812693 
L 128.154145 176.914001 
L 131.169665 175.102543 
L 134.000947 174.619846 
L 130.866985 168.948818 
L 139.66796 166.125206 
L 133.290828 160.699497 
L 132.103484 160.49343 
L 124.66664 152.485395 
L 118.290597 151.148277 
L 113.328476 152.928733 
L 111.006593 153.181296 
L 110.310074 149.257991 
L 110.297253 152.391167 
L 107.552268 156.891892 
L 113.929994 155.242584 
L 114.259176 150.028039 
L 116.468758 153.336696 
L 118.59721 154.647245 
L 119.852535 147.246444 
L 119.45296 149.6848 
L 120.469037 145.186855 
L 113.251085 145.003032 
L 115.904931 149.322715 
L 114.502935 154.625001 
L 123.242414 158.813072 
L 119.940616 159.593161 
L 123.198188 160.029702 
L 125.959301 162.860419 
L 124.665296 162.251796 
L 128.055314 157.348051 
L 127.637665 159.76478 
L 131.911312 162.428513 
L 132.361343 165.333532 
L 125.442712 164.747925 
L 135.987363 161.401731 
L 141.181672 158.980212 
L 137.65564 163.093828 
L 139.030156 162.411212 
L 140.957701 158.871154 
L 143.382742 152.513509 
L 141.472035 151.124334 
L 144.564244 152.866635 
L 146.39081 152.470875 
L 149.003396 157.481052 
L 148.056878 156.654776 
L 149.332887 162.268015 
L 149.425108 165.222775 
L 144.739447 169.127234 
L 142.198475 167.706546 
L 142.495063 166.346875 
L 137.341365 172.918836 
L 134.666711 169.565474 
L 138.252462 166.073921 
L 139.552785 166.740626 
L 137.850492 168.380512 
L 136.074995 167.521796 
L 143.262485 173.26365 
L 136.741222 174.687953 
L 139.841449 177.223334 
L 139.150491 172.890026 
L 138.865426 172.143551 
L 141.338585 179.374385 
L 140.10345 182.131744 
L 138.728084 184.011881 
L 137.494309 185.032252 
L 140.217343 184.354178 
L 143.601738 179.503324 
L 142.128437 173.840159 
L 142.812814 175.563398 
L 139.501855 173.882253 
L 148.160128 167.331949 
L 149.114462 167.243281 
L 151.113652 163.752501 
L 148.056987 161.254209 
L 151.029773 165.917749 
L 152.703333 162.457554 
L 158.455135 159.557014 
L 155.598621 161.821743 
L 150.565736 158.352434 
L 150.11452 156.728923 
L 148.966477 156.3517 
L 149.095617 152.017033 
L 143.599807 153.005197 
L 152.015929 150.650719 
L 158.832204 154.889613 
L 159.952751 156.553596 
L 157.927301 151.113521 
L 153.430129 146.01205 
L 156.486223 150.070673 
L 160.977061 155.653173 
L 160.867386 158.680689 
L 157.016683 157.029682 
L 155.40383 163.277187 
L 157.31497 160.783684 
L 165.593487 165.396866 
L 161.131225 168.305592 
L 158.268377 163.903112 
L 157.806349 162.309723 
L 158.448184 163.229455 
L 159.765221 169.463831 
L 159.170809 174.537064 
L 154.585896 169.765671 
L 157.663461 169.158747 
L 157.099017 167.889905 
L 157.600745 169.25313 
L 160.240225 169.045981 
L 163.308213 177.184128 
L 167.458594 175.184352 
L 167.970672 174.007932 
L 163.998399 173.07683 
L 170.920025 172.137696 
L 179.486788 171.562841 
L 180.903305 169.011534 
L 179.926418 167.492755 
L 181.364561 169.084909 
L 175.314009 172.859765 
L 169.536564 173.643144 
L 169.837632 170.090064 
L 165.957889 167.74362 
L 160.960687 167.944125 
L 160.414934 167.595325 
L 158.978026 167.365933 
L 159.908108 161.974826 
L 152.266329 161.033622 
L 147.796128 161.389527 
L 144.25261 155.065712 
L 143.419785 152.324898 
L 138.952781 147.583658 
L 136.904345 140.666203 
L 134.910995 141.012068 
L 133.336705 139.686072 
L 131.646545 143.38879 
L 133.273981 144.872812 
L 132.723291 147.378364 
L 130.323842 148.450406 
L 130.782673 141.071695 
L 129.662482 146.709032 
L 127.135489 141.36751 
L 121.47013 141.800035 
L 126.106189 143.49136 
L 121.978454 147.542105 
L 118.410854 144.040048 
L 115.355008 142.799321 
L 114.577391 143.646914 
L 123.052474 141.131167 
L 125.59357 140.660024 
L 123.494653 141.232038 
L 128.727256 138.781787 
L 133.538163 135.095443 
L 141.64506 136.304349 
L 135.487442 127.224272 
L 137.368784 125.753226 
L 133.497031 129.140355 
L 132.224018 130.723394 
L 125.771245 134.754058 
L 124.651239 136.896753 
L 122.824302 139.502404 
L 117.920897 139.137847 
L 124.593141 138.08635 
L 116.016924 133.551795 
L 116.238748 139.006082 
L 113.279199 139.911448 
L 111.538752 133.25876 
L 107.306347 134.050743 
L 105.070041 129.974664 
L 101.668391 126.098473 
L 104.652655 122.735905 
L 109.300593 116.564245 
L 109.795525 113.290499 
L 116.516027 105.210789 
L 114.850962 97.978982 
L 115.836963 100.556364 
L 111.701412 99.641111 
L 114.108102 107.244735 
L 113.672797 109.61018 
L 116.208162 112.397336 
L 118.15707 110.759768 
L 116.963226 105.542134 
L 119.361435 99.570826 
L 118.767918 99.466248 
L 123.322138 102.602513 
L 125.106409 105.764421 
L 123.763977 105.702631 
L 129.933983 103.628831 
L 123.75426 106.313726 
L 121.591252 110.926753 
L 121.588719 104.24487 
L 119.074594 104.458969 
L 117.365504 101.239443 
L 117.221041 102.066337 
L 112.690503 104.210268 
L 110.956544 109.392219 
L 106.53151 108.732001 
L 112.420175 106.580038 
L 109.849745 102.652253 
L 112.111229 100.621706 
L 108.670652 92.812015 
L 112.439175 100.742349 
L 108.695368 103.498611 
L 104.944609 101.013758 
L 101.27325 100.049074 
L 99.513493 97.618133 
L 101.597643 95.815587 
L 101.833214 86.762698 
L 101.949841 88.163922 
L 102.916997 84.369602 
L 99.350524 84.525465 
L 98.47976 82.509438 
L 103.671597 86.195009 
L 100.577812 82.131443 
L 96.736223 79.282961 
L 100.835164 84.016477 
L 101.55439 87.254076 
L 105.107424 90.34091 
L 104.746729 96.77919 
L 105.340523 104.179682 
L 107.39347 106.041391 
L 108.036077 107.511819 
L 105.670014 107.998563 
L 104.501272 108.673456 
L 105.058919 106.459086 
L 105.670478 102.840247 
L 100.937889 94.308858 
L 103.337163 91.314244 
L 94.96519 96.611896 
L 95.495033 98.243748 
L 98.4328 94.590617 
L 95.099273 96.361958 
L 90.607198 92.498434 
L 89.805792 86.886739 
L 89.553384 88.547942 
L 85.705925 92.589264 
L 79.439419 93.857488 
L 84.659834 92.581232 
L 85.707933 94.692569 
L 81.919946 92.823137 
L 79.003187 87.114587 
L 83.532644 90.010338 
L 86.407696 87.856366 
L 84.918421 92.395401 
L 70.862924 96.481984 
L 71.584004 98.273562 
L 78.159456 96.707978 
L 77.736509 94.687008 
L 85.494142 97.764882 
L 82.927728 95.495519 
L 79.700942 87.483314 
L 85.345694 86.233473 
L 81.392266 85.658525 
L 80.403639 83.31208 
L 84.644232 78.095064 
L 84.63311 81.256199 
L 89.450659 77.002013 
L 88.563521 74.445485 
L 93.445176 68.551876 
L 88.841109 68.134181 
L 87.416868 58.578019 
L 88.076158 60.426752 
L 87.198134 63.710538 
L 86.567266 62.369558 
L 87.689358 58.808801 
L 88.371202 57.245535 
L 89.65997 53.688331 
L 91.284408 54.368012 
L 87.919986 49.849831 
L 90.858526 47.761047 
L 87.503527 44.769987 
L 77.49584 43.73579 
L 72.904748 46.767168 
L 73.513526 44.272893 
L 72.032902 50.006776 
L 74.053718 46.39597 
L 74.220394 44.011679 
L 72.504663 46.344067 
L 70.042209 45.943209 
L 70.318561 40.634745 
L 67.498193 38.449879 
L 73.534998 37.81793 
L 72.88204 40.144293 
L 70.381895 36.191793 
L 71.566703 33.408807 
L 70.604954 29.948458 
L 72.717218 32.479189 
L 71.518198 27.276075 
L 74.007685 19.296 
L 71.169707 29.13593 
L 69.609066 36.590951 
L 69.563651 35.622251 
L 69.718433 31.491643 
L 72.497402 33.415295 
L 68.76827 31.165705 
L 73.217401 28.613811 
L 73.719129 25.369878 
L 70.723744 26.256553 
L 69.490122 33.502418 
L 76.088282 38.179706 
L 76.088282 38.179706 
" style="fill:none;stroke:#e377c2;stroke-linecap:square;stroke-width:1.5;"/>
   </g>
   <g id="PathCollection_1">
    <defs>
     <path d="M 0 3 
C 0.795609 3 1.55874 2.683901 2.12132 2.12132 
C 2.683901 1.55874 3 0.795609 3 0 
C 3 -0.795609 2.683901 -1.55874 2.12132 -2.12132 
C 1.55874 -2.683901 0.795609 -3 0 -3 
C -0.795609 -3 -1.55874 -2.683901 -2.12132 -2.12132 
C -2.683901 -1.55874 -3 -0.795609 -3 0 
C -3 0.795609 -2.683901 1.55874 -2.12132 2.12132 
C -1.55874 2.683901 -0.795609 3 0 3 
z
" id="m2553240e13" style="stroke:#000000;"/>
    </defs>
    <g clip-path="url(#p0f9acf2d48)">
     <use style="stroke:#000000;" x="132.704024" xlink:href="#m2553240e13" y="186.812693"/>
    </g>
   </g>
  </g>
 </g>
 <defs>
  <clipPath id="p0f9acf2d48">
   <rect height="266.112" width="208.573081" x="7.2" y="7.2"/>
  </clipPath>
 </defs>
</svg>
