<?xml version="1.0" encoding="utf-8" standalone="no"?>
<!DOCTYPE svg PUBLIC "-//W3C//DTD SVG 1.1//EN"
  "http://www.w3.org/Graphics/SVG/1.1/DTD/svg11.dtd">
<svg height="231.84pt" version="1.1" viewBox="0 0 184.824974 231.84" width="184.824974pt" xmlns="http://www.w3.org/2000/svg" xmlns:xlink="http://www.w3.org/1999/xlink">
 <metadata>
  <rdf:RDF xmlns:cc="http://creativecommons.org/ns#" xmlns:dc="http://purl.org/dc/elements/1.1/" xmlns:rdf="http://www.w3.org/1999/02/22-rdf-syntax-ns#">
   <cc:Work>
    <dc:type rdf:resource="http://purl.org/dc/dcmitype/StillImage"/>
    <dc:date>2021-12-01T15:19:11.534884</dc:date>
    <dc:format>image/svg+xml</dc:format>
    <dc:creator>
     <cc:Agent>
      <dc:title>Matplotlib v3.4.3, https://matplotlib.org/</dc:title>
     </cc:Agent>
    </dc:creator>
   </cc:Work>
  </rdf:RDF>
 </metadata>
 <defs>
  <style type="text/css">*{stroke-linecap:butt;stroke-linejoin:round;}</style>
 </defs>
 <g id="figure_1">
  <g id="patch_1">
   <path d="M 0 231.84 
L 184.824974 231.84 
L 184.824974 0 
L 0 0 
z
" style="fill:none;"/>
  </g>
  <g id="axes_1">
   <g id="line2d_1">
    <path clip-path="url(#pb095b2c8c2)" d="M 109.749284 153.961453 
L 109.131232 156.838495 
L 105.391204 155.683874 
L 101.954768 156.401043 
L 104.290718 160.044845 
L 106.096987 155.285297 
L 103.827517 152.550366 
L 98.658273 154.977755 
L 94.465579 157.544582 
L 93.714571 159.270877 
L 96.648803 152.285545 
L 96.95943 157.422161 
L 95.074337 153.620415 
L 91.466343 154.374734 
L 89.594503 161.548564 
L 91.291403 153.129988 
L 94.412061 149.533397 
L 93.175864 151.723816 
L 93.917027 146.518814 
L 97.562634 150.131023 
L 97.945737 148.87925 
L 97.108243 146.495993 
L 96.284911 152.042003 
L 98.766872 152.409366 
L 102.571996 150.556093 
L 96.070211 151.928746 
L 90.379969 154.973912 
L 89.0043 153.42287 
L 87.712945 153.08516 
L 88.321829 151.149364 
L 94.44715 151.116623 
L 94.999488 147.402112 
L 93.251849 147.918162 
L 95.110183 149.3035 
L 96.402043 147.724301 
L 97.284559 150.789688 
L 99.343772 151.201304 
L 100.384202 154.795366 
L 103.001964 148.260597 
L 106.14355 150.009473 
L 104.250416 155.387561 
L 105.275132 157.786469 
L 109.468506 157.087615 
L 105.306068 154.253502 
L 107.099665 150.333 
L 103.799244 152.467579 
L 104.508536 155.171649 
L 105.850467 158.584961 
L 103.22695 152.939036 
L 104.649486 149.142368 
L 105.089803 148.546169 
L 110.567187 148.243304 
L 110.781614 148.411492 
L 110.437591 149.578609 
L 111.126089 148.377716 
L 108.021095 146.646447 
L 110.023836 142.935887 
L 113.93034 141.629159 
L 111.960844 141.864079 
L 114.834011 138.04463 
L 115.62315 135.493096 
L 111.758867 135.397043 
L 115.464757 128.303111 
L 117.488843 128.791203 
L 117.181018 131.396884 
L 115.448802 127.863613 
L 114.113107 127.930257 
L 116.863764 128.372027 
L 112.969252 128.313965 
L 106.366252 130.705579 
L 102.910871 129.891208 
L 100.148891 130.164727 
L 97.563884 127.812115 
L 94.750583 128.398154 
L 100.894257 124.814016 
L 95.116494 122.952148 
L 95.071055 124.422987 
L 94.859258 126.313634 
L 92.870917 128.665109 
L 89.65105 127.823854 
L 90.764814 127.801134 
L 92.374495 121.345243 
L 92.943368 124.341323 
L 91.396922 121.162477 
L 89.255603 118.544047 
L 91.292791 119.337212 
L 96.088765 116.278654 
L 90.870207 118.662946 
L 93.238343 125.669913 
L 93.124493 125.042095 
L 90.464158 126.398201 
L 89.266332 120.735854 
L 88.537791 114.895537 
L 84.264241 116.541569 
L 84.509359 112.946829 
L 83.518029 118.507569 
L 88.663506 117.232371 
L 90.970047 119.463811 
L 88.951413 124.921303 
L 88.410057 122.134117 
L 87.225862 120.134921 
L 84.43287 120.471928 
L 87.630144 120.346466 
L 90.738307 125.673952 
L 94.618052 126.629814 
L 91.350852 123.565071 
L 95.992333 120.498939 
L 97.687453 121.188857 
L 100.059565 124.26597 
L 98.280812 125.51441 
L 96.55174 121.012528 
L 98.371337 116.52718 
L 96.541768 118.791816 
L 99.884751 118.617002 
L 97.049551 120.937427 
L 95.140602 117.73826 
L 96.706233 115.297926 
L 96.48093 114.128878 
L 95.004411 109.682027 
L 98.674732 112.370636 
L 100.964915 111.623919 
L 100.002287 105.65612 
L 103.919784 106.965272 
L 98.535713 106.234964 
L 98.611874 104.858663 
L 95.875075 105.742707 
L 97.007898 104.315161 
L 93.976729 103.656546 
L 95.341039 103.352356 
L 89.757958 101.09239 
L 90.153026 103.555065 
L 92.800992 107.062588 
L 89.801504 105.258149 
L 88.195609 108.504649 
L 83.115388 106.319658 
L 83.92534 110.214675 
L 80.045974 118.043459 
L 75.946986 115.666235 
L 74.897594 115.839282 
L 74.43096 116.436555 
L 74.455825 116.679275 
L 73.973034 114.029416 
L 71.250094 117.288665 
L 71.245298 116.079605 
L 69.686483 111.161576 
L 69.277657 108.173069 
L 71.9 104.781922 
L 76.255215 105.669499 
L 73.474213 107.514076 
L 72.692787 107.16937 
L 67.535571 102.440039 
L 67.585302 106.662218 
L 65.356134 105.78802 
L 68.491812 107.662258 
L 70.894028 110.122661 
L 69.690396 110.762595 
L 70.812238 109.648832 
L 68.613741 107.564059 
L 63.187677 107.251917 
L 61.802541 109.476415 
L 63.530743 109.264114 
L 60.736236 111.985034 
L 60.553722 106.03175 
L 63.817009 99.692612 
L 67.946669 96.093581 
L 63.439107 91.050973 
L 59.893719 97.695436 
L 58.938108 98.60018 
L 54.784719 100.083263 
L 55.67419 97.655425 
L 51.634146 92.379436 
L 57.504882 95.207391 
L 55.754087 90.842079 
L 55.789934 92.428157 
L 55.272559 89.690323 
L 55.409002 85.303932 
L 52.815185 84.534496 
L 52.729482 87.036173 
L 43.516571 86.282767 
L 44.912815 88.546014 
L 43.140941 87.417357 
L 39.077799 88.056534 
L 41.043168 88.656078 
L 45.425898 87.287224 
L 47.857271 84.040219 
L 48.999812 81.807012 
L 46.620064 82.563574 
L 47.488709 82.693706 
L 48.832066 81.079229 
L 48.670757 81.011954 
L 51.629097 83.273939 
L 54.8164 81.839577 
L 54.538843 75.083914 
L 55.160602 83.675444 
L 58.721515 88.570375 
L 55.862384 91.314394 
L 59.902933 90.23067 
L 59.20784 89.522577 
L 57.863599 85.509039 
L 53.985117 87.449921 
L 53.893229 90.799038 
L 55.725435 97.488688 
L 51.407582 98.22922 
L 52.639361 97.279794 
L 53.780767 98.481155 
L 52.233943 98.205617 
L 49.713333 95.892386 
L 49.330256 93.294151 
L 53.125307 92.976204 
L 55.597953 96.986712 
L 49.593046 97.393771 
L 47.356304 95.138728 
L 48.093176 90.249477 
L 47.737488 87.215153 
L 51.677945 87.804978 
L 54.255479 85.90802 
L 55.171835 91.305684 
L 51.57659 97.123029 
L 54.104773 93.605914 
L 55.512629 97.025335 
L 51.013397 97.876562 
L 47.967334 98.303059 
L 45.454424 95.724261 
L 41.864606 98.558654 
L 39.516665 99.542158 
L 37.069011 95.339039 
L 34.964295 97.145623 
L 33.71737 94.632965 
L 34.969596 96.216014 
L 36.811522 95.919271 
L 38.189464 99.563995 
L 37.514062 98.791277 
L 40.623613 103.11317 
L 41.117006 102.827913 
L 39.159085 100.867593 
L 37.311479 99.664339 
L 40.685587 103.895227 
L 36.275467 99.785889 
L 32.141515 101.971637 
L 38.740792 102.4153 
L 37.907363 105.18065 
L 45.472978 108.965604 
L 46.409403 111.191111 
L 42.572952 108.681609 
L 40.952289 109.497873 
L 39.058487 110.319311 
L 42.644645 115.214116 
L 44.126339 112.546081 
L 44.478871 112.719255 
L 39.915899 113.122527 
L 40.693413 109.068599 
L 39.715588 108.738156 
L 37.101197 110.44288 
L 38.845807 111.331468 
L 35.99387 115.380726 
L 33.706262 121.476386 
L 31.771313 125.556567 
L 32.95273 122.330515 
L 34.899923 124.843804 
L 39.261954 126.070408 
L 42.039421 128.260953 
L 39.800155 128.952007 
L 36.931179 128.033126 
L 40.506481 123.710476 
L 37.352879 120.943612 
L 39.621302 117.096937 
L 35.76516 110.629055 
L 34.927944 112.49004 
L 34.60785 111.749003 
L 32.236811 111.340051 
L 29.988331 107.016517 
L 27.869606 110.217957 
L 24.933733 112.877156 
L 23.825649 113.3318 
L 25.536558 113.320314 
L 27.653391 118.214739 
L 26.350676 116.511529 
L 27.615146 114.778531 
L 25.905499 115.211591 
L 25.789755 115.950608 
L 28.882393 121.213975 
L 25.647506 123.557877 
L 20.990626 126.020678 
L 22.917371 125.554169 
L 19.331466 129.938667 
L 19.917883 136.566469 
L 19.526223 137.291855 
L 25.108421 140.219271 
L 23.253116 144.642884 
L 18.546631 144.388147 
L 18.30694 142.908813 
L 14.94659 145.770355 
L 15.233361 145.981673 
L 15.233361 145.981673 
" style="fill:none;stroke:#1f77b4;stroke-linecap:square;stroke-width:1.5;"/>
   </g>
   <g id="line2d_2">
    <path clip-path="url(#pb095b2c8c2)" d="M 109.749284 153.961453 
L 105.41718 155.570933 
L 101.703641 152.298823 
L 100.238381 153.199129 
L 102.978537 148.347852 
L 103.251614 149.094708 
L 108.384279 149.775323 
L 104.050181 144.828579 
L 103.14882 141.759292 
L 105.268493 143.353044 
L 101.646022 144.395645 
L 103.828413 144.666765 
L 99.937851 145.620343 
L 103.241377 144.290403 
L 103.973351 149.551346 
L 102.627444 153.847392 
L 102.069553 151.687793 
L 105.464449 146.009087 
L 109.651075 149.340495 
L 108.95201 150.337455 
L 106.890203 153.993985 
L 106.082863 156.885563 
L 106.201901 155.565253 
L 104.334125 156.09554 
L 99.658918 151.686505 
L 98.170925 152.971699 
L 97.807526 152.406993 
L 98.941093 150.060037 
L 101.903611 153.210061 
L 100.731181 152.5163 
L 100.349126 153.87386 
L 99.016371 152.29279 
L 98.865677 152.930422 
L 101.824143 152.183407 
L 101.111077 150.473344 
L 96.056832 152.069065 
L 95.312135 154.094036 
L 100.24993 152.239171 
L 98.643656 153.766947 
L 102.761325 152.65321 
L 105.351646 154.322635 
L 101.407567 152.439596 
L 99.040895 152.272822 
L 96.676445 149.28713 
L 98.586693 148.153852 
L 95.803509 144.953057 
L 88.156229 141.043991 
L 85.446163 142.582787 
L 83.917136 145.401541 
L 83.498717 145.667612 
L 84.460008 148.444777 
L 86.098593 144.452873 
L 86.242105 148.776659 
L 83.892523 148.694061 
L 83.200081 144.768397 
L 78.777087 143.231305 
L 80.812886 139.471545 
L 84.181945 139.37587 
L 86.025133 135.459143 
L 92.574932 132.94232 
L 94.371292 138.271194 
L 94.240529 134.079056 
L 93.061762 135.571226 
L 91.645575 128.138394 
L 96.21082 130.482296 
L 99.709318 136.775237 
L 94.856481 139.310362 
L 93.910338 137.713303 
L 92.563572 140.308635 
L 94.048422 140.944782 
L 96.712039 144.923395 
L 96.911719 148.676579 
L 94.568574 143.44887 
L 97.110515 138.675224 
L 96.577741 143.165582 
L 96.313437 147.921053 
L 96.655871 147.290421 
L 95.943613 139.412221 
L 96.246919 141.211485 
L 98.764676 140.884071 
L 100.008547 142.58275 
L 95.72298 146.355397 
L 99.241534 147.673939 
L 97.406235 150.308147 
L 91.90218 148.497461 
L 94.329135 149.481672 
L 92.877481 148.723028 
L 93.200225 150.560195 
L 92.88985 147.343509 
L 92.614313 147.386827 
L 92.68651 147.900416 
L 88.39794 146.434171 
L 84.807996 147.737403 
L 80.848101 145.222397 
L 74.120459 148.301719 
L 71.491174 150.617726 
L 67.322764 149.669311 
L 62.450175 150.198651 
L 60.696855 149.780839 
L 60.377519 143.623419 
L 64.215106 145.025393 
L 63.684983 145.791611 
L 64.536336 149.239987 
L 61.663825 146.759868 
L 59.155333 149.174037 
L 57.831918 148.307197 
L 60.117254 151.087125 
L 63.752132 156.412806 
L 63.649011 159.37771 
L 63.690032 156.334007 
L 63.467002 154.968781 
L 67.000652 153.860736 
L 67.91057 154.457497 
L 62.871623 157.025528 
L 68.067461 158.939512 
L 63.338131 157.316275 
L 67.117026 152.812139 
L 62.631679 153.383025 
L 65.348813 152.442928 
L 61.434989 157.449424 
L 62.415464 160.892373 
L 65.287722 149.546145 
L 65.994175 148.284339 
L 67.459713 149.15085 
L 70.157662 150.319494 
L 72.64091 153.728867 
L 74.849 159.793377 
L 70.912835 160.95003 
L 73.507788 154.520613 
L 75.238514 156.29286 
L 73.526595 156.056639 
L 73.235153 151.482319 
L 75.618814 155.812934 
L 76.973279 154.801051 
L 77.353327 158.577956 
L 75.944335 157.951072 
L 76.635136 161.249032 
L 73.539217 163.46087 
L 77.492674 158.225777 
L 79.954717 153.352508 
L 82.596498 150.092387 
L 79.62074 150.620465 
L 80.352941 148.281448 
L 78.59432 152.743805 
L 75.97122 154.481512 
L 72.403238 154.509008 
L 70.776265 153.048712 
L 72.477077 162.598978 
L 76.680954 153.515913 
L 81.681909 153.630167 
L 80.745485 153.047606 
L 85.435056 156.952661 
L 84.724186 156.77435 
L 82.376623 155.683521 
L 89.04936 149.057574 
L 91.317909 148.642109 
L 93.367592 146.270905 
L 94.092599 148.936542 
L 91.163921 150.945103 
L 96.44988 148.239606 
L 100.119595 152.334291 
L 94.152427 149.039019 
L 95.572653 149.077668 
L 94.536893 148.6076 
L 100.849423 151.536077 
L 97.460144 151.219202 
L 102.983195 156.290297 
L 103.748592 159.112206 
L 103.259831 164.896545 
L 103.490674 167.052089 
L 100.769085 163.709751 
L 102.912966 169.395865 
L 104.979449 170.701483 
L 113.012495 175.368082 
L 112.793239 176.805978 
L 107.273368 179.215514 
L 105.054815 180.361338 
L 102.910845 177.746568 
L 103.686479 177.909139 
L 101.28054 175.07298 
L 100.647371 175.836231 
L 101.241626 175.45694 
L 97.518104 178.475487 
L 99.11048 186.316767 
L 100.956231 188.323662 
L 103.35601 190.373346 
L 104.733624 187.59752 
L 103.400982 187.408442 
L 104.06948 180.335084 
L 104.926854 179.055594 
L 106.773424 178.246651 
L 103.84462 174.361731 
L 106.261666 173.059521 
L 111.258671 171.010974 
L 112.246202 170.345164 
L 108.815922 166.390457 
L 104.997511 165.085547 
L 100.800501 163.070674 
L 100.822539 156.823336 
L 105.668206 156.032317 
L 107.779712 157.361361 
L 113.23035 152.862447 
L 110.364709 155.290737 
L 111.746485 155.048549 
L 113.812173 157.681139 
L 120.026719 158.116824 
L 116.577195 155.375772 
L 116.457501 153.613019 
L 116.000774 157.573082 
L 114.213779 152.845429 
L 114.936085 149.668023 
L 114.572963 145.460927 
L 114.114975 144.254948 
L 117.317626 141.805892 
L 117.313587 142.520814 
L 115.548264 140.265972 
L 123.407656 140.041553 
L 125.577375 139.297993 
L 130.253566 140.4784 
L 134.264201 141.048409 
L 136.963538 134.550487 
L 137.846319 135.793121 
L 133.850074 134.949467 
L 128.294256 133.067404 
L 132.046519 132.590419 
L 135.449279 129.009184 
L 131.023886 126.067253 
L 134.836482 126.237776 
L 131.897327 122.812422 
L 137.207647 123.658852 
L 137.527993 123.395558 
L 134.70597 124.695622 
L 134.660658 128.715849 
L 134.120311 129.879722 
L 133.455258 123.033055 
L 132.227266 125.752587 
L 134.026908 121.691969 
L 131.401662 122.717758 
L 127.75189 119.951524 
L 129.137783 123.161168 
L 136.556227 125.079204 
L 132.948612 122.160245 
L 133.572138 118.937222 
L 138.598716 117.363387 
L 139.376609 114.383589 
L 137.951334 115.360278 
L 136.046425 114.195774 
L 143.5069 116.042118 
L 139.326752 110.417889 
L 142.640401 113.208357 
L 149.67097 112.213366 
L 145.830985 110.193849 
L 149.570626 108.855414 
L 147.270017 105.314317 
L 147.963721 106.392991 
L 147.020733 110.091863 
L 149.250406 111.751023 
L 152.228436 109.585595 
L 154.08412 106.34831 
L 155.898909 109.755235 
L 161.885262 112.601744 
L 161.978665 110.469765 
L 157.47287 110.028375 
L 166.577357 108.346369 
L 165.629699 110.99749 
L 163.892283 111.883553 
L 166.122714 112.41456 
L 160.911476 114.847952 
L 155.535522 109.172478 
L 160.868309 110.286747 
L 158.892464 108.248044 
L 158.669434 104.124064 
L 161.614521 101.409454 
L 165.544879 100.100176 
L 163.981647 106.09385 
L 166.269381 105.215108 
L 169.878384 106.931445 
L 167.852051 101.790386 
L 169.775768 107.216828 
L 165.090867 112.851786 
L 166.567891 108.039024 
L 162.591336 109.017985 
L 164.22929 108.468298 
L 162.227444 110.493747 
L 158.051083 113.471777 
L 155.881743 117.334609 
L 152.067632 117.290684 
L 159.713019 117.987291 
L 159.78812 118.883578 
L 162.886564 118.913492 
L 161.993306 117.337007 
L 159.919893 119.579933 
L 163.914372 115.156181 
L 163.039795 124.299797 
L 163.129916 125.014453 
L 159.762497 115.801543 
L 158.386575 115.285935 
L 158.386575 115.285935 
" style="fill:none;stroke:#ff7f0e;stroke-linecap:square;stroke-width:1.5;"/>
   </g>
   <g id="line2d_3">
    <path clip-path="url(#pb095b2c8c2)" d="M 109.749284 153.961453 
L 106.33861 156.794975 
L 97.898568 156.027899 
L 102.619972 155.203045 
L 98.436492 157.387539 
L 98.223016 161.207847 
L 98.450515 157.886423 
L 99.523421 158.67671 
L 101.651626 158.976735 
L 100.972639 159.295074 
L 99.796195 158.300689 
L 96.295009 158.276454 
L 94.511649 159.936636 
L 100.620928 157.342706 
L 97.795257 157.289857 
L 94.718523 158.522268 
L 99.845862 161.320586 
L 106.838491 160.980979 
L 109.358045 160.048669 
L 113.071553 155.658555 
L 111.429698 153.297599 
L 110.925314 154.136388 
L 116.609949 157.377012 
L 117.184426 154.204625 
L 115.668879 157.019103 
L 114.053468 155.933461 
L 117.030173 165.503069 
L 118.916149 162.243442 
L 122.196501 156.917749 
L 119.749932 153.361341 
L 124.236163 153.3185 
L 126.998484 157.370916 
L 122.87463 149.671305 
L 123.450445 148.866767 
L 123.894107 150.092273 
L 121.546898 150.430568 
L 123.5571 152.840128 
L 119.236508 150.998481 
L 111.595362 153.130368 
L 110.32867 150.284191 
L 110.594751 146.279274 
L 115.918391 144.363888 
L 116.257291 145.642533 
L 116.133154 143.109099 
L 119.79989 143.44112 
L 118.827593 143.344903 
L 116.488059 140.420087 
L 120.356166 142.354014 
L 121.312256 138.951014 
L 118.976949 139.753015 
L 115.652521 139.961278 
L 121.856781 137.009627 
L 123.728507 141.329374 
L 123.281184 141.971177 
L 120.134309 138.982317 
L 116.798067 134.565002 
L 109.708792 136.447066 
L 106.894355 136.311632 
L 106.331907 140.521694 
L 100.408942 139.527081 
L 100.899331 137.335905 
L 100.539175 138.325847 
L 97.905977 134.158953 
L 95.145525 137.938226 
L 99.021647 138.694157 
L 107.099034 135.308941 
L 106.194151 136.607491 
L 110.712287 134.542661 
L 110.785344 133.636403 
L 111.161254 133.13531 
L 115.638965 129.426593 
L 118.040638 130.905889 
L 117.818352 132.503832 
L 113.196271 133.184662 
L 110.580224 131.724677 
L 110.261693 126.088079 
L 111.326135 126.67336 
L 112.709416 125.693642 
L 118.39986 120.871035 
L 114.157448 121.742331 
L 115.231326 117.833934 
L 114.247064 117.826487 
L 108.933097 120.426489 
L 109.581463 125.217667 
L 110.992235 129.366639 
L 113.731872 127.251321 
L 113.033006 127.113363 
L 110.028656 128.493829 
L 109.593372 127.248292 
L 110.965422 127.489498 
L 105.161862 127.573055 
L 102.650012 129.692412 
L 105.753189 126.524926 
L 103.592496 123.416384 
L 104.844962 123.126962 
L 104.497201 125.09435 
L 106.996429 125.246572 
L 111.059622 127.962317 
L 109.326241 125.262349 
L 109.140379 126.015503 
L 108.039876 123.602558 
L 109.707991 124.020346 
L 111.116307 127.871439 
L 112.178927 121.332369 
L 112.460271 122.173498 
L 111.909776 125.930683 
L 115.259902 125.068223 
L 118.496721 119.166311 
L 116.909696 121.820966 
L 111.784566 121.663822 
L 114.257174 118.717347 
L 116.618229 115.452671 
L 115.464227 119.277889 
L 115.444915 122.912515 
L 114.233886 124.357858 
L 117.511436 130.866761 
L 110.526151 129.630564 
L 109.980272 130.648653 
L 113.511429 129.090975 
L 113.230085 131.017341 
L 110.453873 125.106215 
L 111.43375 125.764704 
L 112.57792 124.100243 
L 109.453725 124.979617 
L 107.567965 125.67635 
L 104.12166 125.202395 
L 99.952089 127.02097 
L 98.251643 127.290323 
L 96.156545 128.289605 
L 94.337213 126.741267 
L 93.348533 125.442717 
L 96.396616 127.988697 
L 100.030863 124.032716 
L 95.45287 123.526448 
L 92.912696 119.550271 
L 94.472773 119.475044 
L 91.592816 116.909122 
L 91.297966 117.222147 
L 92.711754 111.445697 
L 91.784796 114.552724 
L 90.989737 112.819221 
L 91.260226 114.936811 
L 91.70086 109.58042 
L 88.087186 110.727001 
L 85.996734 110.563547 
L 86.625561 114.758715 
L 89.072206 121.212081 
L 95.535291 119.904065 
L 95.564827 116.396164 
L 95.785081 110.883261 
L 97.164751 112.224726 
L 97.873981 109.089425 
L 98.184191 113.703391 
L 96.324923 111.679835 
L 92.306841 111.765285 
L 97.04122 115.832845 
L 102.06381 114.605358 
L 104.281959 114.815387 
L 103.332079 114.336888 
L 104.464599 108.424247 
L 107.08053 113.572501 
L 108.3735 112.791579 
L 111.850149 111.167887 
L 115.014543 111.350653 
L 112.448823 113.732926 
L 106.960141 114.694342 
L 105.654498 119.369272 
L 109.184711 126.302653 
L 110.281664 127.498838 
L 107.205727 122.641647 
L 111.235673 121.335398 
L 109.717032 127.390163 
L 111.636055 128.5943 
L 106.573177 127.925966 
L 109.242392 133.730689 
L 109.947186 132.555709 
L 113.488217 133.695221 
L 108.331987 136.263037 
L 113.458808 131.946698 
L 110.671263 132.772428 
L 109.324386 130.497316 
L 111.851613 133.031684 
L 108.492849 133.225557 
L 109.865814 137.374276 
L 113.649135 131.2381 
L 114.470447 128.996184 
L 113.231701 125.377209 
L 112.095685 125.534858 
L 112.413178 122.438812 
L 114.469488 121.238587 
L 111.458881 119.977904 
L 108.673902 121.241491 
L 112.528922 124.579878 
L 111.062803 125.007637 
L 111.679614 125.558334 
L 112.880267 124.873844 
L 113.011788 123.296097 
L 109.661616 123.907379 
L 105.473019 116.707801 
L 111.2915 119.418245 
L 113.841608 121.253355 
L 112.037863 118.451654 
L 109.515251 122.194703 
L 106.544272 123.567343 
L 108.187755 117.191728 
L 108.133102 119.083637 
L 103.659026 120.156884 
L 100.639091 116.878703 
L 97.176187 118.976224 
L 94.600255 113.30908 
L 93.652597 111.959412 
L 88.776978 114.929869 
L 86.670117 115.584445 
L 83.361264 118.024147 
L 79.472684 118.534833 
L 79.211914 115.902392 
L 73.595763 115.817446 
L 71.053317 113.565054 
L 67.5463 112.877913 
L 61.579637 114.411736 
L 56.229179 116.548259 
L 56.679405 112.909468 
L 55.912619 109.28961 
L 54.505647 105.788398 
L 53.58298 109.748167 
L 52.306519 108.008605 
L 49.099274 110.343924 
L 43.60177 109.447511 
L 38.95789 106.627129 
L 35.999929 111.787626 
L 39.3055 108.509445 
L 40.947493 104.106519 
L 45.126 110.277154 
L 47.374985 109.55606 
L 46.484504 107.381545 
L 41.774233 111.70571 
L 39.509849 113.435426 
L 40.548007 116.073546 
L 45.931283 117.901083 
L 46.041977 118.670772 
L 44.04619 115.69779 
L 44.133534 116.718403 
L 48.987822 119.789458 
L 47.377383 122.857483 
L 44.904611 120.737495 
L 42.313823 117.258246 
L 47.422191 118.119065 
L 43.554942 120.853996 
L 42.034751 120.606731 
L 39.51919 120.415634 
L 40.714744 125.339343 
L 38.355191 122.474153 
L 39.028447 122.65856 
L 40.208097 122.380877 
L 36.767471 115.802552 
L 39.957551 111.122322 
L 39.346142 109.408761 
L 35.875981 109.378847 
L 36.526897 112.726828 
L 39.178649 113.238649 
L 40.617933 112.013307 
L 35.828522 113.844883 
L 31.521397 110.047434 
L 30.837791 112.232551 
L 31.696717 112.400676 
L 32.680348 108.493794 
L 37.032154 107.311241 
L 38.343452 112.22359 
L 36.285564 108.26988 
L 32.662551 110.091358 
L 34.837318 109.768488 
L 33.413306 107.815994 
L 33.630278 110.071542 
L 27.740609 115.681508 
L 32.125864 114.328053 
L 29.237828 116.5706 
L 28.666936 114.786862 
L 34.621735 113.455874 
L 34.674873 111.522943 
L 35.305089 107.428625 
L 31.355923 110.176809 
L 32.279095 112.803443 
L 33.070241 112.110875 
L 36.420493 113.427096 
L 33.55707 114.569511 
L 36.045747 114.812232 
L 37.415358 115.74487 
L 38.509052 115.754589 
L 41.400748 113.557607 
L 39.139268 116.413204 
L 32.332612 111.916371 
L 40.528948 115.150627 
L 39.888256 114.472322 
L 39.351696 115.473245 
L 42.711036 112.650591 
L 44.171526 107.233363 
L 45.881931 109.079328 
L 42.218905 108.979488 
L 42.718862 112.934207 
L 42.718862 112.934207 
" style="fill:none;stroke:#2ca02c;stroke-linecap:square;stroke-width:1.5;"/>
   </g>
   <g id="line2d_4">
    <path clip-path="url(#pb095b2c8c2)" d="M 109.749284 153.961453 
L 107.882379 156.810639 
L 115.664096 157.939776 
L 114.100914 156.523716 
L 115.122171 159.770064 
L 116.079485 160.259923 
L 114.949767 164.376292 
L 112.246972 170.056121 
L 113.967802 171.714523 
L 120.278755 170.610604 
L 117.126933 170.933853 
L 118.229412 175.58884 
L 118.553646 173.564653 
L 117.943083 176.974103 
L 115.772569 177.984366 
L 113.768388 180.213787 
L 113.582605 177.693051 
L 109.384164 179.524626 
L 106.865792 178.655477 
L 107.066898 174.298369 
L 108.690421 173.192683 
L 111.352452 177.915702 
L 105.618816 178.862351 
L 101.960524 173.886009 
L 102.904446 177.459039 
L 104.438004 177.344053 
L 107.559117 173.923243 
L 104.874902 175.11905 
L 109.960274 176.316245 
L 111.497655 170.937388 
L 113.443498 171.498561 
L 120.330253 173.844104 
L 120.477173 173.531583 
L 119.63126 173.726214 
L 118.964605 170.870112 
L 116.623568 172.164623 
L 118.220804 172.119184 
L 121.892551 173.13601 
L 119.133121 180.811437 
L 120.041828 180.084916 
L 123.163799 182.408497 
L 125.482079 181.465004 
L 125.879293 182.938241 
L 130.972893 185.23986 
L 130.313521 185.871085 
L 131.834848 188.357237 
L 126.019901 190.797949 
L 126.845253 188.227104 
L 129.192689 187.764382 
L 127.172415 183.506862 
L 125.339829 184.380303 
L 125.447242 186.294805 
L 123.541575 186.321942 
L 121.617758 181.872694 
L 124.348625 187.37512 
L 126.005891 188.160334 
L 127.559657 185.920311 
L 126.982454 186.855221 
L 130.632226 189.236105 
L 126.474798 182.133085 
L 127.467643 181.549066 
L 124.0072 181.243488 
L 123.743653 182.338192 
L 128.21398 184.15336 
L 130.293957 186.410927 
L 124.889098 184.900455 
L 123.204064 181.142638 
L 122.559585 183.290016 
L 131.833207 184.242849 
L 128.790553 185.79245 
L 128.387911 184.458559 
L 128.314199 179.404213 
L 127.37424 181.731201 
L 125.005978 182.97169 
L 123.575907 184.323504 
L 124.156518 183.230566 
L 124.319089 186.819879 
L 126.77457 188.753567 
L 130.133531 183.068626 
L 127.141364 183.147135 
L 127.521412 184.937058 
L 127.228582 184.866628 
L 127.830651 186.101184 
L 130.155872 184.129252 
L 129.050944 184.731068 
L 130.596379 183.665899 
L 128.497092 188.962587 
L 123.313496 190.303294 
L 124.248785 190.145267 
L 120.288663 184.25585 
L 121.691559 183.131863 
L 121.253551 185.88295 
L 118.697612 184.18605 
L 118.862342 185.894057 
L 112.666653 184.464744 
L 115.824534 188.260931 
L 119.319333 188.379199 
L 118.302431 190.306828 
L 120.89626 190.218222 
L 120.778144 184.873317 
L 122.729477 186.717768 
L 129.533735 180.536278 
L 129.555066 185.229005 
L 131.341834 184.577711 
L 132.520853 185.225092 
L 128.998941 184.330194 
L 129.677752 185.951361 
L 130.026876 191.33817 
L 130.954591 193.787718 
L 131.883317 191.838884 
L 133.619092 191.430184 
L 131.193399 194.780942 
L 133.813849 194.347124 
L 137.093923 190.967715 
L 138.46568 185.909708 
L 137.632377 190.97087 
L 135.381499 192.360677 
L 135.520341 191.706101 
L 133.752632 190.380162 
L 137.832183 194.137852 
L 136.545498 197.162962 
L 131.328076 195.549116 
L 126.54851 196.769914 
L 123.362469 192.172357 
L 124.094418 188.618764 
L 125.961083 188.4129 
L 127.268342 193.517481 
L 128.889761 191.600455 
L 126.497139 189.515682 
L 130.797321 192.330637 
L 128.891402 199.071532 
L 126.04767 200.292078 
L 126.432514 204.2704 
L 124.4987 206.709093 
L 124.709992 201.821736 
L 130.164329 204.492294 
L 136.885534 199.614277 
L 138.209075 194.320618 
L 138.103303 198.339457 
L 133.293318 199.033161 
L 131.685278 199.627025 
L 135.129186 195.902279 
L 134.914359 192.349191 
L 131.139756 196.094259 
L 132.538145 195.728348 
L 134.335263 191.720616 
L 131.558553 193.787339 
L 128.627981 193.389368 
L 126.324596 194.026652 
L 129.346551 192.933589 
L 130.741027 198.019995 
L 130.215953 195.762175 
L 134.613073 195.278753 
L 139.4223 193.552192 
L 142.158619 196.732805 
L 141.267255 197.18707 
L 138.7368 196.538048 
L 139.082516 194.903123 
L 140.196911 199.979431 
L 144.3166 203.277176 
L 146.343942 205.955435 
L 151.257427 204.853662 
L 149.821172 203.282099 
L 152.629563 202.482244 
L 148.617919 197.741554 
L 149.315157 193.830002 
L 154.714714 197.615208 
L 152.386968 199.803733 
L 154.979397 197.250306 
L 154.481839 192.636341 
L 154.347541 192.587999 
L 160.408616 200.730944 
L 162.950305 202.966044 
L 159.329816 203.53416 
L 158.479851 200.877485 
L 155.819769 198.120718 
L 157.286822 196.801974 
L 156.77803 200.987423 
L 160.528273 206.125705 
L 156.530386 204.677838 
L 156.109569 204.740443 
L 154.994796 203.626427 
L 150.253222 205.62903 
L 150.07033 205.419505 
L 149.873932 202.981443 
L 150.906789 206.645983 
L 149.980335 207.015933 
L 148.777587 203.353792 
L 141.697917 201.254756 
L 136.82924 201.328469 
L 139.565938 200.477242 
L 138.378462 194.677189 
L 140.252195 191.843049 
L 141.842818 190.30241 
L 138.644281 186.847522 
L 134.997412 188.755334 
L 128.999951 183.086676 
L 129.365736 182.715842 
L 129.689111 177.934888 
L 129.646954 179.159977 
L 124.011365 175.681233 
L 121.609945 173.483367 
L 123.713992 170.449548 
L 120.361682 171.447947 
L 122.668513 168.490616 
L 123.166829 169.535212 
L 122.069612 169.811885 
L 124.530508 165.034528 
L 123.102709 168.833682 
L 124.392171 172.176361 
L 120.733298 171.032431 
L 116.899321 168.619739 
L 118.082619 169.782224 
L 120.864403 169.77566 
L 116.477923 165.870886 
L 115.977386 168.728415 
L 117.385658 165.770024 
L 122.572207 164.669968 
L 121.45886 169.198836 
L 119.126621 173.512398 
L 121.843906 175.412764 
L 120.177741 170.436547 
L 119.879269 167.723074 
L 122.249955 168.595757 
L 120.870082 165.526836 
L 119.255718 159.129435 
L 120.814874 163.116328 
L 130.326522 155.135323 
L 123.12139 159.242995 
L 118.895575 163.688811 
L 118.140995 160.075983 
L 118.148203 158.228327 
L 110.283019 155.81229 
L 108.262225 159.651569 
L 109.109521 159.717658 
L 106.495741 162.19611 
L 107.4926 163.83669 
L 109.207058 163.231567 
L 108.863963 158.867971 
L 111.3147 154.240578 
L 111.277944 150.90499 
L 103.067863 152.169435 
L 103.117429 150.667053 
L 103.813557 145.85496 
L 103.411193 152.388363 
L 102.360805 156.507774 
L 104.192734 164.858187 
L 102.632228 167.257827 
L 99.363198 169.148727 
L 100.926847 172.232024 
L 101.481141 168.614059 
L 96.736273 169.770359 
L 94.386439 165.35341 
L 100.838101 167.192824 
L 101.704903 166.753705 
L 97.262963 168.058566 
L 97.915027 170.179059 
L 101.591205 169.953252 
L 104.069922 171.406294 
L 105.319599 171.117629 
L 107.71698 169.183942 
L 110.398865 169.084102 
L 116.328719 166.398738 
L 111.085548 163.979482 
L 109.313295 164.065047 
L 109.628792 164.81738 
L 111.296297 166.07068 
L 116.050568 163.89754 
L 118.007455 160.812438 
L 112.896183 169.218526 
L 113.772313 166.94354 
L 111.206946 164.717805 
L 109.765501 167.137288 
L 113.479243 163.187529 
L 114.713698 160.929267 
L 112.776615 163.147807 
L 114.741479 161.694639 
L 120.792331 160.552374 
L 118.671737 159.449504 
L 119.460927 161.123481 
L 123.252532 159.820716 
L 119.369177 161.133478 
L 119.040981 159.602697 
L 124.955616 156.740094 
L 127.017543 155.506422 
L 125.123362 157.982047 
L 126.589279 154.247863 
L 127.784202 155.681022 
L 133.716533 154.182168 
L 133.15902 154.009958 
L 127.977697 154.073391 
L 128.140268 157.070992 
L 131.963845 156.805653 
L 129.868596 156.712212 
L 132.028596 156.062294 
L 136.094893 156.688193 
L 131.378059 154.445287 
L 132.79841 154.41716 
L 130.100209 156.896443 
L 130.100209 156.896443 
" style="fill:none;stroke:#d62728;stroke-linecap:square;stroke-width:1.5;"/>
   </g>
   <g id="line2d_5">
    <path clip-path="url(#pb095b2c8c2)" d="M 109.749284 153.961453 
L 111.647996 154.816945 
L 107.480293 152.691101 
L 106.334848 151.521662 
L 104.942151 154.522757 
L 105.912012 153.586907 
L 109.825553 153.12526 
L 110.188046 152.141288 
L 112.020647 157.895031 
L 113.502114 154.097498 
L 110.371044 152.288776 
L 112.152345 151.263025 
L 113.673912 155.108438 
L 111.353815 153.225103 
L 117.310469 151.043251 
L 114.202571 155.355753 
L 114.901602 153.412833 
L 114.142263 157.628467 
L 109.110873 160.57724 
L 107.810421 168.091636 
L 106.614223 167.259216 
L 104.43755 169.782729 
L 105.244877 169.892792 
L 104.568629 166.885353 
L 105.84273 173.622335 
L 102.55507 174.292689 
L 97.532215 169.354591 
L 92.663286 168.715793 
L 96.952488 167.725724 
L 98.808487 168.134045 
L 100.529204 170.061927 
L 99.366694 168.433186 
L 101.188753 168.982495 
L 97.367789 171.583633 
L 95.563817 174.59082 
L 95.517621 176.29504 
L 95.68827 175.971917 
L 97.454918 174.013112 
L 95.918116 177.141975 
L 99.115832 172.798751 
L 97.835484 173.406626 
L 96.621539 172.00811 
L 98.436302 172.635296 
L 98.854002 174.663649 
L 99.528369 170.141572 
L 97.673947 170.334562 
L 106.210863 170.35097 
L 103.30556 169.548843 
L 103.989974 168.028652 
L 105.757153 170.808517 
L 107.393971 170.831994 
L 103.050647 171.782429 
L 98.523912 173.287727 
L 100.289487 170.677122 
L 95.760973 173.86493 
L 99.206433 170.415721 
L 95.744943 176.688593 
L 94.226266 175.923701 
L 88.241048 174.808044 
L 97.467641 175.775014 
L 95.709853 178.727043 
L 97.250354 181.883044 
L 94.46154 179.414941 
L 91.779873 180.876441 
L 90.77794 182.41708 
L 90.016456 182.105064 
L 90.767843 176.141178 
L 89.827 177.636757 
L 93.565126 178.741054 
L 98.819948 179.299829 
L 95.902339 181.191612 
L 98.629419 179.239243 
L 98.48077 181.652819 
L 99.411388 180.335715 
L 101.645176 182.477034 
L 101.922065 184.498192 
L 99.2276 188.392831 
L 104.621288 194.116647 
L 107.381766 193.791252 
L 111.889959 191.266982 
L 113.899732 195.168184 
L 115.868925 196.515076 
L 114.804488 194.281111 
L 110.855015 197.045704 
L 111.333708 200.309496 
L 108.676888 199.447667 
L 109.579005 198.144069 
L 108.540816 198.403955 
L 104.976938 197.635024 
L 107.672021 196.139067 
L 104.024546 194.68249 
L 103.854755 195.592788 
L 101.015049 195.057363 
L 103.914672 196.608857 
L 107.685501 199.358177 
L 113.20724 194.970524 
L 109.609662 195.234197 
L 110.906805 195.50557 
L 109.875676 194.236934 
L 110.068149 190.372084 
L 110.962307 190.498808 
L 117.501175 185.486367 
L 116.064313 183.590293 
L 116.340558 186.125039 
L 115.227829 191.877381 
L 112.847097 190.743296 
L 114.454821 190.423329 
L 116.361119 190.966831 
L 114.14889 189.365354 
L 108.857862 189.535751 
L 105.442171 185.613344 
L 103.001105 181.518016 
L 100.811621 186.859134 
L 93.041314 190.724616 
L 92.923677 192.955551 
L 92.472568 197.804537 
L 94.257568 200.968868 
L 89.573298 198.101154 
L 90.123491 194.839634 
L 89.50615 195.914143 
L 84.480708 193.412088 
L 86.482175 190.946384 
L 86.854019 189.950509 
L 89.381823 200.155508 
L 82.187041 193.251536 
L 89.605485 198.02517 
L 88.256068 197.558788 
L 86.145421 199.825695 
L 83.873085 194.588078 
L 80.507686 194.169407 
L 82.359205 194.235167 
L 77.37693 195.618915 
L 72.28232 194.847586 
L 71.480698 189.497885 
L 72.615792 192.831729 
L 67.692084 195.387554 
L 66.195243 195.351329 
L 70.81817 188.855426 
L 73.511322 191.741569 
L 76.459438 191.586192 
L 80.548329 193.423321 
L 75.860651 195.249091 
L 75.968065 194.870432 
L 71.354352 202.827076 
L 71.609694 201.929149 
L 69.981206 202.354636 
L 71.899621 197.649287 
L 76.74154 202.8243 
L 73.303438 202.464826 
L 74.952752 202.865447 
L 71.965508 202.818367 
L 72.321953 199.979052 
L 70.827131 197.765409 
L 67.332862 197.367186 
L 73.432056 192.373804 
L 69.132252 193.971368 
L 66.456013 196.653287 
L 67.432071 197.366555 
L 63.874313 198.992645 
L 62.159869 202.921489 
L 61.189996 206.378018 
L 55.373156 205.980426 
L 54.485452 205.616029 
L 52.880315 211.323058 
L 51.165745 213.755567 
L 56.406896 214.127789 
L 54.088743 212.344555 
L 54.176592 214.756364 
L 52.207815 210.395974 
L 53.428992 207.575466 
L 46.294291 211.082231 
L 47.138954 212.206723 
L 45.10896 209.59208 
L 50.679924 209.40275 
L 49.759908 211.705252 
L 49.780734 208.388953 
L 49.420882 209.960263 
L 48.52043 205.439574 
L 51.889868 204.232408 
L 51.624427 203.002522 
L 49.977259 201.501642 
L 47.646484 197.977837 
L 53.823681 197.647141 
L 52.993534 197.763137 
L 55.8201 198.728593 
L 58.323923 190.892488 
L 58.279746 192.26374 
L 60.976937 188.944159 
L 65.794747 194.038264 
L 64.677576 194.755445 
L 66.245478 188.800016 
L 66.074955 186.714233 
L 63.79795 191.587202 
L 62.702993 188.542149 
L 65.281916 188.398763 
L 63.297741 188.896069 
L 62.221464 184.788876 
L 66.436196 185.270657 
L 67.040663 181.612176 
L 66.076975 183.68824 
L 69.515708 186.402975 
L 65.889665 186.402723 
L 70.323767 189.245067 
L 69.213537 186.344788 
L 69.200158 180.603301 
L 68.880065 181.638303 
L 71.202762 180.893607 
L 70.621898 182.415691 
L 69.672346 179.894577 
L 74.274321 183.79275 
L 76.455147 187.985646 
L 76.547161 185.296028 
L 75.827834 183.11457 
L 76.470924 181.406438 
L 76.771706 183.182224 
L 75.49474 192.527413 
L 73.711002 186.292154 
L 73.032192 188.671524 
L 71.952634 190.77056 
L 68.2111 195.282413 
L 66.42471 193.898792 
L 66.935775 196.685346 
L 65.263741 197.442413 
L 67.899715 202.595084 
L 70.709747 200.744828 
L 63.354666 201.280126 
L 63.391901 199.892466 
L 65.681781 195.538261 
L 66.970485 192.781999 
L 65.871868 197.665569 
L 64.015932 200.809579 
L 64.345996 197.816024 
L 66.560649 196.956719 
L 67.159562 196.432654 
L 70.075997 201.662446 
L 69.371817 204.240865 
L 72.850309 203.536684 
L 72.113564 206.332327 
L 73.242474 210.478017 
L 72.720429 208.951893 
L 74.894817 210.042937 
L 73.674903 211.464172 
L 71.533458 213.569392 
L 75.694294 213.208025 
L 74.147975 208.700211 
L 71.67293 211.574993 
L 75.164297 208.079462 
L 71.598461 212.408675 
L 69.213537 211.674581 
L 68.170835 209.31995 
L 76.010348 206.718307 
L 73.135313 202.876302 
L 80.532552 202.98523 
L 75.423805 201.669893 
L 73.50438 204.218145 
L 74.977491 198.147224 
L 71.906563 194.436362 
L 75.032145 190.998639 
L 71.751187 187.104253 
L 78.138288 187.024482 
L 78.0257 189.900905 
L 81.50659 191.140636 
L 77.395611 187.685116 
L 78.61603 187.988422 
L 74.251854 193.798194 
L 71.930419 186.007781 
L 67.266218 193.911035 
L 62.652379 198.096989 
L 65.063682 196.69557 
L 64.678333 198.084114 
L 62.330771 199.907865 
L 62.856098 201.941644 
L 59.39717 198.706631 
L 58.026927 196.152951 
L 52.751949 197.241092 
L 49.020008 190.518246 
L 50.90914 195.958699 
L 53.277654 195.61942 
L 47.429386 196.049072 
L 51.074235 195.600866 
L 48.945412 193.25141 
L 46.595577 185.733505 
L 48.881418 183.904328 
L 44.774604 186.214782 
L 42.874112 181.635653 
L 41.250673 182.294142 
L 40.036438 179.498751 
L 43.673084 185.03551 
L 41.638673 179.308286 
L 44.050607 178.581133 
L 41.063237 178.320111 
L 40.600641 173.890174 
L 33.897864 167.933608 
L 35.727673 165.479214 
L 35.284136 163.418599 
L 33.742487 166.397273 
L 33.685688 172.415674 
L 35.494418 174.598015 
L 35.494418 174.598015 
" style="fill:none;stroke:#9467bd;stroke-linecap:square;stroke-width:1.5;"/>
   </g>
   <g id="line2d_6">
    <path clip-path="url(#pb095b2c8c2)" d="M 109.749284 153.961453 
L 109.418994 156.187012 
L 108.61733 157.109552 
L 110.102482 152.20465 
L 115.166827 153.837931 
L 112.592208 149.384029 
L 121.070179 147.179158 
L 118.147975 143.969956 
L 112.114163 144.895223 
L 107.658553 146.454126 
L 107.05001 142.749322 
L 108.504914 141.684203 
L 109.872697 141.548151 
L 111.927509 144.931107 
L 109.298189 135.103582 
L 110.945709 134.268259 
L 115.623907 135.049812 
L 113.742879 133.87054 
L 116.036469 134.352953 
L 121.93101 139.341538 
L 115.336921 144.383263 
L 117.091768 140.351171 
L 117.811511 142.806525 
L 117.192479 145.338305 
L 119.940373 146.073106 
L 118.723033 149.004637 
L 115.966329 151.923748 
L 118.153567 150.144566 
L 120.286 151.020936 
L 121.402894 150.176172 
L 118.536922 154.721394 
L 118.647743 151.308931 
L 112.9251 141.558173 
L 118.534574 139.202697 
L 117.96016 141.426702 
L 115.839768 142.195848 
L 118.913322 136.746333 
L 117.887571 130.780679 
L 118.893808 129.752745 
L 114.96037 129.779378 
L 113.49805 125.185607 
L 113.541684 129.019408 
L 107.393921 124.197432 
L 107.685047 121.652967 
L 105.905234 125.300467 
L 104.022274 128.587484 
L 107.872054 131.488015 
L 107.49236 124.170169 
L 111.183469 123.482145 
L 111.367876 126.086438 
L 110.612992 131.113142 
L 109.231202 127.990717 
L 107.57078 127.001784 
L 108.646949 124.899846 
L 103.764483 125.311701 
L 107.698376 125.509361 
L 102.868524 128.944812 
L 101.726538 128.641127 
L 101.303701 127.23567 
L 103.857494 125.764451 
L 106.945298 122.430481 
L 106.174991 119.210235 
L 109.570959 117.91787 
L 109.448983 113.362092 
L 113.424287 110.57213 
L 117.99039 113.934625 
L 111.646809 115.415058 
L 113.257677 114.378162 
L 120.729499 111.277951 
L 123.976529 119.642285 
L 124.955995 118.581787 
L 126.451826 123.71603 
L 126.293041 125.835892 
L 126.239398 123.70202 
L 133.378264 123.442764 
L 128.255381 124.032842 
L 119.372661 124.326177 
L 120.302573 127.260787 
L 122.185545 129.456255 
L 119.492898 132.317532 
L 117.312287 130.851236 
L 112.95995 129.701121 
L 110.841961 128.754346 
L 106.95436 128.441069 
L 101.473151 129.239788 
L 102.829939 128.62333 
L 100.987533 126.758559 
L 105.400557 126.135159 
L 104.309411 127.638437 
L 109.043662 124.187335 
L 107.640681 115.57258 
L 106.133742 120.527465 
L 104.016998 118.464781 
L 99.849863 116.9586 
L 96.959556 118.194797 
L 96.751041 119.745533 
L 102.177963 118.608419 
L 104.308515 114.185046 
L 105.377395 114.531014 
L 109.388123 109.092202 
L 113.275196 113.747441 
L 115.806724 114.455282 
L 110.72768 114.655593 
L 115.095513 118.253236 
L 119.334833 122.55973 
L 118.748176 119.675986 
L 111.358523 115.516033 
L 113.389539 116.329015 
L 113.499022 116.613136 
L 107.847971 115.228252 
L 108.365687 115.45103 
L 112.474155 115.074643 
L 113.67366 116.069886 
L 115.063479 118.441683 
L 115.499682 123.377635 
L 118.016972 120.625285 
L 118.41878 123.85159 
L 114.962541 122.865687 
L 118.962043 121.702824 
L 115.447515 119.631304 
L 107.448662 120.199925 
L 107.007524 116.53021 
L 111.260715 119.194205 
L 106.674304 121.583672 
L 105.643946 124.251581 
L 101.882709 124.606763 
L 102.650706 123.875824 
L 102.871856 124.451892 
L 103.185626 122.335438 
L 101.189535 119.894599 
L 100.923237 122.599994 
L 100.450443 121.860599 
L 101.742403 120.093016 
L 103.487683 120.379788 
L 102.342048 125.847125 
L 103.516284 127.5078 
L 103.328949 130.306219 
L 105.675993 134.657773 
L 106.978759 134.827034 
L 106.792181 136.157643 
L 108.279025 144.386406 
L 110.719206 140.516645 
L 116.228525 140.133946 
L 123.275125 141.219437 
L 120.428856 140.862613 
L 122.15832 142.645241 
L 119.485943 140.0774 
L 123.777228 142.04735 
L 125.291865 146.468629 
L 128.229127 145.485793 
L 134.458327 151.983008 
L 133.486308 149.814577 
L 133.440364 154.219837 
L 136.903331 155.646425 
L 134.640841 158.095998 
L 138.928276 157.472157 
L 133.676017 151.910785 
L 128.933055 148.929423 
L 129.395398 145.890719 
L 128.51918 144.497858 
L 133.158642 149.6009 
L 133.313135 152.741385 
L 134.048744 158.311859 
L 137.744081 154.146559 
L 144.028692 158.895159 
L 151.283934 158.491823 
L 152.931859 158.000866 
L 149.95446 154.024695 
L 148.282931 155.445697 
L 145.686716 158.596497 
L 152.11547 162.653114 
L 152.588542 162.688784 
L 149.076096 161.302221 
L 142.426963 162.590635 
L 140.635651 164.094822 
L 138.669904 162.715858 
L 142.926541 161.891693 
L 148.435783 162.214854 
L 146.897416 155.960296 
L 140.884304 155.868042 
L 137.091904 150.904006 
L 136.369421 150.633049 
L 135.451551 152.410123 
L 134.711398 152.758214 
L 135.664484 155.289475 
L 133.867997 157.289908 
L 132.742116 156.515953 
L 131.632013 154.356364 
L 132.258568 165.016971 
L 129.221215 164.977225 
L 125.847738 161.733085 
L 127.367172 162.412463 
L 127.869527 163.716554 
L 125.438407 159.689309 
L 126.583094 160.19497 
L 124.273272 156.466248 
L 130.256091 159.882463 
L 131.556407 158.423703 
L 131.532047 155.432848 
L 133.5036 154.146675 
L 135.950245 151.163274 
L 135.80686 144.24591 
L 131.069578 145.87383 
L 134.843045 144.424802 
L 135.235715 146.52207 
L 133.204207 147.555104 
L 131.851131 149.362395 
L 133.675133 152.286845 
L 132.432247 148.657659 
L 130.964815 148.272537 
L 133.326135 153.461002 
L 132.130708 153.808707 
L 130.473694 158.543271 
L 132.100162 164.365526 
L 135.955799 158.589391 
L 132.202779 161.429413 
L 135.785024 163.157955 
L 135.616394 160.409733 
L 139.028116 159.405352 
L 134.926224 155.147171 
L 137.531022 153.648002 
L 140.754803 157.395579 
L 142.827837 159.42253 
L 141.016709 154.731074 
L 136.54209 150.559173 
L 140.533918 150.929704 
L 135.457862 147.61088 
L 137.066533 149.772811 
L 131.071597 148.594801 
L 130.802875 148.138858 
L 130.024351 147.467671 
L 126.202668 145.891981 
L 124.762752 144.53585 
L 122.646929 139.836699 
L 120.658525 138.557461 
L 121.80599 135.763838 
L 123.371557 135.619821 
L 125.449514 144.238539 
L 128.096217 145.847577 
L 130.295598 144.338404 
L 130.376378 147.149345 
L 133.353778 144.328067 
L 136.553197 146.409558 
L 131.956019 147.140017 
L 131.350543 150.328065 
L 128.667488 146.661227 
L 132.130708 146.88013 
L 132.000827 148.404411 
L 135.344264 146.853725 
L 135.824404 144.589455 
L 134.289066 149.840793 
L 134.382848 150.255185 
L 133.148797 151.652426 
L 133.819781 149.616652 
L 133.999013 147.648948 
L 132.405488 143.344373 
L 137.181267 144.057578 
L 135.632298 143.32337 
L 135.012937 144.561081 
L 133.466618 143.929086 
L 133.531243 143.252623 
L 130.336998 141.265002 
L 133.212916 137.651329 
L 136.434172 139.522285 
L 134.768071 134.530291 
L 130.460062 132.147892 
L 130.682461 130.005437 
L 129.222729 127.563084 
L 132.467841 128.077934 
L 134.855036 129.541832 
L 134.324029 128.472624 
L 131.712163 128.950997 
L 133.032674 131.258169 
L 139.263642 128.050671 
L 139.496391 127.488109 
L 135.234958 127.983774 
L 133.784692 127.955501 
L 139.70377 125.60289 
L 136.451717 127.273031 
L 131.088889 122.11165 
L 127.128995 126.719052 
L 124.656096 126.582356 
L 124.291321 125.260961 
L 121.725752 128.306771 
L 119.705881 126.096662 
L 119.851388 126.317925 
L 119.940915 120.348485 
L 121.706503 116.805874 
L 116.460429 114.466263 
L 120.661113 110.385955 
L 123.652144 110.39315 
L 123.503204 113.957219 
L 124.263553 111.788636 
L 126.017503 108.503134 
L 126.485905 114.532276 
L 124.827755 113.988269 
L 124.827755 113.988269 
" style="fill:none;stroke:#8c564b;stroke-linecap:square;stroke-width:1.5;"/>
   </g>
   <g id="line2d_7">
    <path clip-path="url(#pb095b2c8c2)" d="M 109.749284 153.961453 
L 106.03158 145.873237 
L 108.49556 144.393095 
L 110.808999 143.998684 
L 108.24824 139.364889 
L 115.439513 137.057717 
L 110.228761 132.624372 
L 109.258583 132.455995 
L 103.18194 125.912633 
L 97.972079 124.820075 
L 93.917532 126.274884 
L 92.020322 126.481254 
L 91.451197 123.275523 
L 91.440721 125.835639 
L 89.197795 129.51318 
L 94.409032 128.165531 
L 94.678007 123.904729 
L 96.483455 126.608231 
L 98.222612 127.67908 
L 99.248338 121.631888 
L 98.921845 123.624268 
L 99.752081 119.949 
L 93.854296 119.798798 
L 96.022752 123.328409 
L 94.877181 127.660904 
L 102.018206 131.082976 
L 99.320308 131.720386 
L 101.98207 132.077083 
L 104.238173 134.390061 
L 103.180842 133.892755 
L 105.950824 129.885907 
L 105.609564 131.860616 
L 109.101559 134.037151 
L 109.469279 136.41084 
L 103.816069 135.932341 
L 112.432098 133.198167 
L 116.676366 131.219546 
L 113.795247 134.580779 
L 114.918364 134.023014 
L 116.49336 131.130434 
L 118.474859 125.935605 
L 116.913621 124.800511 
L 119.440264 126.224144 
L 120.932751 125.900769 
L 123.067494 129.994582 
L 122.294094 129.319433 
L 123.336721 133.906008 
L 123.412074 136.320341 
L 119.583423 139.510673 
L 117.507195 138.349829 
L 117.749537 137.238842 
L 113.538453 142.608789 
L 111.352995 139.868759 
L 114.28291 137.015812 
L 115.345403 137.560577 
L 113.954461 138.900526 
L 112.503703 138.19887 
L 118.376597 142.890537 
L 113.048076 144.054334 
L 115.58127 146.125992 
L 115.016689 142.585249 
L 114.783763 141.975304 
L 116.80458 147.883616 
L 115.795352 150.136652 
L 114.671541 151.672911 
L 113.663423 152.506656 
L 115.888413 151.952602 
L 118.653801 147.988972 
L 117.449967 143.361602 
L 118.009171 144.769659 
L 115.303789 143.395997 
L 122.37846 138.043746 
L 123.158246 137.971296 
L 124.791783 135.118981 
L 122.294183 133.077628 
L 124.723245 136.888204 
L 126.090711 134.06088 
L 130.790506 131.69085 
L 128.456449 133.541359 
L 124.344081 130.706588 
L 123.975393 129.380018 
L 123.037327 129.071789 
L 123.142847 125.529935 
L 118.652224 126.337363 
L 125.529033 124.413521 
L 131.098608 127.877119 
L 132.014207 129.236759 
L 130.359212 124.791675 
L 126.684575 120.623266 
L 129.181708 123.939565 
L 132.85117 128.501023 
L 132.761554 130.974805 
L 129.615147 129.625768 
L 128.297286 134.730602 
L 129.858877 132.693162 
L 136.623249 136.462591 
L 132.977138 138.83931 
L 130.637906 135.242045 
L 130.260382 133.940088 
L 130.784826 134.6916 
L 131.860976 139.785706 
L 131.375282 143.931042 
L 127.628952 140.032339 
L 130.143629 139.536422 
L 129.682422 138.499652 
L 130.092384 139.613542 
L 132.249102 139.444281 
L 134.755954 146.093958 
L 138.147228 144.459941 
L 138.565646 143.498689 
L 135.319904 142.737886 
L 140.975561 141.97052 
L 147.97546 141.500806 
L 149.132895 139.416134 
L 148.334681 138.175141 
L 149.509788 139.476089 
L 144.565884 142.560522 
L 139.845136 143.200621 
L 140.091139 140.297401 
L 136.921002 138.380122 
L 132.837791 138.543955 
L 132.391856 138.258951 
L 131.21776 138.071515 
L 131.977729 133.666443 
L 125.733635 132.897386 
L 122.081035 133.188196 
L 119.185628 128.021009 
L 118.505127 125.781491 
L 114.85514 121.907426 
L 113.181364 116.255177 
L 111.552599 116.537783 
L 110.266247 115.454312 
L 108.885218 118.479801 
L 110.214996 119.692395 
L 109.765027 121.73968 
L 107.804438 122.615646 
L 108.179349 116.586504 
L 107.264041 121.19277 
L 105.199236 116.828215 
L 100.570074 117.18163 
L 104.358195 118.563611 
L 100.985425 121.873473 
L 98.070341 119.011944 
L 95.57341 117.998146 
L 94.938019 118.690714 
L 101.863006 116.635098 
L 103.939335 116.250128 
L 102.224311 116.71752 
L 106.499868 114.715421 
L 110.430858 111.703312 
L 117.055 112.691108 
L 112.023613 105.271781 
L 113.560857 104.069789 
L 110.397249 106.837411 
L 109.357071 108.130912 
L 104.084513 111.424366 
L 103.169356 113.175161 
L 101.676567 115.304237 
L 97.669997 115.006358 
L 103.121885 114.14718 
L 96.114262 110.441997 
L 96.295513 114.898692 
L 93.877268 115.638467 
L 92.455149 110.202558 
L 88.996853 110.849687 
L 87.169568 107.519125 
L 84.390082 104.351891 
L 86.828522 101.604338 
L 90.62635 96.561478 
L 91.030759 93.886501 
L 96.522078 87.284574 
L 95.161555 81.375467 
L 95.967216 83.481444 
L 92.588059 82.733592 
L 94.554564 88.94651 
L 94.198876 90.879314 
L 96.270522 93.156698 
L 97.862974 91.818642 
L 96.887484 87.555315 
L 98.84706 82.676162 
L 98.362098 82.590711 
L 102.083348 85.153352 
L 103.541276 87.736945 
L 102.444375 87.686457 
L 107.485885 85.991956 
L 102.436436 88.185783 
L 100.669043 91.955085 
L 100.666973 86.495321 
L 98.612682 86.670262 
L 97.216186 84.039588 
L 97.098145 84.715243 
L 93.396244 86.467048 
L 91.979427 90.701218 
L 88.363734 90.161754 
L 93.17536 88.403386 
L 91.075062 85.193995 
L 92.92292 83.534835 
L 90.111626 77.15354 
L 93.190885 83.633413 
L 90.131821 85.885553 
L 87.067078 83.855181 
L 84.067211 83.066938 
L 82.629315 81.080617 
L 84.332273 79.607758 
L 84.524758 72.210646 
L 84.620054 73.355586 
L 85.410317 70.255248 
L 82.496153 70.382604 
L 81.784652 68.735309 
L 86.0269 71.746788 
L 83.49897 68.426449 
L 80.360009 66.098956 
L 83.709252 69.96671 
L 84.296932 72.612151 
L 87.200114 75.134402 
L 86.90539 80.395117 
L 87.390579 86.442056 
L 89.068041 87.963257 
L 89.593115 89.164744 
L 87.659806 89.562463 
L 86.704827 90.113917 
L 87.16048 88.304556 
L 87.660185 85.347604 
L 83.793188 78.37661 
L 85.753634 75.929713 
L 78.912899 80.258421 
L 79.345833 81.591807 
L 81.746281 78.606835 
L 79.022458 80.054198 
L 75.351986 76.897314 
L 74.697157 72.312 
L 74.490914 73.669368 
L 71.347157 76.971531 
L 66.226798 78.007796 
L 70.492396 76.964968 
L 71.348798 78.69014 
L 68.253636 77.162628 
L 65.870353 72.498175 
L 69.571371 74.864291 
L 71.920574 73.104282 
L 70.703688 76.813125 
L 59.218947 80.15227 
L 59.808142 81.616168 
L 65.18094 80.33693 
L 64.835351 78.685596 
L 71.17411 81.200526 
L 69.077094 79.346231 
L 66.440488 72.799461 
L 71.052812 71.778217 
L 67.822469 71.308427 
L 67.014662 69.391148 
L 70.479648 65.128326 
L 70.47056 67.711288 
L 74.406978 64.235194 
L 73.682097 62.146256 
L 77.670896 57.330592 
L 73.908914 56.989293 
L 72.745168 49.180957 
L 73.283874 50.691556 
L 72.566441 53.374736 
L 72.050959 52.279022 
L 72.96782 49.369529 
L 73.524954 48.092185 
L 74.578006 45.185595 
L 75.905333 45.740962 
L 73.156266 42.049159 
L 75.557345 40.342414 
L 72.815977 37.89842 
L 64.6387 37.053378 
L 60.887321 39.530316 
L 61.384753 37.492245 
L 60.174936 42.177398 
L 61.826144 39.22701 
L 61.962335 37.278807 
L 60.560412 39.1846 
L 58.548342 38.857059 
L 58.774149 34.519515 
L 56.469627 32.734262 
L 61.402298 32.217897 
L 60.868767 34.118768 
L 58.825899 30.889181 
L 59.794005 28.615205 
L 59.00816 25.787755 
L 60.73409 27.855614 
L 59.754372 23.604152 
L 61.78853 17.083636 
L 59.46962 25.123839 
L 58.194421 31.215333 
L 58.157313 30.423809 
L 58.283785 27.048691 
L 60.554479 28.620506 
L 57.507407 26.782367 
L 61.14279 24.697216 
L 61.552752 22.0466 
L 59.105223 22.771101 
L 58.097232 28.691694 
L 63.488585 32.513504 
L 63.488585 32.513504 
" style="fill:none;stroke:#e377c2;stroke-linecap:square;stroke-width:1.5;"/>
   </g>
   <g id="PathCollection_1">
    <defs>
     <path d="M 0 3 
C 0.795609 3 1.55874 2.683901 2.12132 2.12132 
C 2.683901 1.55874 3 0.795609 3 0 
C 3 -0.795609 2.683901 -1.55874 2.12132 -2.12132 
C 1.55874 -2.683901 0.795609 -3 0 -3 
C -0.795609 -3 -1.55874 -2.683901 -2.12132 -2.12132 
C -2.683901 -1.55874 -3 -0.795609 -3 0 
C -3 0.795609 -2.683901 1.55874 -2.12132 2.12132 
C -1.55874 2.683901 -0.795609 3 0 3 
z
" id="mdcd58113ee" style="stroke:#000000;"/>
    </defs>
    <g clip-path="url(#pb095b2c8c2)">
     <use style="stroke:#000000;" x="109.749284" xlink:href="#mdcd58113ee" y="153.961453"/>
    </g>
   </g>
  </g>
 </g>
 <defs>
  <clipPath id="pb095b2c8c2">
   <rect height="217.44" width="170.424974" x="7.2" y="7.2"/>
  </clipPath>
 </defs>
</svg>
